{
.appVersion = "983";
classes = (
{
automatic = 1;

glyphs = (
{
glyphname = "hamza-ar";
lastChange = "2017-08-20 16:12:09 +0000";
layers = (
{
anchors = (
{
name = bottom;
position = "{521, -199}";
},
{
name = top;
position = "{521, 925}";
}
);
layerId = "93A312F7-B931-4485-B08E-C367313EB5E7";
paths = (
{
closed = 1;
nodes = (
"436 81 OFFCURVE",
"631 195 OFFCURVE",
"857 315 CURVE SMOOTH",
"866 320 OFFCURVE",
"871 327 OFFCURVE",
"869 336 CURVE SMOOTH",
"861 466 LINE SMOOTH",
"860 478 OFFCURVE",
"852 484 OFFCURVE",
"841 477 CURVE SMOOTH",
"494 271 LINE SMOOTH",
"486 267 OFFCURVE",
"477 267 OFFCURVE",
"470 274 CURVE SMOOTH",
"271 457 LINE SMOOTH",
"263 465 OFFCURVE",
"262 473 OFFCURVE",
"269 481 CURVE SMOOTH",
"370 599 OFFCURVE",
"507 619 OFFCURVE",
"652 614 CURVE SMOOTH",
"664 613 OFFCURVE",
"670 620 OFFCURVE",
"669 630 CURVE SMOOTH",
"658 719 LINE SMOOTH",
"657 728 OFFCURVE",
"653 735 OFFCURVE",
"643 738 CURVE SMOOTH",
"421 802 OFFCURVE",
"173 667 OFFCURVE",
"173 447 CURVE SMOOTH",
"173 351 OFFCURVE",
"275 248 OFFCURVE",
"346 195 CURVE SMOOTH",
"357 187 OFFCURVE",
"355 178 OFFCURVE",
"345 171 CURVE SMOOTH",
"224 98 LINE SMOOTH",
"216 93 OFFCURVE",
"213 87 OFFCURVE",
"213 77 CURVE SMOOTH",
"212 -26 LINE SMOOTH",
"212 -40 OFFCURVE",
"221 -46 OFFCURVE",
"232 -39 CURVE SMOOTH"
);
}
);
width = 1007;
},
{
anchors = (
{
name = bottom;
position = "{534, -145}";
},
{
name = top;
position = "{514, 921}";
}
);
layerId = "00FED3EE-B3F5-49E6-B91A-35FC52169726";
paths = (
{
closed = 1;
nodes = (
"849 316 LINE",
"859 432 OFFCURVE",
"849 470 OFFCURVE",
"821 454 CURVE SMOOTH",
"490 257 LINE SMOOTH",
"479 251 OFFCURVE",
"474 252 OFFCURVE",
"466 260 CURVE",
"275 436 LINE",
"266 445 OFFCURVE",
"266 462 OFFCURVE",
"275 468 CURVE SMOOTH",
"388 544 OFFCURVE",
"478 597 OFFCURVE",
"603 597 CURVE SMOOTH",
"653 597 OFFCURVE",
"658 599 OFFCURVE",
"657 605 CURVE SMOOTH",
"647 701 LINE",
"595 718 OFFCURVE",
"562 720 OFFCURVE",
"522 720 CURVE SMOOTH",
"333 720 OFFCURVE",
"180 590 OFFCURVE",
"180 430 CURVE SMOOTH",
"180 342 OFFCURVE",
"275 243 OFFCURVE",
"346 193 CURVE SMOOTH",
"356 186 OFFCURVE",
"355 165 OFFCURVE",
"344 160 CURVE",
"230 91 LINE SMOOTH",
"220 85 OFFCURVE",
"218 83 OFFCURVE",
"218 75 CURVE SMOOTH",
"217 -24 LINE SMOOTH",
"217 -32 OFFCURVE",
"229 -33 OFFCURVE",
"238 -31 CURVE"
);
}
);
width = 993;
},
{
anchors = (
{
name = bottom;
position = "{516, -220}";
},
{
name = top;
position = "{516, 946}";
}
);
layerId = "E3174D42-D779-465D-8194-70AED922C337";
paths = (
{
closed = 1;
nodes = (
"844 310 LINE",
"853 316 OFFCURVE",
"860 324 OFFCURVE",
"860 331 CURVE",
"852 465 LINE",
"852 481 OFFCURVE",
"840 494 OFFCURVE",
"819 482 CURVE SMOOTH",
"487 285 LINE SMOOTH",
"482 282 OFFCURVE",
"477 283 OFFCURVE",
"474 286 CURVE SMOOTH",
"283 462 LINE SMOOTH",
"278 467 OFFCURVE",
"278 468 OFFCURVE",
"282 471 CURVE SMOOTH",
"388 551 OFFCURVE",
"481 597 OFFCURVE",
"605 597 CURVE SMOOTH",
"641 597 OFFCURVE",
"672 594 OFFCURVE",
"668 622 CURVE SMOOTH",
"658 708 LINE SMOOTH",
"656 721 OFFCURVE",
"649 731 OFFCURVE",
"636 734 CURVE SMOOTH",
"599 746 OFFCURVE",
"561 750 OFFCURVE",
"524 750 CURVE SMOOTH",
"337 750 OFFCURVE",
"173 620 OFFCURVE",
"173 445 CURVE SMOOTH",
"173 349 OFFCURVE",
"275 247 OFFCURVE",
"343 196 CURVE SMOOTH",
"347 193 OFFCURVE",
"348 191 OFFCURVE",
"342 188 CURVE SMOOTH",
"227 119 LINE SMOOTH",
"216 112 OFFCURVE",
"211 103 OFFCURVE",
"211 90 CURVE SMOOTH",
"210 -9 LINE SMOOTH",
"210 -30 OFFCURVE",
"228 -38 OFFCURVE",
"244 -29 CURVE"
);
}
);
width = 995;
},
{
anchors = (
{
name = bottom;
position = "{564, -180}";
},
{
name = top;
position = "{513, 960}";
}
);
layerId = "AB6A8399-B57F-40CA-845C-76C4C0121470";
paths = (
{
closed = 1;
nodes = (
"263 -22 LINE",
"834 301 LINE",
"809 472 LINE",
"494 285 LINE SMOOTH",
"489 282 OFFCURVE",
"484 283 OFFCURVE",
"481 286 CURVE SMOOTH",
"290 462 LINE SMOOTH",
"285 467 OFFCURVE",
"285 468 OFFCURVE",
"289 471 CURVE SMOOTH",
"395 551 OFFCURVE",
"488 597 OFFCURVE",
"612 597 CURVE SMOOTH",
"621 597 OFFCURVE",
"629 597 OFFCURVE",
"637 597 CURVE",
"607 743 LINE",
"581 748 OFFCURVE",
"556 750 OFFCURVE",
"531 750 CURVE SMOOTH",
"344 750 OFFCURVE",
"180 620 OFFCURVE",
"180 445 CURVE SMOOTH",
"180 349 OFFCURVE",
"282 247 OFFCURVE",
"350 196 CURVE SMOOTH",
"354 193 OFFCURVE",
"355 191 OFFCURVE",
"349 188 CURVE SMOOTH",
"244 125 LINE"
);
}
);
width = 974;
},
{
anchors = (
{
name = bottom;
position = "{582, -180}";
},
{
name = top;
position = "{531, 960}";
}
);
layerId = "EAE1A523-EADE-4FB1-A034-E66E80F3AE4F";
paths = (
{
closed = 1;
nodes = (
"508 311 LINE",
"341 465 LINE",
"448 542 OFFCURVE",
"530 572 OFFCURVE",
"630 572 CURVE SMOOTH",
"655 572 LINE",
"679 602 LINE",
"646 764 LINE",
"614 772 OFFCURVE",
"583 775 OFFCURVE",
"549 775 CURVE SMOOTH",
"342 775 OFFCURVE",
"173 628 OFFCURVE",
"173 445 CURVE SMOOTH",
"173 368 OFFCURVE",
"233 273 OFFCURVE",
"329 194 CURVE",
"235 138 LINE",
"261 -62 LINE",
"879 288 LINE",
"846 513 LINE"
);
}
);
width = 1014;
},
{
anchors = (
{
name = bottom;
position = "{513, -220}";
},
{
name = top;
position = "{797, 956}";
}
);
layerId = "020FDE62-5533-4E0C-98E7-097025284E4F";
paths = (
{
closed = 1;
nodes = (
"947 310 LINE",
"958 316 OFFCURVE",
"967 324 OFFCURVE",
"969 331 CURVE",
"1004 465 LINE",
"1009 481 OFFCURVE",
"1001 495 OFFCURVE",
"976 482 CURVE SMOOTH",
"581 285 LINE SMOOTH",
"576 282 OFFCURVE",
"571 283 OFFCURVE",
"569 286 CURVE SMOOTH",
"434 462 LINE SMOOTH",
"430 467 OFFCURVE",
"430 468 OFFCURVE",
"436 471 CURVE SMOOTH",
"570 546 OFFCURVE",
"675 597 OFFCURVE",
"799 597 CURVE SMOOTH",
"835 597 OFFCURVE",
"864 594 OFFCURVE",
"870 622 CURVE SMOOTH",
"887 708 LINE SMOOTH",
"889 721 OFFCURVE",
"885 731 OFFCURVE",
"873 734 CURVE SMOOTH",
"838 743 OFFCURVE",
"803 750 OFFCURVE",
"766 750 CURVE SMOOTH",
"579 750 OFFCURVE",
"374 620 OFFCURVE",
"318 445 CURVE SMOOTH",
"287 349 OFFCURVE",
"353 242 OFFCURVE",
"409 196 CURVE SMOOTH",
"413 193 OFFCURVE",
"412 191 OFFCURVE",
"406 188 CURVE SMOOTH",
"269 119 LINE SMOOTH",
"256 112 OFFCURVE",
"248 103 OFFCURVE",
"244 90 CURVE SMOOTH",
"211 -9 LINE SMOOTH",
"204 -30 OFFCURVE",
"220 -38 OFFCURVE",
"239 -29 CURVE"
);
}
);
width = 996;
},
{
anchors = (
{
name = bottom;
position = "{487, -145}";
},
{
name = top;
position = "{813, 921}";
}
);
layerId = "CC24164E-6342-4A92-AABB-B05B5693BF45";
paths = (
{
closed = 1;
nodes = (
"952 316 LINE",
"1000 432 OFFCURVE",
"1002 470 OFFCURVE",
"969 454 CURVE SMOOTH",
"574 257 LINE SMOOTH",
"561 251 OFFCURVE",
"556 252 OFFCURVE",
"551 260 CURVE",
"417 436 LINE",
"411 445 OFFCURVE",
"416 462 OFFCURVE",
"427 468 CURVE SMOOTH",
"565 544 OFFCURVE",
"672 597 OFFCURVE",
"797 597 CURVE SMOOTH",
"847 597 OFFCURVE",
"853 599 OFFCURVE",
"854 605 CURVE SMOOTH",
"875 701 LINE",
"829 718 OFFCURVE",
"796 720 OFFCURVE",
"756 720 CURVE SMOOTH",
"567 720 OFFCURVE",
"372 590 OFFCURVE",
"320 430 CURVE SMOOTH",
"291 342 OFFCURVE",
"354 243 OFFCURVE",
"409 193 CURVE SMOOTH",
"417 186 OFFCURVE",
"409 165 OFFCURVE",
"396 160 CURVE",
"260 91 LINE SMOOTH",
"248 85 OFFCURVE",
"245 83 OFFCURVE",
"243 75 CURVE SMOOTH",
"209 -24 LINE SMOOTH",
"207 -32 OFFCURVE",
"218 -33 OFFCURVE",
"228 -31 CURVE"
);
}
);
width = 993;
},
{
anchors = (
{
name = bottom;
position = "{515, -220}";
},
{
name = top;
position = "{657, 951}";
}
);
associatedMasterId = "00FED3EE-B3F5-49E6-B91A-35FC52169726";
layerId = "A59E3E2D-B48C-4CDD-836A-A1E73DB51526";
paths = (
{
closed = 1;
nodes = (
"896 310 LINE",
"906 316 OFFCURVE",
"914 324 OFFCURVE",
"915 331 CURVE",
"928 465 LINE",
"931 481 OFFCURVE",
"921 495 OFFCURVE",
"898 482 CURVE SMOOTH",
"534 285 LINE SMOOTH",
"529 282 OFFCURVE",
"524 283 OFFCURVE",
"522 286 CURVE SMOOTH",
"359 462 LINE SMOOTH",
"354 467 OFFCURVE",
"354 468 OFFCURVE",
"359 471 CURVE SMOOTH",
"479 549 OFFCURVE",
"578 597 OFFCURVE",
"702 597 CURVE SMOOTH",
"738 597 OFFCURVE",
"768 594 OFFCURVE",
"769 622 CURVE SMOOTH",
"773 708 LINE SMOOTH",
"773 721 OFFCURVE",
"767 731 OFFCURVE",
"755 734 CURVE SMOOTH",
"719 745 OFFCURVE",
"682 750 OFFCURVE",
"645 750 CURVE SMOOTH",
"458 750 OFFCURVE",
"274 620 OFFCURVE",
"246 445 CURVE SMOOTH",
"230 349 OFFCURVE",
"314 245 OFFCURVE",
"376 196 CURVE SMOOTH",
"380 193 OFFCURVE",
"380 191 OFFCURVE",
"374 188 CURVE SMOOTH",
"248 119 LINE SMOOTH",
"236 112 OFFCURVE",
"230 103 OFFCURVE",
"228 90 CURVE SMOOTH",
"211 -9 LINE SMOOTH",
"207 -30 OFFCURVE",
"224 -38 OFFCURVE",
"242 -29 CURVE"
);
}
);
width = 996;
},
{
anchors = (
{
name = bottom;
position = "{524, -180}";
},
{
name = top;
position = "{843, 960}";
}
);
layerId = "A4A63F56-930B-4BA2-9E35-208CEDD14325";
paths = (
{
closed = 1;
nodes = (
"609 311 LINE",
"492 465 LINE",
"624 542 OFFCURVE",
"716 572 OFFCURVE",
"816 572 CURVE SMOOTH",
"841 572 LINE",
"875 602 LINE",
"894 764 LINE",
"865 772 OFFCURVE",
"835 775 OFFCURVE",
"801 775 CURVE SMOOTH",
"594 775 OFFCURVE",
"377 628 OFFCURVE",
"318 445 CURVE SMOOTH",
"293 368 OFFCURVE",
"322 273 OFFCURVE",
"392 194 CURVE",
"280 138 LINE",
"241 -62 LINE",
"973 288 LINE",
"1013 513 LINE"
);
}
);
width = 1014;
}
);
leftKerningGroup = all;
unicode = 0621;
},
{
glyphname = "alef-ar";
lastChange = "2017-08-20 16:12:35 +0000";
layers = (
{
anchors = (
{
name = bottom;
position = "{293, -207}";
},
{
name = top;
position = "{259, 1707}";
}
);
layerId = "93A312F7-B931-4485-B08E-C367313EB5E7";
paths = (
{
closed = 1;
nodes = (
"344 -3 LINE SMOOTH",
"350 -1 OFFCURVE",
"354 3 OFFCURVE",
"354 12 CURVE SMOOTH",
"346 1519 LINE SMOOTH",
"346 1538 OFFCURVE",
"330 1546 OFFCURVE",
"315 1538 CURVE SMOOTH",
"181 1465 LINE SMOOTH",
"176 1463 OFFCURVE",
"173 1458 OFFCURVE",
"173 1451 CURVE SMOOTH",
"232 -15 LINE SMOOTH",
"232 -29 OFFCURVE",
"246 -38 OFFCURVE",
"259 -33 CURVE SMOOTH"
);
}
);
width = 492;
},
{
anchors = (
{
name = bottom;
position = "{294, -223}";
},
{
name = top;
position = "{271, 1622}";
}
);
layerId = "00FED3EE-B3F5-49E6-B91A-35FC52169726";
paths = (
{
closed = 1;
nodes = (
"180 1393 LINE",
"234 -19 LINE",
"235 -29 OFFCURVE",
"243 -39 OFFCURVE",
"263 -31 CURVE SMOOTH",
"353 6 LINE",
"345 1453 LINE",
"345 1466 OFFCURVE",
"328 1473 OFFCURVE",
"314 1466 CURVE"
);
}
);
width = 493;
},
{
anchors = (
{
name = bottom;
position = "{298, -228}";
},
{
name = top;
position = "{275, 1707}";
}
);
layerId = "E3174D42-D779-465D-8194-70AED922C337";
paths = (
{
closed = 1;
nodes = (
"349 -2 LINE SMOOTH",
"360 1 OFFCURVE",
"366 10 OFFCURVE",
"366 21 CURVE SMOOTH",
"358 1468 LINE SMOOTH",
"358 1493 OFFCURVE",
"336 1505 OFFCURVE",
"314 1495 CURVE SMOOTH",
"182 1423 LINE SMOOTH",
"176 1419 OFFCURVE",
"173 1411 OFFCURVE",
"173 1403 CURVE SMOOTH",
"229 -5 LINE SMOOTH",
"230 -22 OFFCURVE",
"244 -37 OFFCURVE",
"269 -31 CURVE SMOOTH"
);
}
);
width = 501;
},
{
anchors = (
{
name = bottom;
position = "{325, -229}";
},
{
name = top;
position = "{302, 1656}";
}
);
layerId = "AB6A8399-B57F-40CA-845C-76C4C0121470";
paths = (
{
closed = 1;
nodes = (
"413 0 LINE",
"405 1447 LINE",
"180 1381 LINE",
"236 -27 LINE"
);
}
);
width = 553;
},
{
anchors = (
{
name = bottom;
position = "{344, -249}";
},
{
name = top;
position = "{341, 1716}";
}
);
layerId = "EAE1A523-EADE-4FB1-A034-E66E80F3AE4F";
paths = (
{
closed = 1;
nodes = (
"457 0 LINE",
"449 1501 LINE",
"173 1420 LINE",
"231 -35 LINE"
);
}
);
width = 592;
},
{
anchors = (
{
name = bottom;
position = "{251, -228}";
},
{
name = top;
position = "{821, 1707}";
}
);
layerId = "020FDE62-5533-4E0C-98E7-097025284E4F";
paths = (
{
closed = 1;
nodes = (
"360 -2 LINE SMOOTH",
"371 1 OFFCURVE",
"380 10 OFFCURVE",
"384 21 CURVE SMOOTH",
"835 1468 LINE SMOOTH",
"844 1493 OFFCURVE",
"825 1505 OFFCURVE",
"800 1495 CURVE SMOOTH",
"646 1423 LINE SMOOTH",
"638 1419 OFFCURVE",
"632 1411 OFFCURVE",
"629 1403 CURVE SMOOTH",
"238 -5 LINE SMOOTH",
"235 -22 OFFCURVE",
"243 -37 OFFCURVE",
"271 -31 CURVE SMOOTH"
);
}
);
width = 512;
},
{
anchors = (
{
name = bottom;
position = "{221, -223}";
},
{
name = top;
position = "{798, 1622}";
}
);
layerId = "CC24164E-6342-4A92-AABB-B05B5693BF45";
paths = (
{
closed = 1;
nodes = (
"633 1393 LINE",
"228 -19 LINE",
"225 -29 OFFCURVE",
"230 -39 OFFCURVE",
"253 -31 CURVE SMOOTH",
"355 6 LINE",
"817 1453 LINE",
"821 1466 OFFCURVE",
"806 1473 OFFCURVE",
"790 1466 CURVE"
);
}
);
width = 493;
},
{
anchors = (
{
name = bottom;
position = "{275, -228}";
},
{
name = top;
position = "{548, 1707}";
}
);
associatedMasterId = "00FED3EE-B3F5-49E6-B91A-35FC52169726";
layerId = "A59E3E2D-B48C-4CDD-836A-A1E73DB51526";
paths = (
{
closed = 1;
nodes = (
"355 -2 LINE SMOOTH",
"366 1 OFFCURVE",
"373 10 OFFCURVE",
"375 21 CURVE SMOOTH",
"597 1468 LINE SMOOTH",
"601 1493 OFFCURVE",
"581 1505 OFFCURVE",
"557 1495 CURVE SMOOTH",
"414 1423 LINE SMOOTH",
"407 1419 OFFCURVE",
"403 1411 OFFCURVE",
"401 1403 CURVE SMOOTH",
"234 -5 LINE SMOOTH",
"233 -22 OFFCURVE",
"244 -37 OFFCURVE",
"270 -31 CURVE SMOOTH"
);
}
);
width = 507;
},
{
anchors = (
{
name = bottom;
position = "{263, -249}";
},
{
name = top;
position = "{898, 1716}";
}
);
layerId = "A4A63F56-930B-4BA2-9E35-208CEDD14325";
paths = (
{
closed = 1;
nodes = (
"457 0 LINE",
"937 1501 LINE",
"634 1420 LINE",
"219 -35 LINE"
);
}
);
width = 592;
}
);
leftKerningGroup = a;
unicode = 0627;
},
{
glyphname = "alef-ar.fina";
lastChange = "2017-08-20 16:12:57 +0000";
layers = (
{
anchors = (
{
name = bottom;
position = "{486, -173}";
},
{
name = top;
position = "{253, 1702}";
}
);
layerId = "93A312F7-B931-4485-B08E-C367313EB5E7";
paths = (
{
closed = 1;
nodes = (
"685 0 LINE",
"733 60 OFFCURVE",
"733 119 OFFCURVE",
"685 179 CURVE",
"599 179 LINE SMOOTH",
"545 179 OFFCURVE",
"436 200 OFFCURVE",
"366 243 CURVE SMOOTH",
"358 247 OFFCURVE",
"354 253 OFFCURVE",
"354 263 CURVE SMOOTH",
"335 1520 LINE SMOOTH",
"335 1534 OFFCURVE",
"327 1540 OFFCURVE",
"314 1532 CURVE SMOOTH",
"183 1449 LINE SMOOTH",
"175 1443 OFFCURVE",
"173 1439 OFFCURVE",
"173 1428 CURVE SMOOTH",
"225 393 LINE SMOOTH",
"239 123 OFFCURVE",
"307 0 OFFCURVE",
"551 0 CURVE SMOOTH"
);
}
);
width = 666;
},
{
anchors = (
{
name = bottom;
position = "{501, -200}";
},
{
name = top;
position = "{267, 1597}";
}
);
layerId = "00FED3EE-B3F5-49E6-B91A-35FC52169726";
paths = (
{
closed = 1;
nodes = (
"674 0 LINE",
"696 28 OFFCURVE",
"706 53 OFFCURVE",
"706 81 CURVE SMOOTH",
"706 109 OFFCURVE",
"696 133 OFFCURVE",
"674 161 CURVE",
"589 161 LINE SMOOTH",
"538 161 OFFCURVE",
"436 180 OFFCURVE",
"365 224 CURVE",
"337 1458 LINE SMOOTH",
"337 1468 OFFCURVE",
"327 1472 OFFCURVE",
"315 1465 CURVE",
"180 1383 LINE",
"230 372 LINE SMOOTH",
"244 95 OFFCURVE",
"324 0 OFFCURVE",
"543 0 CURVE SMOOTH"
);
}
);
width = 654;
},
{
anchors = (
{
name = bottom;
position = "{483, -195}";
},
{
name = top;
position = "{259, 1682}";
}
);
layerId = "E3174D42-D779-465D-8194-70AED922C337";
paths = (
{
closed = 1;
nodes = (
"591 191 LINE SMOOTH",
"540 191 OFFCURVE",
"439 210 OFFCURVE",
"372 252 CURVE",
"368 254 OFFCURVE",
"366 255 OFFCURVE",
"366 262 CURVE",
"348 1473 LINE",
"348 1491 OFFCURVE",
"336 1506 OFFCURVE",
"313 1493 CURVE SMOOTH",
"187 1422 LINE SMOOTH",
"177 1416 OFFCURVE",
"173 1409 OFFCURVE",
"173 1398 CURVE",
"223 386 LINE SMOOTH",
"237 102 OFFCURVE",
"321 0 OFFCURVE",
"545 0 CURVE SMOOTH",
"666 0 LINE",
"693 32 OFFCURVE",
"705 64 OFFCURVE",
"705 96 CURVE SMOOTH",
"705 128 OFFCURVE",
"693 159 OFFCURVE",
"666 191 CURVE"
);
}
);
width = 656;
},
{
anchors = (
{
name = bottom;
position = "{572, -210}";
},
{
name = top;
position = "{296, 1698}";
}
);
layerId = "AB6A8399-B57F-40CA-845C-76C4C0121470";
paths = (
{
closed = 1;
nodes = (
"230 401 LINE SMOOTH",
"243 148 OFFCURVE",
"336 0 OFFCURVE",
"572 0 CURVE SMOOTH",
"703 0 LINE",
"738 35 OFFCURVE",
"753 72 OFFCURVE",
"753 112 CURVE SMOOTH",
"753 152 OFFCURVE",
"738 188 OFFCURVE",
"703 223 CURVE",
"618 223 LINE SMOOTH",
"570 223 OFFCURVE",
"478 240 OFFCURVE",
"413 279 CURVE",
"395 1489 LINE",
"180 1413 LINE"
);
}
);
width = 683;
},
{
anchors = (
{
name = bottom;
position = "{591, -220}";
},
{
name = top;
position = "{335, 1758}";
}
);
layerId = "EAE1A523-EADE-4FB1-A034-E66E80F3AE4F";
paths = (
{
closed = 1;
nodes = (
"224 425 LINE SMOOTH",
"238 138 OFFCURVE",
"357 0 OFFCURVE",
"591 0 CURVE SMOOTH",
"732 0 LINE",
"775 39 OFFCURVE",
"797 86 OFFCURVE",
"797 137 CURVE SMOOTH",
"797 188 OFFCURVE",
"775 233 OFFCURVE",
"732 273 CURVE",
"637 273 LINE SMOOTH",
"583 273 OFFCURVE",
"507 292 OFFCURVE",
"457 319 CURVE",
"438 1549 LINE",
"173 1455 LINE"
);
}
);
width = 702;
},
{
anchors = (
{
name = bottom;
position = "{432, -195}";
},
{
name = top;
position = "{805, 1682}";
}
);
layerId = "020FDE62-5533-4E0C-98E7-097025284E4F";
paths = (
{
closed = 1;
nodes = (
"661 191 LINE SMOOTH",
"610 191 OFFCURVE",
"515 210 OFFCURVE",
"462 252 CURVE",
"459 254 OFFCURVE",
"457 255 OFFCURVE",
"459 262 CURVE",
"826 1473 LINE",
"832 1491 OFFCURVE",
"825 1506 OFFCURVE",
"797 1493 CURVE SMOOTH",
"649 1422 LINE SMOOTH",
"637 1416 OFFCURVE",
"630 1409 OFFCURVE",
"627 1398 CURVE",
"356 386 LINE SMOOTH",
"279 102 OFFCURVE",
"331 0 OFFCURVE",
"555 0 CURVE SMOOTH",
"676 0 LINE",
"714 32 OFFCURVE",
"735 64 OFFCURVE",
"745 96 CURVE SMOOTH",
"756 128 OFFCURVE",
"754 159 OFFCURVE",
"736 191 CURVE"
);
}
);
width = 665;
},
{
anchors = (
{
name = bottom;
position = "{435, -200}";
},
{
name = top;
position = "{785, 1597}";
}
);
layerId = "CC24164E-6342-4A92-AABB-B05B5693BF45";
paths = (
{
closed = 1;
nodes = (
"673 0 LINE",
"705 28 OFFCURVE",
"723 53 OFFCURVE",
"732 81 CURVE SMOOTH",
"741 109 OFFCURVE",
"739 133 OFFCURVE",
"726 161 CURVE",
"641 161 LINE SMOOTH",
"590 161 OFFCURVE",
"494 180 OFFCURVE",
"437 224 CURVE",
"810 1458 LINE SMOOTH",
"813 1468 OFFCURVE",
"805 1472 OFFCURVE",
"790 1465 CURVE",
"629 1383 LINE",
"350 372 LINE SMOOTH",
"274 95 OFFCURVE",
"323 0 OFFCURVE",
"542 0 CURVE SMOOTH"
);
}
);
width = 654;
},
{
anchors = (
{
name = bottom;
position = "{458, -195}";
},
{
name = top;
position = "{532, 1682}";
}
);
associatedMasterId = "00FED3EE-B3F5-49E6-B91A-35FC52169726";
layerId = "A59E3E2D-B48C-4CDD-836A-A1E73DB51526";
paths = (
{
closed = 1;
nodes = (
"626 191 LINE SMOOTH",
"575 191 OFFCURVE",
"477 210 OFFCURVE",
"417 252 CURVE",
"414 254 OFFCURVE",
"412 255 OFFCURVE",
"413 262 CURVE",
"587 1473 LINE",
"590 1491 OFFCURVE",
"581 1506 OFFCURVE",
"555 1493 CURVE SMOOTH",
"418 1422 LINE SMOOTH",
"407 1416 OFFCURVE",
"402 1409 OFFCURVE",
"400 1398 CURVE",
"290 386 LINE SMOOTH",
"258 102 OFFCURVE",
"326 0 OFFCURVE",
"550 0 CURVE SMOOTH",
"671 0 LINE",
"704 32 OFFCURVE",
"720 64 OFFCURVE",
"725 96 CURVE SMOOTH",
"731 128 OFFCURVE",
"724 159 OFFCURVE",
"701 191 CURVE"
);
}
);
width = 661;
},
{
anchors = (
{
name = bottom;
position = "{520, -220}";
},
{
name = top;
position = "{907, 1758}";
}
);
layerId = "A4A63F56-930B-4BA2-9E35-208CEDD14325";
paths = (
{
closed = 1;
nodes = (
"362 425 LINE SMOOTH",
"283 138 OFFCURVE",
"357 0 OFFCURVE",
"591 0 CURVE SMOOTH",
"732 0 LINE",
"788 39 OFFCURVE",
"825 86 OFFCURVE",
"842 137 CURVE SMOOTH",
"858 188 OFFCURVE",
"851 233 OFFCURVE",
"821 273 CURVE",
"726 273 LINE SMOOTH",
"672 273 OFFCURVE",
"602 292 OFFCURVE",
"561 319 CURVE",
"942 1549 LINE",
"646 1455 LINE"
);
}
);
width = 702;
}
);
unicode = FE8E;
},
{
glyphname = "alef-ar.short";
lastChange = "2017-08-20 16:15:27 +0000";
layers = (
{
anchors = (
{
name = bottom;
position = "{293, -206}";
},
{
name = top;
position = "{259, 1533}";
}
);
layerId = "93A312F7-B931-4485-B08E-C367313EB5E7";
paths = (
{
closed = 1;
nodes = (
"344 -3 LINE SMOOTH",
"350 -1 OFFCURVE",
"354 3 OFFCURVE",
"354 12 CURVE SMOOTH",
"346 1347 LINE SMOOTH",
"346 1365 OFFCURVE",
"330 1373 OFFCURVE",
"315 1365 CURVE SMOOTH",
"181 1293 LINE SMOOTH",
"176 1290 OFFCURVE",
"173 1286 OFFCURVE",
"173 1279 CURVE SMOOTH",
"232 -15 LINE SMOOTH",
"233 -29 OFFCURVE",
"246 -38 OFFCURVE",
"259 -33 CURVE SMOOTH"
);
}
);
width = 492;
},
{
anchors = (
{
name = bottom;
position = "{303, -216}";
},
{
name = top;
position = "{269, 1443}";
}
);
components = (
{
name = "alef-ar";
transform = "{1, 0, 0, 0.893, 0, 0}";
}
);
layerId = "00FED3EE-B3F5-49E6-B91A-35FC52169726";
width = 493;
},
{
anchors = (
{
name = bottom;
position = "{303, -226}";
},
{
name = top;
position = "{269, 1533}";
}
);
components = (
{
name = "alef-ar";
transform = "{1, 0, 0, 0.893, 0, 0}";
}
);
layerId = "E3174D42-D779-465D-8194-70AED922C337";
width = 501;
},
{
anchors = (
{
name = bottom;
position = "{323, -226}";
},
{
name = top;
position = "{299, 1496}";
}
);
components = (
{
name = "alef-ar";
transform = "{1, 0, 0, 0.893, 0, 0}";
}
);
layerId = "AB6A8399-B57F-40CA-845C-76C4C0121470";
width = 553;
},
{
anchors = (
{
name = bottom;
position = "{343, -226}";
},
{
name = top;
position = "{329, 1536}";
}
);
components = (
{
name = "alef-ar";
transform = "{1, 0, 0, 0.893, 0, 0}";
}
);
layerId = "EAE1A523-EADE-4FB1-A034-E66E80F3AE4F";
width = 592;
},
{
anchors = (
{
name = bottom;
position = "{263, -226}";
},
{
name = top;
position = "{796, 1546}";
}
);
components = (
{
name = "alef-ar";
transform = "{1, 0, 0, 0.893, 0, 0}";
}
);
layerId = "020FDE62-5533-4E0C-98E7-097025284E4F";
width = 512;
},
{
anchors = (
{
name = bottom;
position = "{223, -216}";
},
{
name = top;
position = "{819, 1543}";
}
);
components = (
{
name = "alef-ar";
transform = "{1, 0, 0, 0.893, 0, 0}";
}
);
layerId = "CC24164E-6342-4A92-AABB-B05B5693BF45";
width = 493;
},
{
anchors = (
{
name = bottom;
position = "{283, -226}";
},
{
name = top;
position = "{533, 1540}";
}
);
associatedMasterId = "00FED3EE-B3F5-49E6-B91A-35FC52169726";
components = (
{
name = "alef-ar";
transform = "{1, 0, 0, 0.893, 0, 0}";
}
);
layerId = "A59E3E2D-B48C-4CDD-836A-A1E73DB51526";
width = 507;
},
{
anchors = (
{
name = bottom;
position = "{267, -226}";
},
{
name = top;
position = "{865, 1536}";
}
);
components = (
{
name = "alef-ar";
transform = "{1, 0, 0, 0.893, 0, 0}";
}
);
layerId = "A4A63F56-930B-4BA2-9E35-208CEDD14325";
width = 592;
}
);
leftKerningGroup = a;
userData = {
com.typemytype.robofont.guides = (
{
angle = 0;
isGlobal = 0;
x = 293;
y = 1187;
}
);
};
},
{
glyphname = "alef-ar.fina.short";
lastChange = "2017-08-20 16:13:09 +0000";
layers = (
{
anchors = (
{
name = bottom;
position = "{469, -173}";
},
{
name = top;
position = "{339, 1523}";
}
);
layerId = "93A312F7-B931-4485-B08E-C367313EB5E7";
paths = (
{
closed = 1;
nodes = (
"686 0 LINE",
"734 60 OFFCURVE",
"734 119 OFFCURVE",
"686 179 CURVE",
"599 179 LINE SMOOTH",
"545 179 OFFCURVE",
"436 200 OFFCURVE",
"366 243 CURVE SMOOTH",
"358 247 OFFCURVE",
"354 253 OFFCURVE",
"354 263 CURVE SMOOTH",
"335 1336 LINE SMOOTH",
"335 1350 OFFCURVE",
"327 1356 OFFCURVE",
"314 1348 CURVE SMOOTH",
"183 1265 LINE SMOOTH",
"175 1259 OFFCURVE",
"172 1255 OFFCURVE",
"173 1244 CURVE SMOOTH",
"225 393 LINE SMOOTH",
"243 123 OFFCURVE",
"307 0 OFFCURVE",
"551 0 CURVE SMOOTH"
);
}
);
width = 666;
},
{
anchors = (
{
name = bottom;
position = "{505, -200}";
},
{
name = top;
position = "{263, 1387}";
}
);
layerId = "00FED3EE-B3F5-49E6-B91A-35FC52169726";
paths = (
{
closed = 1;
nodes = (
"589 161 LINE SMOOTH",
"538 161 OFFCURVE",
"436 180 OFFCURVE",
"365 224 CURVE",
"337 1256 LINE",
"337 1265 OFFCURVE",
"324 1269 OFFCURVE",
"316 1264 CURVE SMOOTH",
"180 1177 LINE",
"230 372 LINE SMOOTH",
"247 93 OFFCURVE",
"326 0 OFFCURVE",
"543 0 CURVE SMOOTH",
"674 0 LINE",
"696 28 OFFCURVE",
"706 53 OFFCURVE",
"706 81 CURVE SMOOTH",
"706 109 OFFCURVE",
"696 133 OFFCURVE",
"674 161 CURVE"
);
}
);
width = 654;
},
{
anchors = (
{
name = bottom;
position = "{487, -205}";
},
{
name = top;
position = "{275, 1502}";
}
);
layerId = "E3174D42-D779-465D-8194-70AED922C337";
paths = (
{
closed = 1;
nodes = (
"591 191 LINE SMOOTH",
"540 191 OFFCURVE",
"439 210 OFFCURVE",
"372 252 CURVE",
"368 254 OFFCURVE",
"366 255 OFFCURVE",
"366 262 CURVE",
"348 1271 LINE",
"348 1289 OFFCURVE",
"332 1304 OFFCURVE",
"313 1291 CURVE SMOOTH",
"187 1211 LINE SMOOTH",
"177 1205 OFFCURVE",
"173 1198 OFFCURVE",
"173 1187 CURVE",
"223 386 LINE SMOOTH",
"241 102 OFFCURVE",
"321 0 OFFCURVE",
"545 0 CURVE SMOOTH",
"666 0 LINE",
"693 32 OFFCURVE",
"705 64 OFFCURVE",
"705 96 CURVE SMOOTH",
"705 128 OFFCURVE",
"693 159 OFFCURVE",
"666 191 CURVE"
);
}
);
width = 656;
},
{
anchors = (
{
name = bottom;
position = "{573, -210}";
},
{
name = top;
position = "{302, 1492}";
}
);
layerId = "AB6A8399-B57F-40CA-845C-76C4C0121470";
paths = (
{
closed = 1;
nodes = (
"618 223 LINE SMOOTH",
"570 223 OFFCURVE",
"478 240 OFFCURVE",
"413 279 CURVE",
"395 1287 LINE",
"180 1202 LINE",
"230 401 LINE SMOOTH",
"248 106 OFFCURVE",
"338 0 OFFCURVE",
"572 0 CURVE SMOOTH",
"722 0 LINE",
"757 35 OFFCURVE",
"772 72 OFFCURVE",
"772 112 CURVE SMOOTH",
"772 152 OFFCURVE",
"757 188 OFFCURVE",
"722 223 CURVE"
);
}
);
width = 707;
},
{
anchors = (
{
name = bottom;
position = "{592, -220}";
},
{
name = top;
position = "{321, 1542}";
}
);
layerId = "EAE1A523-EADE-4FB1-A034-E66E80F3AE4F";
paths = (
{
closed = 1;
nodes = (
"637 273 LINE SMOOTH",
"583 273 OFFCURVE",
"507 292 OFFCURVE",
"457 319 CURVE",
"438 1349 LINE",
"173 1244 LINE",
"224 424 LINE SMOOTH",
"243 117 OFFCURVE",
"343 0 OFFCURVE",
"591 0 CURVE SMOOTH",
"756 0 LINE",
"799 39 OFFCURVE",
"821 86 OFFCURVE",
"821 137 CURVE SMOOTH",
"821 188 OFFCURVE",
"799 233 OFFCURVE",
"756 273 CURVE"
);
}
);
width = 726;
},
{
anchors = (
{
name = bottom;
position = "{430, -205}";
},
{
name = top;
position = "{761, 1502}";
}
);
layerId = "020FDE62-5533-4E0C-98E7-097025284E4F";
paths = (
{
closed = 1;
nodes = (
"660 191 LINE SMOOTH",
"609 191 OFFCURVE",
"514 210 OFFCURVE",
"460 252 CURVE",
"457 254 OFFCURVE",
"455 255 OFFCURVE",
"457 262 CURVE",
"759 1271 LINE",
"765 1289 OFFCURVE",
"754 1304 OFFCURVE",
"732 1291 CURVE SMOOTH",
"580 1211 LINE SMOOTH",
"568 1205 OFFCURVE",
"562 1198 OFFCURVE",
"559 1187 CURVE",
"353 386 LINE SMOOTH",
"282 102 OFFCURVE",
"329 0 OFFCURVE",
"553 0 CURVE SMOOTH",
"674 0 LINE",
"711 32 OFFCURVE",
"734 64 OFFCURVE",
"744 96 CURVE SMOOTH",
"753 128 OFFCURVE",
"752 159 OFFCURVE",
"735 191 CURVE"
);
}
);
width = 664;
},
{
anchors = (
{
name = bottom;
position = "{379, -200}";
},
{
name = top;
position = "{713, 1387}";
}
);
layerId = "CC24164E-6342-4A92-AABB-B05B5693BF45";
paths = (
{
closed = 1;
nodes = (
"641 161 LINE SMOOTH",
"590 161 OFFCURVE",
"494 180 OFFCURVE",
"437 224 CURVE",
"744 1256 LINE",
"747 1265 OFFCURVE",
"736 1269 OFFCURVE",
"726 1264 CURVE SMOOTH",
"562 1177 LINE",
"350 372 LINE SMOOTH",
"277 93 OFFCURVE",
"325 0 OFFCURVE",
"542 0 CURVE SMOOTH",
"673 0 LINE",
"704 28 OFFCURVE",
"723 53 OFFCURVE",
"732 81 CURVE SMOOTH",
"741 109 OFFCURVE",
"739 133 OFFCURVE",
"726 161 CURVE"
);
}
);
width = 654;
},
{
anchors = (
{
name = bottom;
position = "{459, -205}";
},
{
name = top;
position = "{518, 1502}";
}
);
associatedMasterId = "00FED3EE-B3F5-49E6-B91A-35FC52169726";
layerId = "A59E3E2D-B48C-4CDD-836A-A1E73DB51526";
paths = (
{
closed = 1;
nodes = (
"626 191 LINE SMOOTH",
"575 191 OFFCURVE",
"477 210 OFFCURVE",
"416 252 CURVE",
"413 254 OFFCURVE",
"411 255 OFFCURVE",
"412 262 CURVE",
"554 1271 LINE",
"557 1289 OFFCURVE",
"543 1304 OFFCURVE",
"523 1291 CURVE SMOOTH",
"384 1211 LINE SMOOTH",
"373 1205 OFFCURVE",
"368 1198 OFFCURVE",
"366 1187 CURVE",
"288 386 LINE SMOOTH",
"262 102 OFFCURVE",
"325 0 OFFCURVE",
"549 0 CURVE SMOOTH",
"670 0 LINE",
"702 32 OFFCURVE",
"720 64 OFFCURVE",
"725 96 CURVE SMOOTH",
"729 128 OFFCURVE",
"723 159 OFFCURVE",
"701 191 CURVE"
);
}
);
width = 660;
},
{
anchors = (
{
name = bottom;
position = "{520, -220}";
},
{
name = top;
position = "{822, 1542}";
}
);
layerId = "A4A63F56-930B-4BA2-9E35-208CEDD14325";
paths = (
{
closed = 1;
nodes = (
"726 273 LINE SMOOTH",
"672 273 OFFCURVE",
"602 292 OFFCURVE",
"560 319 CURVE",
"876 1349 LINE",
"577 1244 LINE",
"362 424 LINE SMOOTH",
"281 117 OFFCURVE",
"343 0 OFFCURVE",
"591 0 CURVE SMOOTH",
"756 0 LINE",
"812 39 OFFCURVE",
"849 86 OFFCURVE",
"865 137 CURVE SMOOTH",
"882 188 OFFCURVE",
"875 233 OFFCURVE",
"845 273 CURVE"
);
}
);
width = 725;
}
);
userData = {
com.schriftgestaltung.Glyphs.rightMetricsKey = z;
com.typemytype.robofont.guides = (
{
angle = 0;
isGlobal = 0;
x = 285;
y = 1176;
}
);
};
},
{
glyphname = "behDotless-ar";
lastChange = "2017-08-20 16:14:17 +0000";
layers = (
{
anchors = (
{
name = bottom;
position = "{889, -227}";
},
{
name = top;
position = "{836, 861}";
}
);
layerId = "93A312F7-B931-4485-B08E-C367313EB5E7";
paths = (
{
closed = 1;
nodes = (
"798 -56 OFFCURVE",
"967 -44 OFFCURVE",
"1141 -13 CURVE SMOOTH",
"1443 35 OFFCURVE",
"1686 126 OFFCURVE",
"1686 412 CURVE SMOOTH",
"1686 504 OFFCURVE",
"1616 788 OFFCURVE",
"1574 964 CURVE SMOOTH",
"1571 976 OFFCURVE",
"1561 977 OFFCURVE",
"1551 968 CURVE SMOOTH",
"1448 864 LINE SMOOTH",
"1442 857 OFFCURVE",
"1440 850 OFFCURVE",
"1442 841 CURVE SMOOTH",
"1570 292 LINE SMOOTH",
"1572 282 OFFCURVE",
"1570 275 OFFCURVE",
"1559 270 CURVE SMOOTH",
"1418 208 OFFCURVE",
"1068 126 OFFCURVE",
"750 132 CURVE SMOOTH",
"480 137 OFFCURVE",
"256 212 OFFCURVE",
"279 443 CURVE SMOOTH",
"293 587 LINE SMOOTH",
"294 597 OFFCURVE",
"289 604 OFFCURVE",
"278 605 CURVE SMOOTH",
"215 611 LINE SMOOTH",
"205 612 OFFCURVE",
"197 605 OFFCURVE",
"195 595 CURVE SMOOTH",
"178 443 LINE SMOOTH",
"138 94 OFFCURVE",
"301 -43 OFFCURVE",
"666 -53 CURVE SMOOTH"
);
}
);
width = 1824;
},
{
anchors = (
{
name = bottom;
position = "{800, -232}";
},
{
name = ring;
position = "{327, 39}";
},
{
name = top;
position = "{818, 841}";
}
);
layerId = "00FED3EE-B3F5-49E6-B91A-35FC52169726";
paths = (
{
closed = 1;
nodes = (
"180 80 OFFCURVE",
"339 -38 OFFCURVE",
"693 -38 CURVE SMOOTH",
"801 -38 OFFCURVE",
"941 -25 OFFCURVE",
"1112 1 CURVE SMOOTH",
"1402 45 OFFCURVE",
"1634 134 OFFCURVE",
"1634 404 CURVE SMOOTH",
"1634 491 OFFCURVE",
"1570 761 OFFCURVE",
"1527 931 CURVE SMOOTH",
"1526 935 OFFCURVE",
"1519 940 OFFCURVE",
"1512 934 CURVE SMOOTH",
"1398 825 LINE",
"1510 340 LINE",
"1525 283 OFFCURVE",
"1528 271 OFFCURVE",
"1512 263 CURVE SMOOTH",
"1382 198 OFFCURVE",
"1063 123 OFFCURVE",
"767 123 CURVE SMOOTH",
"450 123 OFFCURVE",
"282 220 OFFCURVE",
"282 404 CURVE",
"282 421 OFFCURVE",
"274 437 OFFCURVE",
"297 573 CURVE SMOOTH",
"298 579 OFFCURVE",
"293 584 OFFCURVE",
"282 585 CURVE SMOOTH",
"217 590 LINE SMOOTH",
"208 591 OFFCURVE",
"203 585 OFFCURVE",
"202 579 CURVE SMOOTH",
"176 422 OFFCURVE",
"180 383 OFFCURVE",
"180 341 CURVE SMOOTH"
);
}
);
width = 1774;
},
{
anchors = (
{
name = bottom;
position = "{832, -237}";
},
{
name = ring;
position = "{299, -136}";
},
{
name = top;
position = "{830, 856}";
}
);
layerId = "E3174D42-D779-465D-8194-70AED922C337";
paths = (
{
closed = 1;
nodes = (
"366 -38 OFFCURVE",
"695 -38 CURVE SMOOTH",
"815 -38 OFFCURVE",
"963 -22 OFFCURVE",
"1115 1 CURVE SMOOTH",
"1405 45 OFFCURVE",
"1645 137 OFFCURVE",
"1645 419 CURVE SMOOTH",
"1645 508 OFFCURVE",
"1580 781 OFFCURVE",
"1538 950 CURVE SMOOTH",
"1535 962 OFFCURVE",
"1527 968 OFFCURVE",
"1518 968 CURVE SMOOTH",
"1512 968 OFFCURVE",
"1505 965 OFFCURVE",
"1500 959 CURVE SMOOTH",
"1400 859 LINE SMOOTH",
"1394 853 OFFCURVE",
"1391 846 OFFCURVE",
"1391 838 CURVE",
"1515 301 LINE",
"1517 295 OFFCURVE",
"1516 294 OFFCURVE",
"1510 291 CURVE SMOOTH",
"1383 228 OFFCURVE",
"1065 153 OFFCURVE",
"769 153 CURVE SMOOTH",
"516 153 OFFCURVE",
"293 216 OFFCURVE",
"293 419 CURVE SMOOTH",
"293 437 OFFCURVE",
"292 451 OFFCURVE",
"308 586 CURVE SMOOTH",
"310 601 OFFCURVE",
"300 612 OFFCURVE",
"285 613 CURVE SMOOTH",
"225 619 LINE SMOOTH",
"210 620 OFFCURVE",
"197 611 OFFCURVE",
"195 596 CURVE SMOOTH",
"174 438 OFFCURVE",
"173 398 OFFCURVE",
"173 356 CURVE SMOOTH",
"173 63 OFFCURVE"
);
}
);
width = 1780;
},
{
anchors = (
{
name = bottom;
position = "{909, -254}";
},
{
name = ring;
position = "{355, -158}";
},
{
name = top;
position = "{857, 876}";
}
);
layerId = "AB6A8399-B57F-40CA-845C-76C4C0121470";
paths = (
{
closed = 1;
nodes = (
"180 96 OFFCURVE",
"352 -34 OFFCURVE",
"722 -34 CURVE SMOOTH",
"831 -34 OFFCURVE",
"973 -21 OFFCURVE",
"1145 5 CURVE SMOOTH",
"1438 49 OFFCURVE",
"1692 147 OFFCURVE",
"1692 439 CURVE SMOOTH",
"1692 529 OFFCURVE",
"1627 804 OFFCURVE",
"1584 974 CURVE",
"1398 857 LINE",
"1522 322 LINE",
"1392 261 OFFCURVE",
"1084 189 OFFCURVE",
"796 189 CURVE SMOOTH",
"546 189 OFFCURVE",
"340 247 OFFCURVE",
"340 439 CURVE SMOOTH",
"340 457 OFFCURVE",
"339 471 OFFCURVE",
"355 604 CURVE",
"202 618 LINE",
"181 459 OFFCURVE",
"180 418 OFFCURVE",
"180 376 CURVE SMOOTH"
);
}
);
width = 1832;
},
{
anchors = (
{
name = bottom;
position = "{947, -244}";
},
{
name = ring;
position = "{463, -198}";
},
{
name = top;
position = "{875, 876}";
}
);
layerId = "EAE1A523-EADE-4FB1-A034-E66E80F3AE4F";
paths = (
{
closed = 1;
nodes = (
"173 106 OFFCURVE",
"357 -34 OFFCURVE",
"740 -34 CURVE SMOOTH",
"851 -34 OFFCURVE",
"995 -21 OFFCURVE",
"1167 5 CURVE SMOOTH",
"1555 64 OFFCURVE",
"1735 206 OFFCURVE",
"1735 464 CURVE SMOOTH",
"1735 563 OFFCURVE",
"1660 874 OFFCURVE",
"1618 1038 CURVE",
"1388 894 LINE",
"1511 361 LINE",
"1374 303 OFFCURVE",
"1086 239 OFFCURVE",
"814 239 CURVE SMOOTH",
"526 239 OFFCURVE",
"383 315 OFFCURVE",
"383 464 CURVE SMOOTH",
"383 484 OFFCURVE",
"382 497 OFFCURVE",
"401 652 CURVE",
"198 670 LINE",
"174 490 OFFCURVE",
"173 445 OFFCURVE",
"173 401 CURVE SMOOTH"
);
}
);
width = 1870;
},
{
anchors = (
{
name = bottom;
position = "{759, -237}";
},
{
name = ring;
position = "{258, -136}";
},
{
name = top;
position = "{1064, 856}";
}
);
layerId = "020FDE62-5533-4E0C-98E7-097025284E4F";
paths = (
{
closed = 1;
nodes = (
"356 -38 OFFCURVE",
"685 -38 CURVE SMOOTH",
"805 -38 OFFCURVE",
"958 -22 OFFCURVE",
"1117 1 CURVE SMOOTH",
"1422 45 OFFCURVE",
"1691 137 OFFCURVE",
"1780 419 CURVE SMOOTH",
"1809 508 OFFCURVE",
"1830 781 OFFCURVE",
"1842 950 CURVE SMOOTH",
"1843 962 OFFCURVE",
"1837 968 OFFCURVE",
"1828 968 CURVE SMOOTH",
"1822 968 OFFCURVE",
"1814 965 OFFCURVE",
"1807 959 CURVE SMOOTH",
"1675 859 LINE SMOOTH",
"1667 853 OFFCURVE",
"1662 846 OFFCURVE",
"1659 838 CURVE",
"1613 301 LINE",
"1613 295 OFFCURVE",
"1612 294 OFFCURVE",
"1605 291 CURVE SMOOTH",
"1458 228 OFFCURVE",
"1116 153 OFFCURVE",
"820 153 CURVE SMOOTH",
"567 153 OFFCURVE",
"364 216 OFFCURVE",
"428 419 CURVE SMOOTH",
"434 437 OFFCURVE",
"438 451 OFFCURVE",
"497 586 CURVE SMOOTH",
"503 601 OFFCURVE",
"496 612 OFFCURVE",
"482 613 CURVE SMOOTH",
"424 619 LINE SMOOTH",
"409 620 OFFCURVE",
"393 611 OFFCURVE",
"387 596 CURVE SMOOTH",
"315 438 OFFCURVE",
"302 398 OFFCURVE",
"289 356 CURVE SMOOTH",
"196 63 OFFCURVE"
);
}
);
width = 1779;
},
{
anchors = (
{
name = bottom;
position = "{725, -232}";
},
{
name = ring;
position = "{350, 49}";
},
{
name = top;
position = "{1091, 841}";
}
);
layerId = "CC24164E-6342-4A92-AABB-B05B5693BF45";
paths = (
{
closed = 1;
nodes = (
"206 80 OFFCURVE",
"327 -38 OFFCURVE",
"681 -38 CURVE SMOOTH",
"789 -38 OFFCURVE",
"933 -25 OFFCURVE",
"1112 1 CURVE SMOOTH",
"1417 45 OFFCURVE",
"1678 134 OFFCURVE",
"1765 404 CURVE SMOOTH",
"1794 491 OFFCURVE",
"1817 761 OFFCURVE",
"1829 931 CURVE SMOOTH",
"1830 935 OFFCURVE",
"1824 940 OFFCURVE",
"1815 934 CURVE SMOOTH",
"1666 825 LINE",
"1620 340 LINE",
"1617 283 OFFCURVE",
"1616 271 OFFCURVE",
"1597 263 CURVE SMOOTH",
"1446 198 OFFCURVE",
"1103 123 OFFCURVE",
"807 123 CURVE SMOOTH",
"490 123 OFFCURVE",
"353 220 OFFCURVE",
"413 404 CURVE",
"419 421 OFFCURVE",
"416 437 OFFCURVE",
"483 573 CURVE SMOOTH",
"486 579 OFFCURVE",
"483 584 OFFCURVE",
"472 585 CURVE SMOOTH",
"409 590 LINE SMOOTH",
"400 591 OFFCURVE",
"393 585 OFFCURVE",
"390 579 CURVE SMOOTH",
"313 422 OFFCURVE",
"304 383 OFFCURVE",
"291 341 CURVE SMOOTH"
);
}
);
width = 1774;
},
{
anchors = (
{
name = bottom;
position = "{796, -237}";
},
{
name = ring;
position = "{279, -136}";
},
{
name = top;
position = "{967, 856}";
}
);
associatedMasterId = "00FED3EE-B3F5-49E6-B91A-35FC52169726";
layerId = "A59E3E2D-B48C-4CDD-836A-A1E73DB51526";
paths = (
{
closed = 1;
nodes = (
"361 -38 OFFCURVE",
"690 -38 CURVE SMOOTH",
"810 -38 OFFCURVE",
"961 -22 OFFCURVE",
"1116 1 CURVE SMOOTH",
"1414 45 OFFCURVE",
"1668 137 OFFCURVE",
"1713 419 CURVE SMOOTH",
"1727 508 OFFCURVE",
"1705 781 OFFCURVE",
"1690 950 CURVE SMOOTH",
"1689 962 OFFCURVE",
"1682 968 OFFCURVE",
"1673 968 CURVE SMOOTH",
"1667 968 OFFCURVE",
"1660 965 OFFCURVE",
"1654 959 CURVE SMOOTH",
"1538 859 LINE SMOOTH",
"1531 853 OFFCURVE",
"1527 846 OFFCURVE",
"1525 838 CURVE",
"1564 301 LINE",
"1565 295 OFFCURVE",
"1564 294 OFFCURVE",
"1558 291 CURVE SMOOTH",
"1421 228 OFFCURVE",
"1091 153 OFFCURVE",
"795 153 CURVE SMOOTH",
"542 153 OFFCURVE",
"329 216 OFFCURVE",
"361 419 CURVE SMOOTH",
"364 437 OFFCURVE",
"365 451 OFFCURVE",
"403 586 CURVE SMOOTH",
"407 601 OFFCURVE",
"398 612 OFFCURVE",
"384 613 CURVE SMOOTH",
"325 619 LINE SMOOTH",
"310 620 OFFCURVE",
"295 611 OFFCURVE",
"291 596 CURVE SMOOTH",
"245 438 OFFCURVE",
"238 398 OFFCURVE",
"231 356 CURVE SMOOTH",
"185 63 OFFCURVE"
);
}
);
width = 1780;
},
{
anchors = (
{
name = bottom;
position = "{868, -244}";
},
{
name = ring;
position = "{399, -198}";
},
{
name = top;
position = "{1160, 876}";
}
);
layerId = "A4A63F56-930B-4BA2-9E35-208CEDD14325";
paths = (
{
closed = 1;
nodes = (
"207 106 OFFCURVE",
"346 -34 OFFCURVE",
"729 -34 CURVE SMOOTH",
"840 -34 OFFCURVE",
"988 -21 OFFCURVE",
"1169 5 CURVE SMOOTH",
"1576 64 OFFCURVE",
"1802 206 OFFCURVE",
"1886 464 CURVE SMOOTH",
"1918 563 OFFCURVE",
"1944 874 OFFCURVE",
"1955 1038 CURVE",
"1678 894 LINE",
"1628 361 LINE",
"1472 303 OFFCURVE",
"1164 239 OFFCURVE",
"892 239 CURVE SMOOTH",
"604 239 OFFCURVE",
"485 315 OFFCURVE",
"534 464 CURVE SMOOTH",
"540 484 OFFCURVE",
"543 497 OFFCURVE",
"613 652 CURVE",
"416 670 LINE",
"333 490 OFFCURVE",
"317 445 OFFCURVE",
"303 401 CURVE SMOOTH"
);
}
);
width = 1870;
}
);
leftKerningGroup = all;
unicode = 066E;
userData = {
com.typemytype.robofont.guides = (
{
angle = 0;
isGlobal = 0;
x = 383;
y = 1092;
}
);
};
},
{
glyphname = "behDotless-ar.fina";
lastChange = "2017-08-20 16:15:48 +0000";
layers = (
{
anchors = (
{
name = bottom;
position = "{889, -227}";
},
{
name = top;
position = "{836, 861}";
}
);
layerId = "93A312F7-B931-4485-B08E-C367313EB5E7";
paths = (
{
closed = 1;
nodes = (
"969 -60 OFFCURVE",
"1502 16 OFFCURVE",
"1624 161 CURVE SMOOTH",
"1633 171 OFFCURVE",
"1641 170 OFFCURVE",
"1647 159 CURVE SMOOTH",
"1705 52 OFFCURVE",
"1828 0 OFFCURVE",
"1948 0 CURVE SMOOTH",
"2014 0 LINE",
"2062 60 OFFCURVE",
"2062 119 OFFCURVE",
"2014 179 CURVE",
"1948 179 LINE SMOOTH",
"1792 179 OFFCURVE",
"1689 239 OFFCURVE",
"1666 414 CURVE SMOOTH",
"1625 721 LINE SMOOTH",
"1624 734 OFFCURVE",
"1611 739 OFFCURVE",
"1602 729 CURVE SMOOTH",
"1510 634 LINE SMOOTH",
"1504 627 OFFCURVE",
"1502 620 OFFCURVE",
"1503 611 CURVE SMOOTH",
"1558 267 LINE SMOOTH",
"1559 256 OFFCURVE",
"1557 250 OFFCURVE",
"1547 246 CURVE SMOOTH",
"1387 189 OFFCURVE",
"1029 128 OFFCURVE",
"750 133 CURVE SMOOTH",
"480 139 OFFCURVE",
"256 213 OFFCURVE",
"279 444 CURVE SMOOTH",
"293 588 LINE SMOOTH",
"294 598 OFFCURVE",
"289 605 OFFCURVE",
"278 606 CURVE SMOOTH",
"215 612 LINE SMOOTH",
"205 613 OFFCURVE",
"197 606 OFFCURVE",
"195 596 CURVE SMOOTH",
"178 444 LINE SMOOTH",
"138 95 OFFCURVE",
"301 -45 OFFCURVE",
"666 -53 CURVE SMOOTH"
);
}
);
width = 1994;
},
{
anchors = (
{
name = bottom;
position = "{839, -232}";
},
{
name = ring;
position = "{299, 57}";
},
{
name = top;
position = "{828, 791}";
}
);
layerId = "00FED3EE-B3F5-49E6-B91A-35FC52169726";
paths = (
{
closed = 1;
nodes = (
"1885 161 LINE SMOOTH",
"1721 161 OFFCURVE",
"1636 233 OFFCURVE",
"1615 391 CURVE SMOOTH",
"1576 686 LINE SMOOTH",
"1575 693 OFFCURVE",
"1558 697 OFFCURVE",
"1553 691 CURVE",
"1453 604 LINE",
"1510 251 LINE SMOOTH",
"1512 239 OFFCURVE",
"1507 228 OFFCURVE",
"1500 225 CURVE",
"1351 174 OFFCURVE",
"1033 123 OFFCURVE",
"772 123 CURVE SMOOTH",
"450 123 OFFCURVE",
"282 219 OFFCURVE",
"282 404 CURVE SMOOTH",
"282 430 OFFCURVE",
"278 459 OFFCURVE",
"297 573 CURVE SMOOTH",
"298 579 OFFCURVE",
"293 582 OFFCURVE",
"282 583 CURVE SMOOTH",
"222 589 LINE SMOOTH",
"212 590 OFFCURVE",
"203 585 OFFCURVE",
"202 579 CURVE SMOOTH",
"175 420 OFFCURVE",
"180 381 OFFCURVE",
"180 340 CURVE SMOOTH",
"180 78 OFFCURVE",
"336 -38 OFFCURVE",
"687 -38 CURVE SMOOTH",
"986 -38 OFFCURVE",
"1472 22 OFFCURVE",
"1578 156 CURVE",
"1583 166 OFFCURVE",
"1590 161 OFFCURVE",
"1594 153 CURVE SMOOTH",
"1643 60 OFFCURVE",
"1756 0 OFFCURVE",
"1885 0 CURVE SMOOTH",
"1951 0 LINE",
"1973 28 OFFCURVE",
"1983 53 OFFCURVE",
"1983 81 CURVE SMOOTH",
"1983 109 OFFCURVE",
"1973 133 OFFCURVE",
"1951 161 CURVE"
);
}
);
width = 1931;
},
{
anchors = (
{
name = bottom;
position = "{871, -237}";
},
{
name = ring;
position = "{301, -142}";
},
{
name = top;
position = "{820, 836}";
}
);
layerId = "E3174D42-D779-465D-8194-70AED922C337";
paths = (
{
closed = 1;
nodes = (
"1887 191 LINE SMOOTH",
"1727 191 OFFCURVE",
"1646 259 OFFCURVE",
"1626 408 CURVE SMOOTH",
"1587 703 LINE SMOOTH",
"1584 724 OFFCURVE",
"1561 731 OFFCURVE",
"1548 716 CURVE",
"1460 625 LINE",
"1455 619 OFFCURVE",
"1451 612 OFFCURVE",
"1451 601 CURVE",
"1503 264 LINE SMOOTH",
"1504 257 OFFCURVE",
"1502 256 OFFCURVE",
"1499 254 CURVE",
"1353 204 OFFCURVE",
"1035 153 OFFCURVE",
"774 153 CURVE SMOOTH",
"524 153 OFFCURVE",
"293 212 OFFCURVE",
"293 419 CURVE SMOOTH",
"293 445 OFFCURVE",
"294 471 OFFCURVE",
"308 586 CURVE SMOOTH",
"310 601 OFFCURVE",
"300 612 OFFCURVE",
"285 613 CURVE SMOOTH",
"225 619 LINE SMOOTH",
"210 620 OFFCURVE",
"197 612 OFFCURVE",
"195 596 CURVE SMOOTH",
"175 436 OFFCURVE",
"173 397 OFFCURVE",
"173 355 CURVE SMOOTH",
"173 59 OFFCURVE",
"366 -38 OFFCURVE",
"689 -38 CURVE SMOOTH",
"986 -38 OFFCURVE",
"1469 21 OFFCURVE",
"1584 158 CURVE",
"1588 162 OFFCURVE",
"1588 162 OFFCURVE",
"1590 157 CURVE",
"1643 60 OFFCURVE",
"1757 0 OFFCURVE",
"1887 0 CURVE SMOOTH",
"1943 0 LINE",
"1970 32 OFFCURVE",
"1982 64 OFFCURVE",
"1982 96 CURVE SMOOTH",
"1982 128 OFFCURVE",
"1970 159 OFFCURVE",
"1943 191 CURVE"
);
}
);
width = 1933;
},
{
anchors = (
{
name = bottom;
position = "{908, -247}";
},
{
name = ring;
position = "{326, -161}";
},
{
name = top;
position = "{907, 796}";
}
);
layerId = "AB6A8399-B57F-40CA-845C-76C4C0121470";
paths = (
{
closed = 1;
nodes = (
"1914 223 LINE SMOOTH",
"1765 223 OFFCURVE",
"1692 284 OFFCURVE",
"1673 426 CURVE SMOOTH",
"1634 721 LINE",
"1438 616 LINE",
"1509 282 LINE",
"1360 234 OFFCURVE",
"1054 185 OFFCURVE",
"801 185 CURVE SMOOTH",
"497 185 OFFCURVE",
"340 270 OFFCURVE",
"340 435 CURVE SMOOTH",
"340 461 OFFCURVE",
"341 486 OFFCURVE",
"355 600 CURVE",
"202 614 LINE",
"182 453 OFFCURVE",
"180 413 OFFCURVE",
"180 371 CURVE SMOOTH",
"180 90 OFFCURVE",
"349 -38 OFFCURVE",
"716 -38 CURVE SMOOTH",
"1013 -38 OFFCURVE",
"1502 21 OFFCURVE",
"1624 161 CURVE",
"1692 33 OFFCURVE",
"1767 0 OFFCURVE",
"1914 0 CURVE SMOOTH",
"1999 0 LINE",
"2034 35 OFFCURVE",
"2049 72 OFFCURVE",
"2049 112 CURVE SMOOTH",
"2049 152 OFFCURVE",
"2034 188 OFFCURVE",
"1999 223 CURVE"
);
}
);
width = 1984;
},
{
anchors = (
{
name = bottom;
position = "{926, -237}";
},
{
name = ring;
position = "{374, -171}";
},
{
name = top;
position = "{925, 796}";
}
);
layerId = "EAE1A523-EADE-4FB1-A034-E66E80F3AE4F";
paths = (
{
closed = 1;
nodes = (
"1932 273 LINE SMOOTH",
"1795 273 OFFCURVE",
"1733 325 OFFCURVE",
"1716 454 CURVE SMOOTH",
"1672 785 LINE",
"1428 654 LINE",
"1498 324 LINE",
"1344 279 OFFCURVE",
"1058 235 OFFCURVE",
"819 235 CURVE SMOOTH",
"528 235 OFFCURVE",
"383 312 OFFCURVE",
"383 460 CURVE SMOOTH",
"383 487 OFFCURVE",
"384 512 OFFCURVE",
"401 648 CURVE",
"198 666 LINE",
"175 484 OFFCURVE",
"173 441 OFFCURVE",
"173 396 CURVE SMOOTH",
"173 100 OFFCURVE",
"353 -38 OFFCURVE",
"734 -38 CURVE SMOOTH",
"1016 -38 OFFCURVE",
"1477 16 OFFCURVE",
"1636 146 CURVE",
"1702 37 OFFCURVE",
"1781 0 OFFCURVE",
"1932 0 CURVE SMOOTH",
"2032 0 LINE",
"2075 39 OFFCURVE",
"2097 86 OFFCURVE",
"2097 137 CURVE SMOOTH",
"2097 188 OFFCURVE",
"2075 233 OFFCURVE",
"2032 273 CURVE"
);
}
);
width = 2002;
},
{
anchors = (
{
name = bottom;
position = "{798, -237}";
},
{
name = ring;
position = "{258, -142}";
},
{
name = top;
position = "{1088, 836}";
}
);
layerId = "020FDE62-5533-4E0C-98E7-097025284E4F";
paths = (
{
closed = 1;
nodes = (
"1950 191 LINE SMOOTH",
"1790 191 OFFCURVE",
"1730 259 OFFCURVE",
"1758 408 CURVE SMOOTH",
"1813 703 LINE SMOOTH",
"1816 724 OFFCURVE",
"1795 731 OFFCURVE",
"1777 716 CURVE",
"1661 625 LINE",
"1654 619 OFFCURVE",
"1647 612 OFFCURVE",
"1644 601 CURVE",
"1589 264 LINE SMOOTH",
"1588 257 OFFCURVE",
"1586 256 OFFCURVE",
"1582 254 CURVE",
"1419 204 OFFCURVE",
"1086 153 OFFCURVE",
"825 153 CURVE SMOOTH",
"575 153 OFFCURVE",
"362 212 OFFCURVE",
"428 419 CURVE SMOOTH",
"437 445 OFFCURVE",
"445 471 OFFCURVE",
"497 586 CURVE SMOOTH",
"503 601 OFFCURVE",
"496 612 OFFCURVE",
"481 613 CURVE SMOOTH",
"424 619 LINE SMOOTH",
"409 620 OFFCURVE",
"393 612 OFFCURVE",
"387 596 CURVE SMOOTH",
"316 436 OFFCURVE",
"301 397 OFFCURVE",
"288 355 CURVE SMOOTH",
"194 59 OFFCURVE",
"356 -38 OFFCURVE",
"679 -38 CURVE SMOOTH",
"976 -38 OFFCURVE",
"1478 21 OFFCURVE",
"1637 158 CURVE",
"1642 162 OFFCURVE",
"1642 162 OFFCURVE",
"1641 157 CURVE",
"1664 60 OFFCURVE",
"1759 0 OFFCURVE",
"1889 0 CURVE SMOOTH",
"1945 0 LINE",
"1982 32 OFFCURVE",
"2005 64 OFFCURVE",
"2014 96 CURVE SMOOTH",
"2024 128 OFFCURVE",
"2023 159 OFFCURVE",
"2006 191 CURVE"
);
}
);
width = 1934;
},
{
anchors = (
{
name = bottom;
position = "{764, -232}";
},
{
name = ring;
position = "{328, 67}";
},
{
name = top;
position = "{1085, 791}";
}
);
layerId = "CC24164E-6342-4A92-AABB-B05B5693BF45";
paths = (
{
closed = 1;
nodes = (
"1938 161 LINE SMOOTH",
"1774 161 OFFCURVE",
"1712 233 OFFCURVE",
"1742 391 CURVE SMOOTH",
"1799 686 LINE SMOOTH",
"1801 693 OFFCURVE",
"1785 697 OFFCURVE",
"1778 691 CURVE",
"1650 604 LINE",
"1592 251 LINE SMOOTH",
"1590 239 OFFCURVE",
"1582 228 OFFCURVE",
"1574 225 CURVE",
"1408 174 OFFCURVE",
"1073 123 OFFCURVE",
"812 123 CURVE SMOOTH",
"490 123 OFFCURVE",
"354 219 OFFCURVE",
"414 404 CURVE SMOOTH",
"422 430 OFFCURVE",
"428 459 OFFCURVE",
"484 573 CURVE SMOOTH",
"487 579 OFFCURVE",
"483 582 OFFCURVE",
"472 583 CURVE SMOOTH",
"414 589 LINE SMOOTH",
"404 590 OFFCURVE",
"394 585 OFFCURVE",
"391 579 CURVE SMOOTH",
"312 420 OFFCURVE",
"304 381 OFFCURVE",
"291 340 CURVE SMOOTH",
"206 78 OFFCURVE",
"324 -38 OFFCURVE",
"675 -38 CURVE SMOOTH",
"974 -38 OFFCURVE",
"1480 22 OFFCURVE",
"1629 156 CURVE",
"1637 166 OFFCURVE",
"1643 161 OFFCURVE",
"1644 153 CURVE SMOOTH",
"1663 60 OFFCURVE",
"1756 0 OFFCURVE",
"1885 0 CURVE SMOOTH",
"1951 0 LINE",
"1983 28 OFFCURVE",
"2001 53 OFFCURVE",
"2010 81 CURVE SMOOTH",
"2019 109 OFFCURVE",
"2017 133 OFFCURVE",
"2004 161 CURVE"
);
}
);
width = 1932;
},
{
anchors = (
{
name = bottom;
position = "{835, -237}";
},
{
name = ring;
position = "{280, -142}";
},
{
name = top;
position = "{954, 836}";
}
);
associatedMasterId = "00FED3EE-B3F5-49E6-B91A-35FC52169726";
layerId = "A59E3E2D-B48C-4CDD-836A-A1E73DB51526";
paths = (
{
closed = 1;
nodes = (
"1919 191 LINE SMOOTH",
"1759 191 OFFCURVE",
"1688 259 OFFCURVE",
"1692 408 CURVE SMOOTH",
"1700 703 LINE SMOOTH",
"1700 724 OFFCURVE",
"1678 731 OFFCURVE",
"1663 716 CURVE",
"1561 625 LINE",
"1555 619 OFFCURVE",
"1549 612 OFFCURVE",
"1548 601 CURVE",
"1546 264 LINE SMOOTH",
"1546 257 OFFCURVE",
"1544 256 OFFCURVE",
"1541 254 CURVE",
"1386 204 OFFCURVE",
"1061 153 OFFCURVE",
"800 153 CURVE SMOOTH",
"550 153 OFFCURVE",
"328 212 OFFCURVE",
"361 419 CURVE SMOOTH",
"365 445 OFFCURVE",
"370 471 OFFCURVE",
"403 586 CURVE SMOOTH",
"407 601 OFFCURVE",
"398 612 OFFCURVE",
"383 613 CURVE SMOOTH",
"325 619 LINE SMOOTH",
"310 620 OFFCURVE",
"295 612 OFFCURVE",
"291 596 CURVE SMOOTH",
"246 436 OFFCURVE",
"237 397 OFFCURVE",
"231 355 CURVE SMOOTH",
"184 59 OFFCURVE",
"361 -38 OFFCURVE",
"684 -38 CURVE SMOOTH",
"981 -38 OFFCURVE",
"1474 21 OFFCURVE",
"1611 158 CURVE",
"1615 162 OFFCURVE",
"1615 162 OFFCURVE",
"1616 157 CURVE",
"1654 60 OFFCURVE",
"1758 0 OFFCURVE",
"1888 0 CURVE SMOOTH",
"1944 0 LINE",
"1976 32 OFFCURVE",
"1994 64 OFFCURVE",
"1998 96 CURVE SMOOTH",
"2003 128 OFFCURVE",
"1997 159 OFFCURVE",
"1975 191 CURVE"
);
}
);
width = 1934;
},
{
anchors = (
{
name = bottom;
position = "{850, -237}";
},
{
name = ring;
position = "{319, -171}";
},
{
name = top;
position = "{1184, 796}";
}
);
layerId = "A4A63F56-930B-4BA2-9E35-208CEDD14325";
paths = (
{
closed = 1;
nodes = (
"2021 273 LINE SMOOTH",
"1884 273 OFFCURVE",
"1839 325 OFFCURVE",
"1864 454 CURVE SMOOTH",
"1928 785 LINE",
"1641 654 LINE",
"1604 324 LINE",
"1435 279 OFFCURVE",
"1135 235 OFFCURVE",
"896 235 CURVE SMOOTH",
"605 235 OFFCURVE",
"485 312 OFFCURVE",
"533 460 CURVE SMOOTH",
"542 487 OFFCURVE",
"551 512 OFFCURVE",
"612 648 CURVE",
"415 666 LINE",
"333 484 OFFCURVE",
"317 441 OFFCURVE",
"302 396 CURVE SMOOTH",
"206 100 OFFCURVE",
"341 -38 OFFCURVE",
"722 -38 CURVE SMOOTH",
"1004 -38 OFFCURVE",
"1483 16 OFFCURVE",
"1684 146 CURVE",
"1715 37 OFFCURVE",
"1782 0 OFFCURVE",
"1933 0 CURVE SMOOTH",
"2033 0 LINE",
"2088 39 OFFCURVE",
"2126 86 OFFCURVE",
"2142 137 CURVE SMOOTH",
"2159 188 OFFCURVE",
"2151 233 OFFCURVE",
"2121 273 CURVE"
);
}
);
width = 2002;
}
);
},
{
glyphname = "behDotless-ar.medi";
lastChange = "2017-08-20 16:16:00 +0000";
layers = (
{
anchors = (
{
name = bottom;
position = "{370, -178}";
},
{
name = top;
position = "{529, 790}";
}
);
layerId = "93A312F7-B931-4485-B08E-C367313EB5E7";
paths = (
{
closed = 1;
nodes = (
"44 0 LINE SMOOTH",
"168 0 OFFCURVE",
"324 15 OFFCURVE",
"440 120 CURVE SMOOTH",
"448 126 OFFCURVE",
"457 126 OFFCURVE",
"465 118 CURVE SMOOTH",
"550 29 OFFCURVE",
"710 0 OFFCURVE",
"883 0 CURVE SMOOTH",
"933 0 LINE",
"981 60 OFFCURVE",
"981 119 OFFCURVE",
"933 179 CURVE",
"867 179 LINE SMOOTH",
"788 179 OFFCURVE",
"646 197 OFFCURVE",
"567 224 CURVE SMOOTH",
"558 228 OFFCURVE",
"554 235 OFFCURVE",
"555 245 CURVE SMOOTH",
"580 591 LINE SMOOTH",
"581 601 OFFCURVE",
"576 610 OFFCURVE",
"566 611 CURVE SMOOTH",
"504 614 LINE SMOOTH",
"493 615 OFFCURVE",
"484 610 OFFCURVE",
"483 599 CURVE SMOOTH",
"454 357 LINE SMOOTH",
"434 189 OFFCURVE",
"182 179 OFFCURVE",
"51 179 CURVE SMOOTH",
"-20 179 LINE SMOOTH",
"-138 179 OFFCURVE",
"-138 0 OFFCURVE",
"-20 0 CURVE SMOOTH"
);
}
);
width = 913;
},
{
anchors = (
{
name = bottom;
position = "{365, -195}";
},
{
name = ring;
position = "{357, 71}";
},
{
name = top;
position = "{508, 781}";
}
);
layerId = "00FED3EE-B3F5-49E6-B91A-35FC52169726";
paths = (
{
closed = 1;
nodes = (
"832 161 LINE SMOOTH",
"757 161 OFFCURVE",
"621 178 OFFCURVE",
"544 204 CURVE",
"524 216 OFFCURVE",
"514 218 OFFCURVE",
"557 562 CURVE SMOOTH",
"558 570 OFFCURVE",
"554 575 OFFCURVE",
"543 576 CURVE",
"484 579 LINE",
"473 580 OFFCURVE",
"464 575 OFFCURVE",
"463 569 CURVE",
"435 336 LINE SMOOTH",
"419 204 OFFCURVE",
"298 161 OFFCURVE",
"49 161 CURVE SMOOTH",
"-20 161 LINE SMOOTH",
"-71 161 OFFCURVE",
"-105 129 OFFCURVE",
"-105 81 CURVE SMOOTH",
"-105 33 OFFCURVE",
"-71 0 OFFCURVE",
"-20 0 CURVE SMOOTH",
"42 0 LINE SMOOTH",
"161 0 OFFCURVE",
"315 14 OFFCURVE",
"425 116 CURVE",
"432 125 OFFCURVE",
"438 120 OFFCURVE",
"446 112 CURVE SMOOTH",
"517 41 OFFCURVE",
"656 0 OFFCURVE",
"848 0 CURVE SMOOTH",
"898 0 LINE",
"920 28 OFFCURVE",
"930 53 OFFCURVE",
"930 81 CURVE SMOOTH",
"930 109 OFFCURVE",
"920 133 OFFCURVE",
"898 161 CURVE"
);
}
);
width = 878;
},
{
anchors = (
{
name = bottom;
position = "{355, -200}";
},
{
name = ring;
position = "{345, -115}";
},
{
name = top;
position = "{508, 816}";
}
);
layerId = "E3174D42-D779-465D-8194-70AED922C337";
paths = (
{
closed = 1;
nodes = (
"832 191 LINE SMOOTH",
"757 191 OFFCURVE",
"622 208 OFFCURVE",
"547 233 CURVE",
"543 235 OFFCURVE",
"542 236 OFFCURVE",
"542 240 CURVE SMOOTH",
"542 244 LINE",
"566 576 LINE SMOOTH",
"567 591 OFFCURVE",
"559 605 OFFCURVE",
"544 606 CURVE SMOOTH",
"484 609 LINE SMOOTH",
"468 610 OFFCURVE",
"456 601 OFFCURVE",
"454 586 CURVE SMOOTH",
"426 353 LINE SMOOTH",
"408 201 OFFCURVE",
"175 191 OFFCURVE",
"49 191 CURVE SMOOTH",
"-10 191 LINE SMOOTH",
"-74 191 OFFCURVE",
"-104 143 OFFCURVE",
"-104 96 CURVE SMOOTH",
"-104 49 OFFCURVE",
"-74 0 OFFCURVE",
"-10 0 CURVE SMOOTH",
"42 0 LINE SMOOTH",
"161 0 OFFCURVE",
"315 14 OFFCURVE",
"429 118 CURVE",
"432 120 OFFCURVE",
"436 120 OFFCURVE",
"440 116 CURVE SMOOTH",
"523 29 OFFCURVE",
"681 0 OFFCURVE",
"848 0 CURVE SMOOTH",
"898 0 LINE",
"925 32 OFFCURVE",
"937 64 OFFCURVE",
"937 96 CURVE SMOOTH",
"937 128 OFFCURVE",
"925 159 OFFCURVE",
"898 191 CURVE"
);
}
);
width = 888;
},
{
anchors = (
{
name = bottom;
position = "{295, -210}";
},
{
name = ring;
position = "{346, -136}";
},
{
name = top;
position = "{518, 824}";
}
);
layerId = "AB6A8399-B57F-40CA-845C-76C4C0121470";
paths = (
{
closed = 1;
nodes = (
"832 223 LINE SMOOTH",
"762 223 OFFCURVE",
"638 238 OFFCURVE",
"562 261 CURVE",
"586 591 LINE",
"434 604 LINE",
"406 371 LINE SMOOTH",
"394 268 OFFCURVE",
"277 223 OFFCURVE",
"49 223 CURVE SMOOTH",
"-15 223 LINE SMOOTH",
"-75 223 OFFCURVE",
"-120 172 OFFCURVE",
"-120 112 CURVE SMOOTH",
"-120 52 OFFCURVE",
"-75 0 OFFCURVE",
"-15 0 CURVE SMOOTH",
"42 0 LINE SMOOTH",
"159 0 OFFCURVE",
"316 14 OFFCURVE",
"433 114 CURVE",
"510 40 OFFCURVE",
"654 0 OFFCURVE",
"848 0 CURVE SMOOTH",
"908 0 LINE",
"943 35 OFFCURVE",
"958 72 OFFCURVE",
"958 112 CURVE SMOOTH",
"958 152 OFFCURVE",
"943 188 OFFCURVE",
"908 223 CURVE"
);
}
);
width = 893;
},
{
anchors = (
{
name = bottom;
position = "{295, -200}";
},
{
name = ring;
position = "{236, -166}";
},
{
name = top;
position = "{518, 864}";
}
);
layerId = "EAE1A523-EADE-4FB1-A034-E66E80F3AE4F";
paths = (
{
closed = 1;
nodes = (
"832 273 LINE SMOOTH",
"763 273 OFFCURVE",
"657 287 OFFCURVE",
"588 305 CURVE",
"613 639 LINE",
"412 656 LINE",
"381 399 LINE SMOOTH",
"371 314 OFFCURVE",
"268 273 OFFCURVE",
"49 273 CURVE SMOOTH",
"-30 273 LINE SMOOTH",
"-102 273 OFFCURVE",
"-160 212 OFFCURVE",
"-160 137 CURVE SMOOTH",
"-160 61 OFFCURVE",
"-102 0 OFFCURVE",
"-30 0 CURVE SMOOTH",
"42 0 LINE SMOOTH",
"212 0 OFFCURVE",
"338 34 OFFCURVE",
"432 106 CURVE",
"517 37 OFFCURVE",
"662 0 OFFCURVE",
"848 0 CURVE SMOOTH",
"923 0 LINE",
"966 39 OFFCURVE",
"988 86 OFFCURVE",
"988 137 CURVE SMOOTH",
"988 188 OFFCURVE",
"966 233 OFFCURVE",
"923 273 CURVE"
);
}
);
width = 893;
},
{
anchors = (
{
name = bottom;
position = "{283, -160}";
},
{
name = ring;
position = "{349, -105}";
},
{
name = top;
position = "{759, 816}";
}
);
layerId = "020FDE62-5533-4E0C-98E7-097025284E4F";
paths = (
{
closed = 1;
nodes = (
"893 191 LINE SMOOTH",
"818 191 OFFCURVE",
"688 208 OFFCURVE",
"621 233 CURVE",
"618 235 OFFCURVE",
"617 236 OFFCURVE",
"618 240 CURVE SMOOTH",
"620 244 LINE",
"750 576 LINE SMOOTH",
"755 591 OFFCURVE",
"752 605 OFFCURVE",
"737 606 CURVE SMOOTH",
"678 609 LINE SMOOTH",
"662 610 OFFCURVE",
"647 601 OFFCURVE",
"641 586 CURVE SMOOTH",
"538 353 LINE SMOOTH",
"472 201 OFFCURVE",
"236 191 OFFCURVE",
"110 191 CURVE SMOOTH",
"51 191 LINE SMOOTH",
"-13 191 OFFCURVE",
"-58 143 OFFCURVE",
"-73 96 CURVE SMOOTH",
"-88 49 OFFCURVE",
"-74 0 OFFCURVE",
"-10 0 CURVE SMOOTH",
"42 0 LINE SMOOTH",
"161 0 OFFCURVE",
"319 14 OFFCURVE",
"466 118 CURVE",
"471 120 OFFCURVE",
"475 120 OFFCURVE",
"477 116 CURVE SMOOTH",
"532 29 OFFCURVE",
"681 0 OFFCURVE",
"848 0 CURVE SMOOTH",
"898 0 LINE",
"935 32 OFFCURVE",
"958 64 OFFCURVE",
"968 96 CURVE SMOOTH",
"977 128 OFFCURVE",
"976 159 OFFCURVE",
"959 191 CURVE"
);
}
);
width = 888;
},
{
anchors = (
{
name = bottom;
position = "{302, -195}";
},
{
name = ring;
position = "{380, 71}";
},
{
name = top;
position = "{762, 781}";
}
);
layerId = "CC24164E-6342-4A92-AABB-B05B5693BF45";
paths = (
{
closed = 1;
nodes = (
"884 161 LINE SMOOTH",
"809 161 OFFCURVE",
"679 178 OFFCURVE",
"610 204 CURVE",
"594 216 OFFCURVE",
"585 218 OFFCURVE",
"740 562 CURVE SMOOTH",
"743 570 OFFCURVE",
"741 575 OFFCURVE",
"730 576 CURVE",
"672 579 LINE",
"661 580 OFFCURVE",
"651 575 OFFCURVE",
"648 569 CURVE",
"544 336 LINE SMOOTH",
"485 204 OFFCURVE",
"350 161 OFFCURVE",
"101 161 CURVE SMOOTH",
"32 161 LINE SMOOTH",
"-19 161 OFFCURVE",
"-63 129 OFFCURVE",
"-79 81 CURVE SMOOTH",
"-94 33 OFFCURVE",
"-71 0 OFFCURVE",
"-20 0 CURVE SMOOTH",
"42 0 LINE SMOOTH",
"161 0 OFFCURVE",
"319 14 OFFCURVE",
"463 116 CURVE",
"473 125 OFFCURVE",
"477 120 OFFCURVE",
"482 112 CURVE SMOOTH",
"530 41 OFFCURVE",
"656 0 OFFCURVE",
"848 0 CURVE SMOOTH",
"898 0 LINE",
"929 28 OFFCURVE",
"947 53 OFFCURVE",
"956 81 CURVE SMOOTH",
"965 109 OFFCURVE",
"963 133 OFFCURVE",
"950 161 CURVE"
);
}
);
width = 878;
},
{
anchors = (
{
name = bottom;
position = "{319, -180}";
},
{
name = ring;
position = "{347, -110}";
},
{
name = top;
position = "{634, 816}";
}
);
associatedMasterId = "00FED3EE-B3F5-49E6-B91A-35FC52169726";
layerId = "A59E3E2D-B48C-4CDD-836A-A1E73DB51526";
paths = (
{
closed = 1;
nodes = (
"863 191 LINE SMOOTH",
"788 191 OFFCURVE",
"655 208 OFFCURVE",
"584 233 CURVE",
"581 235 OFFCURVE",
"580 236 OFFCURVE",
"580 240 CURVE SMOOTH",
"581 244 LINE",
"658 576 LINE SMOOTH",
"661 591 OFFCURVE",
"656 605 OFFCURVE",
"641 606 CURVE SMOOTH",
"581 609 LINE SMOOTH",
"565 610 OFFCURVE",
"552 601 OFFCURVE",
"548 586 CURVE SMOOTH",
"482 353 LINE SMOOTH",
"440 201 OFFCURVE",
"206 191 OFFCURVE",
"80 191 CURVE SMOOTH",
"21 191 LINE SMOOTH",
"-44 191 OFFCURVE",
"-81 143 OFFCURVE",
"-89 96 CURVE SMOOTH",
"-96 49 OFFCURVE",
"-74 0 OFFCURVE",
"-10 0 CURVE SMOOTH",
"42 0 LINE SMOOTH",
"161 0 OFFCURVE",
"317 14 OFFCURVE",
"448 118 CURVE",
"452 120 OFFCURVE",
"456 120 OFFCURVE",
"459 116 CURVE SMOOTH",
"528 29 OFFCURVE",
"681 0 OFFCURVE",
"848 0 CURVE SMOOTH",
"898 0 LINE",
"930 32 OFFCURVE",
"948 64 OFFCURVE",
"953 96 CURVE SMOOTH",
"957 128 OFFCURVE",
"951 159 OFFCURVE",
"929 191 CURVE"
);
}
);
width = 888;
},
{
anchors = (
{
name = bottom;
position = "{230, -200}";
},
{
name = ring;
position = "{182, -166}";
},
{
name = top;
position = "{799, 864}";
}
);
layerId = "A4A63F56-930B-4BA2-9E35-208CEDD14325";
paths = (
{
closed = 1;
nodes = (
"921 273 LINE SMOOTH",
"852 273 OFFCURVE",
"751 287 OFFCURVE",
"688 305 CURVE",
"821 639 LINE",
"626 656 LINE",
"511 399 LINE SMOOTH",
"473 314 OFFCURVE",
"357 273 OFFCURVE",
"138 273 CURVE SMOOTH",
"59 273 LINE SMOOTH",
"-13 273 OFFCURVE",
"-91 212 OFFCURVE",
"-115 137 CURVE SMOOTH",
"-140 61 OFFCURVE",
"-102 0 OFFCURVE",
"-30 0 CURVE SMOOTH",
"42 0 LINE SMOOTH",
"212 0 OFFCURVE",
"349 34 OFFCURVE",
"467 106 CURVE",
"529 37 OFFCURVE",
"662 0 OFFCURVE",
"848 0 CURVE SMOOTH",
"923 0 LINE",
"979 39 OFFCURVE",
"1016 86 OFFCURVE",
"1033 137 CURVE SMOOTH",
"1050 188 OFFCURVE",
"1042 233 OFFCURVE",
"1012 273 CURVE"
);
}
);
width = 893;
}
);
},
{
glyphname = "behDotless-ar.init";
lastChange = "2017-08-20 16:16:13 +0000";
layers = (
{
anchors = (
{
name = bottom;
position = "{292, -179}";
},
{
name = top;
position = "{415, 1128}";
}
);
layerId = "93A312F7-B931-4485-B08E-C367313EB5E7";
paths = (
{
closed = 1;
nodes = (
"393 0 OFFCURVE",
"608 105 OFFCURVE",
"608 389 CURVE SMOOTH",
"608 481 OFFCURVE",
"538 765 OFFCURVE",
"497 941 CURVE SMOOTH",
"493 953 OFFCURVE",
"483 954 OFFCURVE",
"474 945 CURVE SMOOTH",
"370 841 LINE SMOOTH",
"365 834 OFFCURVE",
"362 828 OFFCURVE",
"365 818 CURVE SMOOTH",
"492 281 LINE SMOOTH",
"494 270 OFFCURVE",
"492 263 OFFCURVE",
"482 259 CURVE SMOOTH",
"363 206 OFFCURVE",
"240 179 OFFCURVE",
"0 179 CURVE SMOOTH",
"-20 179 LINE SMOOTH",
"-138 179 OFFCURVE",
"-138 0 OFFCURVE",
"-20 0 CURVE SMOOTH",
"0 0 LINE SMOOTH"
);
}
);
width = 746;
},
{
anchors = (
{
name = bottom;
position = "{280, -196}";
},
{
name = ring;
position = "{531, 141}";
},
{
name = top;
position = "{428, 1077}";
}
);
layerId = "00FED3EE-B3F5-49E6-B91A-35FC52169726";
paths = (
{
closed = 1;
nodes = (
"477 903 OFFCURVE",
"461 905 OFFCURVE",
"454 898 CURVE SMOOTH",
"349 791 LINE",
"472 265 LINE",
"475 254 OFFCURVE",
"472 242 OFFCURVE",
"462 238 CURVE",
"347 187 OFFCURVE",
"229 161 OFFCURVE",
"20 161 CURVE SMOOTH",
"-20 161 LINE SMOOTH",
"-71 161 OFFCURVE",
"-105 129 OFFCURVE",
"-105 81 CURVE SMOOTH",
"-105 33 OFFCURVE",
"-71 0 OFFCURVE",
"-20 0 CURVE SMOOTH",
"20 0 LINE SMOOTH",
"401 0 OFFCURVE",
"584 115 OFFCURVE",
"584 368 CURVE SMOOTH",
"584 454 OFFCURVE",
"507 724 OFFCURVE",
"478 897 CURVE SMOOTH"
);
}
);
width = 724;
},
{
anchors = (
{
name = bottom;
position = "{280, -201}";
},
{
name = ring;
position = "{541, -20}";
},
{
name = top;
position = "{408, 1112}";
}
);
layerId = "E3174D42-D779-465D-8194-70AED922C337";
paths = (
{
closed = 1;
nodes = (
"482 935 OFFCURVE",
"462 937 OFFCURVE",
"448 924 CURVE",
"348 824 LINE",
"342 817 OFFCURVE",
"340 810 OFFCURVE",
"340 804 CURVE",
"463 277 LINE",
"465 270 OFFCURVE",
"464 269 OFFCURVE",
"459 267 CURVE",
"346 217 OFFCURVE",
"229 191 OFFCURVE",
"10 191 CURVE SMOOTH",
"-10 191 LINE SMOOTH",
"-74 191 OFFCURVE",
"-104 143 OFFCURVE",
"-104 96 CURVE SMOOTH",
"-104 49 OFFCURVE",
"-74 0 OFFCURVE",
"-10 0 CURVE SMOOTH",
"10 0 LINE SMOOTH",
"407 0 OFFCURVE",
"593 120 OFFCURVE",
"593 383 CURVE SMOOTH",
"593 472 OFFCURVE",
"526 746 OFFCURVE",
"487 915 CURVE SMOOTH"
);
}
);
width = 728;
},
{
anchors = (
{
name = bottom;
position = "{280, -221}";
},
{
name = ring;
position = "{531, -60}";
},
{
name = top;
position = "{428, 1132}";
}
);
layerId = "AB6A8399-B57F-40CA-845C-76C4C0121470";
paths = (
{
closed = 1;
nodes = (
"310 818 LINE",
"443 294 LINE",
"333 247 OFFCURVE",
"235 223 OFFCURVE",
"15 223 CURVE SMOOTH",
"-15 223 LINE SMOOTH",
"-75 223 OFFCURVE",
"-120 172 OFFCURVE",
"-120 112 CURVE SMOOTH",
"-120 52 OFFCURVE",
"-75 0 OFFCURVE",
"-15 0 CURVE SMOOTH",
"15 0 LINE SMOOTH",
"432 0 OFFCURVE",
"613 127 OFFCURVE",
"613 399 CURVE SMOOTH",
"613 489 OFFCURVE",
"546 765 OFFCURVE",
"506 935 CURVE"
);
}
);
width = 753;
},
{
anchors = (
{
name = bottom;
position = "{295, -201}";
},
{
name = ring;
position = "{396, -140}";
},
{
name = top;
position = "{453, 1182}";
}
);
layerId = "EAE1A523-EADE-4FB1-A034-E66E80F3AE4F";
paths = (
{
closed = 1;
nodes = (
"296 855 LINE",
"428 334 LINE",
"328 293 OFFCURVE",
"234 273 OFFCURVE",
"30 273 CURVE SMOOTH",
"-30 273 LINE SMOOTH",
"-102 273 OFFCURVE",
"-160 212 OFFCURVE",
"-160 137 CURVE SMOOTH",
"-160 61 OFFCURVE",
"-102 0 OFFCURVE",
"-30 0 CURVE SMOOTH",
"30 0 LINE SMOOTH",
"455 0 OFFCURVE",
"653 133 OFFCURVE",
"653 424 CURVE SMOOTH",
"653 523 OFFCURVE",
"576 835 OFFCURVE",
"538 999 CURVE"
);
}
);
width = 788;
},
{
anchors = (
{
name = bottom;
position = "{217, -201}";
},
{
name = ring;
position = "{536, -20}";
},
{
name = top;
position = "{692, 1112}";
}
);
layerId = "020FDE62-5533-4E0C-98E7-097025284E4F";
paths = (
{
closed = 1;
nodes = (
"780 935 OFFCURVE",
"760 937 OFFCURVE",
"742 924 CURVE",
"611 824 LINE",
"603 817 OFFCURVE",
"598 810 OFFCURVE",
"597 804 CURVE",
"552 277 LINE",
"551 270 OFFCURVE",
"550 269 OFFCURVE",
"545 267 CURVE",
"416 217 OFFCURVE",
"291 191 OFFCURVE",
"72 191 CURVE SMOOTH",
"52 191 LINE SMOOTH",
"-12 191 OFFCURVE",
"-58 143 OFFCURVE",
"-73 96 CURVE SMOOTH",
"-88 49 OFFCURVE",
"-73 0 OFFCURVE",
"-9 0 CURVE SMOOTH",
"11 0 LINE SMOOTH",
"408 0 OFFCURVE",
"632 120 OFFCURVE",
"715 383 CURVE SMOOTH",
"744 472 OFFCURVE",
"763 746 OFFCURVE",
"778 915 CURVE SMOOTH"
);
}
);
width = 726;
},
{
anchors = (
{
name = bottom;
position = "{216, -196}";
},
{
name = ring;
position = "{576, 141}";
},
{
name = top;
position = "{777, 1077}";
}
);
layerId = "CC24164E-6342-4A92-AABB-B05B5693BF45";
paths = (
{
closed = 1;
nodes = (
"770 903 OFFCURVE",
"754 905 OFFCURVE",
"745 898 CURVE SMOOTH",
"605 791 LINE",
"557 265 LINE",
"557 254 OFFCURVE",
"550 242 OFFCURVE",
"539 238 CURVE",
"407 187 OFFCURVE",
"281 161 OFFCURVE",
"72 161 CURVE SMOOTH",
"32 161 LINE SMOOTH",
"-19 161 OFFCURVE",
"-64 129 OFFCURVE",
"-79 81 CURVE SMOOTH",
"-95 33 OFFCURVE",
"-72 0 OFFCURVE",
"-21 0 CURVE SMOOTH",
"19 0 LINE SMOOTH",
"400 0 OFFCURVE",
"621 115 OFFCURVE",
"703 368 CURVE SMOOTH",
"731 454 OFFCURVE",
"742 724 OFFCURVE",
"769 897 CURVE SMOOTH"
);
}
);
width = 723;
},
{
anchors = (
{
name = bottom;
position = "{249, -201}";
},
{
name = ring;
position = "{539, -20}";
},
{
name = top;
position = "{550, 1112}";
}
);
associatedMasterId = "00FED3EE-B3F5-49E6-B91A-35FC52169726";
layerId = "A59E3E2D-B48C-4CDD-836A-A1E73DB51526";
paths = (
{
closed = 1;
nodes = (
"631 935 OFFCURVE",
"611 937 OFFCURVE",
"595 924 CURVE",
"480 824 LINE",
"473 817 OFFCURVE",
"469 810 OFFCURVE",
"469 804 CURVE",
"508 277 LINE",
"508 270 OFFCURVE",
"507 269 OFFCURVE",
"502 267 CURVE",
"381 217 OFFCURVE",
"260 191 OFFCURVE",
"41 191 CURVE SMOOTH",
"21 191 LINE SMOOTH",
"-43 191 OFFCURVE",
"-81 143 OFFCURVE",
"-89 96 CURVE SMOOTH",
"-96 49 OFFCURVE",
"-74 0 OFFCURVE",
"-10 0 CURVE SMOOTH",
"11 0 LINE SMOOTH",
"408 0 OFFCURVE",
"613 120 OFFCURVE",
"654 383 CURVE SMOOTH",
"669 472 OFFCURVE",
"645 746 OFFCURVE",
"633 915 CURVE SMOOTH"
);
}
);
width = 727;
},
{
anchors = (
{
name = bottom;
position = "{230, -201}";
},
{
name = ring;
position = "{351, -140}";
},
{
name = top;
position = "{838, 1182}";
}
);
layerId = "A4A63F56-930B-4BA2-9E35-208CEDD14325";
paths = (
{
closed = 1;
nodes = (
"575 855 LINE",
"537 334 LINE",
"424 293 OFFCURVE",
"323 273 OFFCURVE",
"119 273 CURVE SMOOTH",
"59 273 LINE SMOOTH",
"-13 273 OFFCURVE",
"-90 212 OFFCURVE",
"-115 137 CURVE SMOOTH",
"-139 61 OFFCURVE",
"-101 0 OFFCURVE",
"-29 0 CURVE SMOOTH",
"31 0 LINE SMOOTH",
"456 0 OFFCURVE",
"697 133 OFFCURVE",
"791 424 CURVE SMOOTH",
"824 523 OFFCURVE",
"848 835 OFFCURVE",
"863 999 CURVE"
);
}
);
width = 788;
}
);
leftKerningGroup = all;
},
{
glyphname = "peh-ar.init";
lastChange = "2017-08-20 16:41:26 +0000";
layers = (
{
anchors = (
{
name = top;
position = "{544, 1159}";
}
);
components = (
{
name = "threedotsdownbelow-ar";
transform = "{1, 0, 0, 1, 25, -24}";
}
);
layerId = "93A312F7-B931-4485-B08E-C367313EB5E7";
paths = (
{
closed = 1;
nodes = (
"92 0 LINE SMOOTH",
"299 0 OFFCURVE",
"599 91 OFFCURVE",
"628 209 CURVE",
"651 278 OFFCURVE",
"665 361 OFFCURVE",
"665 423 CURVE SMOOTH",
"665 515 OFFCURVE",
"595 799 OFFCURVE",
"553 975 CURVE SMOOTH",
"550 988 OFFCURVE",
"539 989 OFFCURVE",
"530 980 CURVE SMOOTH",
"427 875 LINE SMOOTH",
"421 868 OFFCURVE",
"419 861 OFFCURVE",
"421 852 CURVE SMOOTH",
"568 319 LINE SMOOTH",
"576 290 OFFCURVE",
"563 279 OFFCURVE",
"544 271 CURVE SMOOTH",
"461 236 OFFCURVE",
"311 179 OFFCURVE",
"92 179 CURVE SMOOTH",
"-20 179 LINE SMOOTH",
"-138 179 OFFCURVE",
"-138 0 OFFCURVE",
"-20 0 CURVE SMOOTH"
);
}
);
width = 803;
},
{
anchors = (
{
name = top;
position = "{509, 1060}";
}
);
components = (
{
alignment = 1;
name = "dotlessbeh2-ar.init";
},
{
name = "threedotsdownbelow-ar";
transform = "{1, 0, 0, 1, -43, -9}";
}
);
layerId = "00FED3EE-B3F5-49E6-B91A-35FC52169726";
width = 813;
},
{
anchors = (
{
name = top;
position = "{509, 1110}";
}
);
components = (
{
alignment = 1;
name = "dotlessbeh2-ar.init";
},
{
name = "threedotsdownbelow-ar";
transform = "{1, 0, 0, 1, -3, -62}";
}
);
layerId = "E3174D42-D779-465D-8194-70AED922C337";
width = 817;
},
{
anchors = (
{
name = top;
position = "{539, 1120}";
}
);
components = (
{
alignment = 1;
name = "dotlessbeh2-ar.init";
},
{
name = "threedotsdownbelow-ar";
transform = "{1, 0, 0, 1, -9, -57}";
}
);
layerId = "AB6A8399-B57F-40CA-845C-76C4C0121470";
width = 842;
},
{
anchors = (
{
name = top;
position = "{519, 1190}";
}
);
components = (
{
alignment = 1;
name = "dotlessbeh2-ar.init";
},
{
name = "threedotsdownbelow-ar";
transform = "{1, 0, 0, 1, 28, -85}";
}
);
layerId = "EAE1A523-EADE-4FB1-A034-E66E80F3AE4F";
width = 867;
},
{
anchors = (
{
name = top;
position = "{839, 1130}";
}
);
components = (
{
alignment = 1;
name = "dotlessbeh2-ar.init";
},
{
name = "threedotsdownbelow-ar";
transform = "{1, 0, 0, 1, -33, -77}";
}
);
layerId = "020FDE62-5533-4E0C-98E7-097025284E4F";
width = 815;
},
{
anchors = (
{
name = top;
position = "{859, 1060}";
}
);
components = (
{
alignment = 1;
name = "dotlessbeh2-ar.init";
},
{
name = "threedotsdownbelow-ar";
transform = "{1, 0, 0, 1, -27, -9}";
}
);
layerId = "CC24164E-6342-4A92-AABB-B05B5693BF45";
width = 813;
},
{
anchors = (
{
name = top;
position = "{609, 1120}";
}
);
associatedMasterId = "00FED3EE-B3F5-49E6-B91A-35FC52169726";
components = (
{
alignment = 1;
name = "dotlessbeh2-ar.init";
},
{
name = "threedotsdownbelow-ar";
transform = "{1, 0, 0, 1, -18, -70}";
}
);
layerId = "A59E3E2D-B48C-4CDD-836A-A1E73DB51526";
width = 816;
},
{
anchors = (
{
name = top;
position = "{870, 1190}";
}
);
components = (
{
alignment = 1;
name = "dotlessbeh2-ar.init";
},
{
name = "threedotsdownbelow-ar";
transform = "{1, 0, 0, 1, 25, -85}";
}
);
layerId = "A4A63F56-930B-4BA2-9E35-208CEDD14325";
width = 861;
}
);
unicode = FB58;
},
{
glyphname = "hah-ar";
lastChange = "2017-08-20 16:16:55 +0000";
layers = (
{
anchors = (
{
name = bottom;
position = "{805, -968}";
},
{
name = center;
position = "{870, 0}";
},
{
name = top;
position = "{447, 1042}";
}
);
layerId = "93A312F7-B931-4485-B08E-C367313EB5E7";
paths = (
{
closed = 1;
nodes = (
"1235 -672 OFFCURVE",
"1281 -636 OFFCURVE",
"1336 -497 CURVE SMOOTH",
"1342 -482 OFFCURVE",
"1327 -470 OFFCURVE",
"1309 -474 CURVE SMOOTH",
"977 -542 OFFCURVE",
"478 -597 OFFCURVE",
"320 -312 CURVE SMOOTH",
"288 -251 OFFCURVE",
"277 -168 OFFCURVE",
"302 -66 CURVE SMOOTH",
"400 328 OFFCURVE",
"812 497 OFFCURVE",
"1228 503 CURVE SMOOTH",
"1235 503 OFFCURVE",
"1241 507 OFFCURVE",
"1243 513 CURVE SMOOTH",
"1298 681 LINE SMOOTH",
"1303 695 OFFCURVE",
"1293 708 OFFCURVE",
"1277 707 CURVE SMOOTH",
"946 690 OFFCURVE",
"784 780 OFFCURVE",
"614 833 CURVE SMOOTH",
"420 892 OFFCURVE",
"344 873 OFFCURVE",
"193 710 CURVE SMOOTH",
"189 705 OFFCURVE",
"187 700 OFFCURVE",
"189 695 CURVE SMOOTH",
"224 600 LINE SMOOTH",
"230 584 OFFCURVE",
"247 581 OFFCURVE",
"260 593 CURVE SMOOTH",
"376 708 OFFCURVE",
"422 703 OFFCURVE",
"541 666 CURVE SMOOTH",
"795 587 LINE",
"448 486 OFFCURVE",
"177 180 OFFCURVE",
"173 -183 CURVE SMOOTH",
"167 -743 OFFCURVE",
"615 -764 OFFCURVE",
"1037 -702 CURVE SMOOTH"
);
}
);
width = 1438;
},
{
anchors = (
{
name = bottom;
position = "{725, -895}";
},
{
name = center;
position = "{810, -45}";
},
{
name = top;
position = "{447, 1020}";
}
);
layerId = "00FED3EE-B3F5-49E6-B91A-35FC52169726";
paths = (
{
closed = 1;
nodes = (
"196 669 OFFCURVE",
"194 666 OFFCURVE",
"194 661 CURVE SMOOTH",
"194 657 OFFCURVE",
"196 652 OFFCURVE",
"199 645 CURVE SMOOTH",
"229 573 LINE SMOOTH",
"233 563 OFFCURVE",
"240 559 OFFCURVE",
"247 559 CURVE SMOOTH",
"253 559 OFFCURVE",
"260 563 OFFCURVE",
"265 568 CURVE SMOOTH",
"333 636 OFFCURVE",
"374 660 OFFCURVE",
"424 660 CURVE SMOOTH",
"464 660 OFFCURVE",
"472 657 OFFCURVE",
"807 561 CURVE",
"806 551 LINE",
"414 486 OFFCURVE",
"180 146 OFFCURVE",
"180 -193 CURVE SMOOTH",
"180 -564 OFFCURVE",
"386 -696 OFFCURVE",
"727 -696 CURVE SMOOTH",
"810 -696 OFFCURVE",
"902 -688 OFFCURVE",
"1000 -674 CURVE SMOOTH",
"1194 -646 OFFCURVE",
"1238 -617 OFFCURVE",
"1288 -490 CURVE",
"1288 -491 LINE",
"1290 -480 OFFCURVE",
"1283 -474 OFFCURVE",
"1267 -474 CURVE SMOOTH",
"1233 -474 OFFCURVE",
"1050 -527 OFFCURVE",
"816 -527 CURVE SMOOTH",
"484 -527 OFFCURVE",
"291 -399 OFFCURVE",
"291 -177 CURVE",
"291 204 OFFCURVE",
"662 483 OFFCURVE",
"1193 483 CURVE SMOOTH",
"1199 483 OFFCURVE",
"1207 486 OFFCURVE",
"1207 489 CURVE",
"1258 622 LINE",
"1262 633 OFFCURVE",
"1264 641 OFFCURVE",
"1264 647 CURVE SMOOTH",
"1264 664 OFFCURVE",
"1247 666 OFFCURVE",
"1201 666 CURVE SMOOTH",
"1189 666 OFFCURVE",
"1174 666 OFFCURVE",
"1157 666 CURVE SMOOTH",
"788 666 OFFCURVE",
"638 819 OFFCURVE",
"449 819 CURVE SMOOTH",
"364 819 OFFCURVE",
"301 782 OFFCURVE",
"199 672 CURVE"
);
}
);
width = 1404;
},
{
anchors = (
{
name = bottom;
position = "{739, -901}";
},
{
name = center;
position = "{852, 10}";
},
{
name = top;
position = "{455, 1048}";
}
);
layerId = "E3174D42-D779-465D-8194-70AED922C337";
paths = (
{
closed = 1;
nodes = (
"1192 -646 OFFCURVE",
"1243 -620 OFFCURVE",
"1298 -481 CURVE SMOOTH",
"1304 -458 OFFCURVE",
"1289 -444 OFFCURVE",
"1269 -444 CURVE SMOOTH",
"1235 -444 OFFCURVE",
"1052 -497 OFFCURVE",
"818 -497 CURVE SMOOTH",
"540 -497 OFFCURVE",
"302 -403 OFFCURVE",
"302 -162 CURVE SMOOTH",
"302 220 OFFCURVE",
"685 476 OFFCURVE",
"1195 483 CURVE SMOOTH",
"1206 483 OFFCURVE",
"1215 490 OFFCURVE",
"1218 499 CURVE SMOOTH",
"1262 633 OFFCURVE",
"1273 664 OFFCURVE",
"1273 674 CURVE SMOOTH",
"1273 698 OFFCURVE",
"1228 696 OFFCURVE",
"1159 696 CURVE SMOOTH",
"791 696 OFFCURVE",
"641 849 OFFCURVE",
"451 849 CURVE SMOOTH",
"359 849 OFFCURVE",
"293 804 OFFCURVE",
"194 697 CURVE SMOOTH",
"186 689 OFFCURVE",
"186 684 OFFCURVE",
"189 673 CURVE SMOOTH",
"223 583 LINE SMOOTH",
"228 569 OFFCURVE",
"238 562 OFFCURVE",
"250 562 CURVE SMOOTH",
"257 562 OFFCURVE",
"266 565 OFFCURVE",
"273 572 CURVE SMOOTH",
"339 638 OFFCURVE",
"379 660 OFFCURVE",
"426 660 CURVE SMOOTH",
"464 660 OFFCURVE",
"472 657 OFFCURVE",
"766 573 CURVE",
"396 491 OFFCURVE",
"173 155 OFFCURVE",
"173 -178 CURVE SMOOTH",
"173 -590 OFFCURVE",
"426 -697 OFFCURVE",
"728 -697 CURVE SMOOTH",
"817 -697 OFFCURVE",
"911 -687 OFFCURVE",
"1003 -674 CURVE SMOOTH"
);
}
);
width = 1408;
},
{
anchors = (
{
name = bottom;
position = "{756, -913}";
},
{
name = center;
position = "{839, -60}";
},
{
name = top;
position = "{479, 1068}";
}
);
layerId = "AB6A8399-B57F-40CA-845C-76C4C0121470";
paths = (
{
closed = 1;
nodes = (
"1238 -437 LINE",
"1159 -452 OFFCURVE",
"1016 -481 OFFCURVE",
"845 -481 CURVE SMOOTH",
"529 -481 OFFCURVE",
"349 -365 OFFCURVE",
"349 -162 CURVE SMOOTH",
"349 198 OFFCURVE",
"702 455 OFFCURVE",
"1208 467 CURVE",
"1268 710 LINE",
"1149 713 LINE",
"817 723 OFFCURVE",
"669 865 OFFCURVE",
"478 865 CURVE SMOOTH",
"410 865 OFFCURVE",
"308 801 OFFCURVE",
"222 710 CURVE",
"314 551 LINE",
"377 604 OFFCURVE",
"431 644 OFFCURVE",
"473 644 CURVE SMOOTH",
"504 644 OFFCURVE",
"509 642 OFFCURVE",
"742 574 CURVE",
"417 475 OFFCURVE",
"180 169 OFFCURVE",
"180 -178 CURVE SMOOTH",
"180 -537 OFFCURVE",
"369 -713 OFFCURVE",
"755 -713 CURVE SMOOTH",
"870 -713 OFFCURVE",
"1082 -690 OFFCURVE",
"1181 -659 CURVE"
);
}
);
width = 1408;
},
{
anchors = (
{
name = bottom;
position = "{774, -933}";
},
{
name = center;
position = "{857, -40}";
},
{
name = top;
position = "{497, 1128}";
}
);
layerId = "EAE1A523-EADE-4FB1-A034-E66E80F3AE4F";
paths = (
{
closed = 1;
nodes = (
"1290 -381 LINE",
"1225 -390 OFFCURVE",
"1064 -431 OFFCURVE",
"863 -431 CURVE SMOOTH",
"561 -431 OFFCURVE",
"392 -324 OFFCURVE",
"392 -137 CURVE SMOOTH",
"392 212 OFFCURVE",
"742 462 OFFCURVE",
"1246 467 CURVE",
"1318 759 LINE",
"1168 763 LINE SMOOTH",
"847 772 OFFCURVE",
"694 915 OFFCURVE",
"496 915 CURVE SMOOTH",
"419 915 OFFCURVE",
"305 845 OFFCURVE",
"209 738 CURVE",
"325 538 LINE",
"415 615 OFFCURVE",
"444 644 OFFCURVE",
"491 644 CURVE SMOOTH",
"536 644 OFFCURVE",
"593 642 OFFCURVE",
"727 596 CURVE",
"367 471 OFFCURVE",
"173 173 OFFCURVE",
"173 -153 CURVE SMOOTH",
"173 -526 OFFCURVE",
"373 -713 OFFCURVE",
"773 -713 CURVE SMOOTH",
"895 -713 OFFCURVE",
"1125 -687 OFFCURVE",
"1220 -653 CURVE"
);
}
);
width = 1453;
},
{
anchors = (
{
name = bottom;
position = "{451, -901}";
},
{
name = center;
position = "{802, -10}";
},
{
name = top;
position = "{787, 1048}";
}
);
layerId = "020FDE62-5533-4E0C-98E7-097025284E4F";
paths = (
{
closed = 1;
nodes = (
"986 -646 OFFCURVE",
"1045 -620 OFFCURVE",
"1144 -481 CURVE SMOOTH",
"1157 -458 OFFCURVE",
"1146 -444 OFFCURVE",
"1126 -444 CURVE SMOOTH",
"1092 -444 OFFCURVE",
"893 -497 OFFCURVE",
"659 -497 CURVE SMOOTH",
"381 -497 OFFCURVE",
"173 -403 OFFCURVE",
"249 -162 CURVE SMOOTH",
"371 220 OFFCURVE",
"835 476 OFFCURVE",
"1348 483 CURVE SMOOTH",
"1359 483 OFFCURVE",
"1370 490 OFFCURVE",
"1375 499 CURVE SMOOTH",
"1462 633 OFFCURVE",
"1483 664 OFFCURVE",
"1486 674 CURVE SMOOTH",
"1493 698 OFFCURVE",
"1448 696 OFFCURVE",
"1379 696 CURVE SMOOTH",
"1011 696 OFFCURVE",
"909 849 OFFCURVE",
"719 849 CURVE SMOOTH",
"627 849 OFFCURVE",
"548 804 OFFCURVE",
"414 697 CURVE SMOOTH",
"403 689 OFFCURVE",
"402 684 OFFCURVE",
"402 673 CURVE SMOOTH",
"407 583 LINE SMOOTH",
"408 569 OFFCURVE",
"415 562 OFFCURVE",
"427 562 CURVE SMOOTH",
"434 562 OFFCURVE",
"444 565 OFFCURVE",
"453 572 CURVE SMOOTH",
"540 638 OFFCURVE",
"587 660 OFFCURVE",
"634 660 CURVE SMOOTH",
"672 660 OFFCURVE",
"679 657 OFFCURVE",
"947 573 CURVE",
"551 491 OFFCURVE",
"221 155 OFFCURVE",
"115 -178 CURVE SMOOTH",
"-16 -590 OFFCURVE",
"204 -697 OFFCURVE",
"506 -697 CURVE SMOOTH",
"595 -697 OFFCURVE",
"692 -687 OFFCURVE",
"788 -674 CURVE SMOOTH"
);
}
);
width = 1410;
},
{
anchors = (
{
name = bottom;
position = "{434, -895}";
},
{
name = center;
position = "{795, -45}";
},
{
name = top;
position = "{778, 1020}";
}
);
layerId = "CC24164E-6342-4A92-AABB-B05B5693BF45";
paths = (
{
closed = 1;
nodes = (
"413 669 OFFCURVE",
"410 666 OFFCURVE",
"409 661 CURVE SMOOTH",
"407 657 OFFCURVE",
"408 652 OFFCURVE",
"409 645 CURVE SMOOTH",
"415 573 LINE SMOOTH",
"416 563 OFFCURVE",
"422 559 OFFCURVE",
"429 559 CURVE SMOOTH",
"435 559 OFFCURVE",
"443 563 OFFCURVE",
"450 568 CURVE SMOOTH",
"540 636 OFFCURVE",
"588 660 OFFCURVE",
"638 660 CURVE SMOOTH",
"678 660 OFFCURVE",
"685 657 OFFCURVE",
"989 561 CURVE",
"985 551 LINE",
"572 486 OFFCURVE",
"227 146 OFFCURVE",
"117 -193 CURVE SMOOTH",
"-3 -564 OFFCURVE",
"160 -696 OFFCURVE",
"501 -696 CURVE SMOOTH",
"584 -696 OFFCURVE",
"678 -688 OFFCURVE",
"781 -674 CURVE SMOOTH",
"984 -646 OFFCURVE",
"1038 -617 OFFCURVE",
"1129 -490 CURVE",
"1128 -491 LINE",
"1134 -480 OFFCURVE",
"1129 -474 OFFCURVE",
"1113 -474 CURVE SMOOTH",
"1079 -474 OFFCURVE",
"879 -527 OFFCURVE",
"645 -527 CURVE SMOOTH",
"313 -527 OFFCURVE",
"161 -399 OFFCURVE",
"234 -177 CURVE",
"357 204 OFFCURVE",
"819 483 OFFCURVE",
"1350 483 CURVE SMOOTH",
"1356 483 OFFCURVE",
"1365 486 OFFCURVE",
"1366 489 CURVE",
"1460 622 LINE",
"1468 633 OFFCURVE",
"1472 641 OFFCURVE",
"1474 647 CURVE SMOOTH",
"1480 664 OFFCURVE",
"1463 666 OFFCURVE",
"1417 666 CURVE SMOOTH",
"1405 666 OFFCURVE",
"1390 666 OFFCURVE",
"1373 666 CURVE SMOOTH",
"1004 666 OFFCURVE",
"904 819 OFFCURVE",
"715 819 CURVE SMOOTH",
"630 819 OFFCURVE",
"555 782 OFFCURVE",
"417 672 CURVE"
);
}
);
width = 1404;
},
{
anchors = (
{
name = bottom;
position = "{595, -901}";
},
{
name = center;
position = "{827, 0}";
},
{
name = top;
position = "{621, 1048}";
}
);
associatedMasterId = "00FED3EE-B3F5-49E6-B91A-35FC52169726";
layerId = "A59E3E2D-B48C-4CDD-836A-A1E73DB51526";
paths = (
{
closed = 1;
nodes = (
"1089 -646 OFFCURVE",
"1144 -620 OFFCURVE",
"1221 -481 CURVE SMOOTH",
"1231 -458 OFFCURVE",
"1218 -444 OFFCURVE",
"1198 -444 CURVE SMOOTH",
"1164 -444 OFFCURVE",
"973 -497 OFFCURVE",
"739 -497 CURVE SMOOTH",
"461 -497 OFFCURVE",
"238 -403 OFFCURVE",
"276 -162 CURVE SMOOTH",
"337 220 OFFCURVE",
"760 476 OFFCURVE",
"1272 483 CURVE SMOOTH",
"1283 483 OFFCURVE",
"1293 490 OFFCURVE",
"1297 499 CURVE SMOOTH",
"1362 633 OFFCURVE",
"1378 664 OFFCURVE",
"1380 674 CURVE SMOOTH",
"1383 698 OFFCURVE",
"1338 696 OFFCURVE",
"1269 696 CURVE SMOOTH",
"901 696 OFFCURVE",
"775 849 OFFCURVE",
"585 849 CURVE SMOOTH",
"493 849 OFFCURVE",
"421 804 OFFCURVE",
"304 697 CURVE SMOOTH",
"295 689 OFFCURVE",
"294 684 OFFCURVE",
"296 673 CURVE SMOOTH",
"315 583 LINE SMOOTH",
"318 569 OFFCURVE",
"327 562 OFFCURVE",
"339 562 CURVE SMOOTH",
"346 562 OFFCURVE",
"355 565 OFFCURVE",
"363 572 CURVE SMOOTH",
"440 638 OFFCURVE",
"483 660 OFFCURVE",
"530 660 CURVE SMOOTH",
"568 660 OFFCURVE",
"576 657 OFFCURVE",
"857 573 CURVE",
"474 491 OFFCURVE",
"197 155 OFFCURVE",
"144 -178 CURVE SMOOTH",
"79 -590 OFFCURVE",
"315 -697 OFFCURVE",
"617 -697 CURVE SMOOTH",
"706 -697 OFFCURVE",
"802 -687 OFFCURVE",
"896 -674 CURVE SMOOTH"
);
}
);
width = 1409;
},
{
anchors = (
{
name = bottom;
position = "{471, -933}";
},
{
name = center;
position = "{844, -40}";
},
{
name = top;
position = "{864, 1128}";
}
);
layerId = "A4A63F56-930B-4BA2-9E35-208CEDD14325";
paths = (
{
closed = 1;
nodes = (
"1166 -381 LINE",
"1098 -390 OFFCURVE",
"924 -431 OFFCURVE",
"723 -431 CURVE SMOOTH",
"421 -431 OFFCURVE",
"287 -324 OFFCURVE",
"348 -137 CURVE SMOOTH",
"461 212 OFFCURVE",
"892 462 OFFCURVE",
"1398 467 CURVE",
"1565 759 LINE",
"1416 763 LINE SMOOTH",
"1098 772 OFFCURVE",
"991 915 OFFCURVE",
"793 915 CURVE SMOOTH",
"716 915 OFFCURVE",
"580 845 OFFCURVE",
"449 738 CURVE",
"500 538 LINE",
"615 615 OFFCURVE",
"653 644 OFFCURVE",
"700 644 CURVE SMOOTH",
"745 644 OFFCURVE",
"802 642 OFFCURVE",
"921 596 CURVE",
"520 471 OFFCURVE",
"229 173 OFFCURVE",
"123 -153 CURVE SMOOTH",
"2 -526 OFFCURVE",
"142 -713 OFFCURVE",
"542 -713 CURVE SMOOTH",
"664 -713 OFFCURVE",
"902 -687 OFFCURVE",
"1008 -653 CURVE"
);
}
);
width = 1453;
}
);
unicode = 062D;
},
{
glyphname = "hah-ar.fina";
lastChange = "2017-08-20 16:17:40 +0000";
layers = (
{
anchors = (
{
name = bottom;
position = "{793, -945}";
},
{
name = center;
position = "{679, -120}";
},
{
name = top;
position = "{484, 1063}";
}
);
layerId = "93A312F7-B931-4485-B08E-C367313EB5E7";
paths = (
{
closed = 1;
nodes = (
"1255 -669 OFFCURVE",
"1311 -633 OFFCURVE",
"1366 -494 CURVE SMOOTH",
"1372 -479 OFFCURVE",
"1357 -468 OFFCURVE",
"1339 -471 CURVE SMOOTH",
"1007 -535 OFFCURVE",
"478 -594 OFFCURVE",
"320 -309 CURVE SMOOTH",
"288 -248 OFFCURVE",
"277 -165 OFFCURVE",
"302 -63 CURVE SMOOTH",
"359 165 OFFCURVE",
"520 291 OFFCURVE",
"727 399 CURVE",
"811 145 OFFCURVE",
"977 0 OFFCURVE",
"1219 0 CURVE SMOOTH",
"1301 0 LINE",
"1349 60 OFFCURVE",
"1349 119 OFFCURVE",
"1301 179 CURVE",
"1235 179 LINE SMOOTH",
"1104 179 OFFCURVE",
"907 232 OFFCURVE",
"834 448 CURVE",
"958 497 OFFCURVE",
"1093 523 OFFCURVE",
"1228 526 CURVE SMOOTH",
"1235 526 OFFCURVE",
"1241 530 OFFCURVE",
"1243 536 CURVE SMOOTH",
"1298 704 LINE SMOOTH",
"1303 718 OFFCURVE",
"1293 731 OFFCURVE",
"1277 730 CURVE SMOOTH",
"946 713 OFFCURVE",
"784 803 OFFCURVE",
"614 856 CURVE SMOOTH",
"420 915 OFFCURVE",
"344 896 OFFCURVE",
"193 733 CURVE SMOOTH",
"189 728 OFFCURVE",
"187 723 OFFCURVE",
"189 718 CURVE SMOOTH",
"224 623 LINE SMOOTH",
"230 607 OFFCURVE",
"247 604 OFFCURVE",
"260 616 CURVE SMOOTH",
"376 731 OFFCURVE",
"422 726 OFFCURVE",
"541 689 CURVE SMOOTH",
"795 610 LINE",
"468 499 OFFCURVE",
"177 193 OFFCURVE",
"173 -180 CURVE SMOOTH",
"166 -740 OFFCURVE",
"635 -761 OFFCURVE",
"1057 -699 CURVE SMOOTH"
);
}
);
width = 1281;
},
{
anchors = (
{
name = bottom;
position = "{746, -913}";
},
{
name = center;
position = "{662, -126}";
},
{
name = top;
position = "{449, 1017}";
}
);
layerId = "00FED3EE-B3F5-49E6-B91A-35FC52169726";
paths = (
{
closed = 1;
nodes = (
"1233 -474 OFFCURVE",
"1050 -527 OFFCURVE",
"816 -527 CURVE SMOOTH",
"484 -527 OFFCURVE",
"291 -399 OFFCURVE",
"291 -177 CURVE SMOOTH",
"291 74 OFFCURVE",
"452 278 OFFCURVE",
"714 390 CURVE",
"799 143 OFFCURVE",
"965 0 OFFCURVE",
"1185 0 CURVE SMOOTH",
"1266 0 LINE",
"1288 28 OFFCURVE",
"1298 53 OFFCURVE",
"1298 81 CURVE SMOOTH",
"1298 109 OFFCURVE",
"1288 133 OFFCURVE",
"1266 161 CURVE",
"1200 161 LINE SMOOTH",
"1076 161 OFFCURVE",
"891 221 OFFCURVE",
"817 427 CURVE",
"929 462 OFFCURVE",
"1056 483 OFFCURVE",
"1193 483 CURVE SMOOTH",
"1199 483 OFFCURVE",
"1207 486 OFFCURVE",
"1207 489 CURVE",
"1258 622 LINE SMOOTH",
"1273 664 OFFCURVE",
"1260 666 OFFCURVE",
"1201 666 CURVE SMOOTH",
"1157 666 LINE SMOOTH",
"788 666 OFFCURVE",
"638 819 OFFCURVE",
"449 819 CURVE SMOOTH",
"364 819 OFFCURVE",
"301 782 OFFCURVE",
"199 672 CURVE",
"191 664 OFFCURVE",
"194 657 OFFCURVE",
"199 645 CURVE SMOOTH",
"229 573 LINE",
"238 556 OFFCURVE",
"252 555 OFFCURVE",
"265 568 CURVE SMOOTH",
"333 636 OFFCURVE",
"374 660 OFFCURVE",
"424 660 CURVE SMOOTH",
"464 660 OFFCURVE",
"472 657 OFFCURVE",
"807 561 CURVE",
"806 551 LINE",
"414 486 OFFCURVE",
"180 146 OFFCURVE",
"180 -193 CURVE SMOOTH",
"180 -564 OFFCURVE",
"386 -696 OFFCURVE",
"727 -696 CURVE SMOOTH",
"810 -696 OFFCURVE",
"902 -688 OFFCURVE",
"1000 -674 CURVE SMOOTH",
"1194 -646 OFFCURVE",
"1238 -617 OFFCURVE",
"1288 -490 CURVE",
"1288 -491 LINE",
"1290 -480 OFFCURVE",
"1283 -474 OFFCURVE",
"1267 -474 CURVE SMOOTH"
);
}
);
width = 1246;
},
{
anchors = (
{
name = bottom;
position = "{748, -898}";
},
{
name = center;
position = "{668, -106}";
},
{
name = top;
position = "{461, 1049}";
}
);
layerId = "E3174D42-D779-465D-8194-70AED922C337";
paths = (
{
closed = 1;
nodes = (
"1237 -444 OFFCURVE",
"1042 -496 OFFCURVE",
"811 -496 CURVE SMOOTH",
"533 -496 OFFCURVE",
"302 -401 OFFCURVE",
"302 -162 CURVE SMOOTH",
"302 77 OFFCURVE",
"470 284 OFFCURVE",
"708 390 CURVE",
"793 142 OFFCURVE",
"959 0 OFFCURVE",
"1187 0 CURVE SMOOTH",
"1258 0 LINE",
"1285 32 OFFCURVE",
"1297 64 OFFCURVE",
"1297 96 CURVE SMOOTH",
"1297 128 OFFCURVE",
"1285 159 OFFCURVE",
"1258 191 CURVE",
"1202 191 LINE SMOOTH",
"1079 191 OFFCURVE",
"900 239 OFFCURVE",
"829 434 CURVE",
"944 478 OFFCURVE",
"1068 480 OFFCURVE",
"1195 483 CURVE SMOOTH",
"1206 483 OFFCURVE",
"1215 490 OFFCURVE",
"1218 499 CURVE SMOOTH",
"1266 638 OFFCURVE",
"1274 658 OFFCURVE",
"1274 670 CURVE SMOOTH",
"1274 698 OFFCURVE",
"1228 696 OFFCURVE",
"1159 696 CURVE SMOOTH",
"791 696 OFFCURVE",
"641 849 OFFCURVE",
"452 849 CURVE SMOOTH",
"360 849 OFFCURVE",
"292 803 OFFCURVE",
"194 697 CURVE",
"186 689 OFFCURVE",
"186 683 OFFCURVE",
"189 673 CURVE",
"223 583 LINE SMOOTH",
"228 569 OFFCURVE",
"239 562 OFFCURVE",
"251 562 CURVE SMOOTH",
"258 562 OFFCURVE",
"266 565 OFFCURVE",
"273 572 CURVE SMOOTH",
"339 638 OFFCURVE",
"379 660 OFFCURVE",
"427 660 CURVE SMOOTH",
"465 660 OFFCURVE",
"478 655 OFFCURVE",
"766 573 CURVE",
"396 491 OFFCURVE",
"173 157 OFFCURVE",
"173 -175 CURVE SMOOTH",
"173 -589 OFFCURVE",
"429 -697 OFFCURVE",
"731 -697 CURVE SMOOTH",
"820 -697 OFFCURVE",
"912 -687 OFFCURVE",
"1003 -674 CURVE SMOOTH",
"1198 -645 OFFCURVE",
"1244 -616 OFFCURVE",
"1298 -481 CURVE",
"1304 -457 OFFCURVE",
"1290 -444 OFFCURVE",
"1269 -444 CURVE SMOOTH"
);
}
);
width = 1248;
},
{
anchors = (
{
name = bottom;
position = "{755, -892}";
},
{
name = center;
position = "{735, -90}";
},
{
name = top;
position = "{476, 1083}";
}
);
layerId = "AB6A8399-B57F-40CA-845C-76C4C0121470";
paths = (
{
closed = 1;
nodes = (
"1229 223 LINE SMOOTH",
"1066 223 OFFCURVE",
"940 300 OFFCURVE",
"882 437 CURVE",
"981 464 OFFCURVE",
"1090 480 OFFCURVE",
"1208 483 CURVE",
"1268 726 LINE",
"1149 729 LINE SMOOTH",
"817 737 OFFCURVE",
"669 881 OFFCURVE",
"478 881 CURVE SMOOTH",
"410 881 OFFCURVE",
"308 817 OFFCURVE",
"222 726 CURVE",
"314 567 LINE",
"377 620 OFFCURVE",
"431 660 OFFCURVE",
"473 660 CURVE SMOOTH",
"504 660 OFFCURVE",
"500 659 OFFCURVE",
"742 590 CURVE",
"417 491 OFFCURVE",
"180 185 OFFCURVE",
"180 -162 CURVE SMOOTH",
"180 -521 OFFCURVE",
"369 -697 OFFCURVE",
"755 -697 CURVE SMOOTH",
"870 -697 OFFCURVE",
"1082 -674 OFFCURVE",
"1181 -643 CURVE",
"1238 -421 LINE",
"1159 -436 OFFCURVE",
"1016 -465 OFFCURVE",
"845 -465 CURVE SMOOTH",
"529 -465 OFFCURVE",
"349 -349 OFFCURVE",
"349 -146 CURVE SMOOTH",
"349 82 OFFCURVE",
"491 269 OFFCURVE",
"724 379 CURVE",
"815 135 OFFCURVE",
"988 0 OFFCURVE",
"1214 0 CURVE SMOOTH",
"1305 0 LINE",
"1340 35 OFFCURVE",
"1355 72 OFFCURVE",
"1355 112 CURVE SMOOTH",
"1355 152 OFFCURVE",
"1340 188 OFFCURVE",
"1305 223 CURVE"
);
}
);
width = 1290;
},
{
anchors = (
{
name = bottom;
position = "{773, -912}";
},
{
name = center;
position = "{753, -90}";
},
{
name = top;
position = "{494, 1143}";
}
);
layerId = "EAE1A523-EADE-4FB1-A034-E66E80F3AE4F";
paths = (
{
closed = 1;
nodes = (
"1247 273 LINE SMOOTH",
"1104 273 OFFCURVE",
"994 335 OFFCURVE",
"935 445 CURVE",
"1032 469 OFFCURVE",
"1136 482 OFFCURVE",
"1246 483 CURVE",
"1318 775 LINE",
"1168 779 LINE SMOOTH",
"847 788 OFFCURVE",
"694 931 OFFCURVE",
"496 931 CURVE SMOOTH",
"419 931 OFFCURVE",
"305 861 OFFCURVE",
"209 754 CURVE",
"325 554 LINE",
"415 631 OFFCURVE",
"444 660 OFFCURVE",
"491 660 CURVE SMOOTH",
"536 660 OFFCURVE",
"544 659 OFFCURVE",
"677 612 CURVE",
"377 487 OFFCURVE",
"173 189 OFFCURVE",
"173 -137 CURVE SMOOTH",
"173 -510 OFFCURVE",
"373 -697 OFFCURVE",
"773 -697 CURVE SMOOTH",
"895 -697 OFFCURVE",
"1125 -671 OFFCURVE",
"1220 -637 CURVE",
"1290 -365 LINE",
"1225 -374 OFFCURVE",
"1064 -415 OFFCURVE",
"863 -415 CURVE SMOOTH",
"561 -415 OFFCURVE",
"392 -308 OFFCURVE",
"392 -121 CURVE SMOOTH",
"392 84 OFFCURVE",
"513 259 OFFCURVE",
"729 370 CURVE",
"826 132 OFFCURVE",
"1004 0 OFFCURVE",
"1232 0 CURVE SMOOTH",
"1338 0 LINE",
"1381 39 OFFCURVE",
"1403 86 OFFCURVE",
"1403 137 CURVE SMOOTH",
"1403 188 OFFCURVE",
"1381 233 OFFCURVE",
"1338 273 CURVE"
);
}
);
width = 1308;
},
{
anchors = (
{
name = bottom;
position = "{461, -898}";
},
{
name = center;
position = "{632, -106}";
},
{
name = top;
position = "{792, 1049}";
}
);
layerId = "020FDE62-5533-4E0C-98E7-097025284E4F";
paths = (
{
closed = 1;
nodes = (
"1093 -444 OFFCURVE",
"882 -496 OFFCURVE",
"651 -496 CURVE SMOOTH",
"373 -496 OFFCURVE",
"173 -401 OFFCURVE",
"248 -162 CURVE SMOOTH",
"324 77 OFFCURVE",
"558 284 OFFCURVE",
"830 390 CURVE",
"836 142 OFFCURVE",
"957 0 OFFCURVE",
"1185 0 CURVE SMOOTH",
"1256 0 LINE",
"1293 32 OFFCURVE",
"1315 64 OFFCURVE",
"1325 96 CURVE SMOOTH",
"1335 128 OFFCURVE",
"1334 159 OFFCURVE",
"1316 191 CURVE",
"1260 191 LINE SMOOTH",
"1137 191 OFFCURVE",
"974 239 OFFCURVE",
"965 434 CURVE",
"1093 478 OFFCURVE",
"1218 480 OFFCURVE",
"1347 483 CURVE SMOOTH",
"1358 483 OFFCURVE",
"1369 490 OFFCURVE",
"1374 499 CURVE SMOOTH",
"1466 638 OFFCURVE",
"1481 658 OFFCURVE",
"1484 670 CURVE SMOOTH",
"1493 698 OFFCURVE",
"1447 696 OFFCURVE",
"1378 696 CURVE SMOOTH",
"1010 696 OFFCURVE",
"908 849 OFFCURVE",
"719 849 CURVE SMOOTH",
"627 849 OFFCURVE",
"545 803 OFFCURVE",
"413 697 CURVE",
"402 689 OFFCURVE",
"401 683 OFFCURVE",
"401 673 CURVE",
"406 583 LINE SMOOTH",
"407 569 OFFCURVE",
"415 562 OFFCURVE",
"427 562 CURVE SMOOTH",
"434 562 OFFCURVE",
"443 565 OFFCURVE",
"452 572 CURVE SMOOTH",
"539 638 OFFCURVE",
"586 660 OFFCURVE",
"634 660 CURVE SMOOTH",
"672 660 OFFCURVE",
"684 655 OFFCURVE",
"946 573 CURVE",
"550 491 OFFCURVE",
"221 157 OFFCURVE",
"116 -175 CURVE SMOOTH",
"-16 -589 OFFCURVE",
"206 -697 OFFCURVE",
"508 -697 CURVE SMOOTH",
"597 -697 OFFCURVE",
"692 -687 OFFCURVE",
"787 -674 CURVE SMOOTH",
"991 -645 OFFCURVE",
"1046 -616 OFFCURVE",
"1143 -481 CURVE",
"1157 -457 OFFCURVE",
"1146 -444 OFFCURVE",
"1125 -444 CURVE SMOOTH"
);
}
);
width = 1250;
},
{
anchors = (
{
name = bottom;
position = "{449, -913}";
},
{
name = center;
position = "{621, -126}";
},
{
name = top;
position = "{779, 1017}";
}
);
layerId = "CC24164E-6342-4A92-AABB-B05B5693BF45";
paths = (
{
closed = 1;
nodes = (
"1079 -474 OFFCURVE",
"879 -527 OFFCURVE",
"645 -527 CURVE SMOOTH",
"313 -527 OFFCURVE",
"161 -399 OFFCURVE",
"234 -177 CURVE SMOOTH",
"315 74 OFFCURVE",
"542 278 OFFCURVE",
"841 390 CURVE",
"845 143 OFFCURVE",
"965 0 OFFCURVE",
"1185 0 CURVE SMOOTH",
"1266 0 LINE",
"1297 28 OFFCURVE",
"1315 53 OFFCURVE",
"1324 81 CURVE SMOOTH",
"1333 109 OFFCURVE",
"1331 133 OFFCURVE",
"1318 161 CURVE",
"1252 161 LINE SMOOTH",
"1128 161 OFFCURVE",
"963 221 OFFCURVE",
"956 427 CURVE",
"1079 462 OFFCURVE",
"1213 483 OFFCURVE",
"1350 483 CURVE SMOOTH",
"1356 483 OFFCURVE",
"1365 486 OFFCURVE",
"1366 489 CURVE",
"1460 622 LINE SMOOTH",
"1489 664 OFFCURVE",
"1476 666 OFFCURVE",
"1417 666 CURVE SMOOTH",
"1373 666 LINE SMOOTH",
"1004 666 OFFCURVE",
"904 819 OFFCURVE",
"715 819 CURVE SMOOTH",
"630 819 OFFCURVE",
"555 782 OFFCURVE",
"417 672 CURVE",
"407 664 OFFCURVE",
"407 657 OFFCURVE",
"409 645 CURVE SMOOTH",
"415 573 LINE",
"419 556 OFFCURVE",
"432 555 OFFCURVE",
"450 568 CURVE SMOOTH",
"540 636 OFFCURVE",
"588 660 OFFCURVE",
"638 660 CURVE SMOOTH",
"678 660 OFFCURVE",
"685 657 OFFCURVE",
"989 561 CURVE",
"985 551 LINE",
"572 486 OFFCURVE",
"227 146 OFFCURVE",
"117 -193 CURVE SMOOTH",
"-3 -564 OFFCURVE",
"160 -696 OFFCURVE",
"501 -696 CURVE SMOOTH",
"584 -696 OFFCURVE",
"678 -688 OFFCURVE",
"781 -674 CURVE SMOOTH",
"984 -646 OFFCURVE",
"1038 -617 OFFCURVE",
"1129 -490 CURVE",
"1128 -491 LINE",
"1134 -480 OFFCURVE",
"1129 -474 OFFCURVE",
"1113 -474 CURVE SMOOTH"
);
}
);
width = 1246;
},
{
anchors = (
{
name = bottom;
position = "{605, -898}";
},
{
name = center;
position = "{650, -106}";
},
{
name = top;
position = "{627, 1049}";
}
);
associatedMasterId = "00FED3EE-B3F5-49E6-B91A-35FC52169726";
layerId = "A59E3E2D-B48C-4CDD-836A-A1E73DB51526";
paths = (
{
closed = 1;
nodes = (
"1165 -444 OFFCURVE",
"962 -496 OFFCURVE",
"731 -496 CURVE SMOOTH",
"453 -496 OFFCURVE",
"238 -401 OFFCURVE",
"275 -162 CURVE SMOOTH",
"313 77 OFFCURVE",
"514 284 OFFCURVE",
"769 390 CURVE",
"815 142 OFFCURVE",
"958 0 OFFCURVE",
"1186 0 CURVE SMOOTH",
"1257 0 LINE",
"1289 32 OFFCURVE",
"1306 64 OFFCURVE",
"1311 96 CURVE SMOOTH",
"1316 128 OFFCURVE",
"1310 159 OFFCURVE",
"1287 191 CURVE",
"1231 191 LINE SMOOTH",
"1108 191 OFFCURVE",
"937 239 OFFCURVE",
"897 434 CURVE",
"1019 478 OFFCURVE",
"1143 480 OFFCURVE",
"1271 483 CURVE SMOOTH",
"1282 483 OFFCURVE",
"1292 490 OFFCURVE",
"1296 499 CURVE SMOOTH",
"1366 638 OFFCURVE",
"1378 658 OFFCURVE",
"1379 670 CURVE SMOOTH",
"1384 698 OFFCURVE",
"1338 696 OFFCURVE",
"1269 696 CURVE SMOOTH",
"901 696 OFFCURVE",
"775 849 OFFCURVE",
"586 849 CURVE SMOOTH",
"494 849 OFFCURVE",
"419 803 OFFCURVE",
"304 697 CURVE",
"294 689 OFFCURVE",
"294 683 OFFCURVE",
"295 673 CURVE",
"315 583 LINE SMOOTH",
"318 569 OFFCURVE",
"327 562 OFFCURVE",
"339 562 CURVE SMOOTH",
"346 562 OFFCURVE",
"355 565 OFFCURVE",
"363 572 CURVE SMOOTH",
"439 638 OFFCURVE",
"483 660 OFFCURVE",
"531 660 CURVE SMOOTH",
"569 660 OFFCURVE",
"581 655 OFFCURVE",
"856 573 CURVE",
"473 491 OFFCURVE",
"197 157 OFFCURVE",
"145 -175 CURVE SMOOTH",
"79 -589 OFFCURVE",
"318 -697 OFFCURVE",
"620 -697 CURVE SMOOTH",
"709 -697 OFFCURVE",
"802 -687 OFFCURVE",
"895 -674 CURVE SMOOTH",
"1095 -645 OFFCURVE",
"1145 -616 OFFCURVE",
"1221 -481 CURVE",
"1231 -457 OFFCURVE",
"1218 -444 OFFCURVE",
"1197 -444 CURVE SMOOTH"
);
}
);
width = 1249;
},
{
anchors = (
{
name = bottom;
position = "{477, -912}";
},
{
name = center;
position = "{724, -90}";
},
{
name = top;
position = "{865, 1143}";
}
);
layerId = "A4A63F56-930B-4BA2-9E35-208CEDD14325";
paths = (
{
closed = 1;
nodes = (
"1336 273 LINE SMOOTH",
"1193 273 OFFCURVE",
"1103 335 OFFCURVE",
"1080 445 CURVE",
"1184 469 OFFCURVE",
"1293 482 OFFCURVE",
"1403 483 CURVE",
"1570 775 LINE",
"1421 779 LINE SMOOTH",
"1103 788 OFFCURVE",
"996 931 OFFCURVE",
"798 931 CURVE SMOOTH",
"721 931 OFFCURVE",
"585 861 OFFCURVE",
"454 754 CURVE",
"505 554 LINE",
"620 631 OFFCURVE",
"658 660 OFFCURVE",
"705 660 CURVE SMOOTH",
"750 660 OFFCURVE",
"758 659 OFFCURVE",
"876 612 CURVE",
"535 487 OFFCURVE",
"234 189 OFFCURVE",
"128 -137 CURVE SMOOTH",
"7 -510 OFFCURVE",
"147 -697 OFFCURVE",
"547 -697 CURVE SMOOTH",
"669 -697 OFFCURVE",
"907 -671 OFFCURVE",
"1013 -637 CURVE",
"1171 -365 LINE",
"1103 -374 OFFCURVE",
"929 -415 OFFCURVE",
"728 -415 CURVE SMOOTH",
"426 -415 OFFCURVE",
"292 -308 OFFCURVE",
"353 -121 CURVE SMOOTH",
"419 84 OFFCURVE",
"597 259 OFFCURVE",
"849 370 CURVE",
"869 132 OFFCURVE",
"1004 0 OFFCURVE",
"1232 0 CURVE SMOOTH",
"1338 0 LINE",
"1394 39 OFFCURVE",
"1431 86 OFFCURVE",
"1447 137 CURVE SMOOTH",
"1464 188 OFFCURVE",
"1457 233 OFFCURVE",
"1427 273 CURVE"
);
}
);
width = 1307;
}
);
unicode = FEA2;
},
{
glyphname = "hah-ar.medi";
lastChange = "2017-08-20 16:18:04 +0000";
layers = (
{
anchors = (
{
name = bottom;
position = "{770, -132}";
},
{
name = top;
position = "{516, 968}";
}
);
layerId = "93A312F7-B931-4485-B08E-C367313EB5E7";
paths = (
{
closed = 1;
nodes = (
"352 0 OFFCURVE",
"679 146 OFFCURVE",
"964 253 CURVE SMOOTH",
"1012 271 OFFCURVE",
"1056 286 OFFCURVE",
"1095 298 CURVE",
"1193 141 OFFCURVE",
"1303 0 OFFCURVE",
"1561 0 CURVE SMOOTH",
"1627 0 LINE",
"1675 60 OFFCURVE",
"1675 119 OFFCURVE",
"1627 179 CURVE",
"1561 179 LINE SMOOTH",
"1402 179 OFFCURVE",
"1306 236 OFFCURVE",
"1245 328 CURVE",
"1312 335 OFFCURVE",
"1373 331 OFFCURVE",
"1446 323 CURVE SMOOTH",
"1456 322 OFFCURVE",
"1462 328 OFFCURVE",
"1465 337 CURVE SMOOTH",
"1521 508 LINE SMOOTH",
"1525 521 OFFCURVE",
"1520 529 OFFCURVE",
"1506 528 CURVE SMOOTH",
"1264 516 OFFCURVE",
"1068 603 OFFCURVE",
"852 690 CURVE SMOOTH",
"561 807 OFFCURVE",
"454 844 OFFCURVE",
"268 643 CURVE SMOOTH",
"261 635 OFFCURVE",
"261 629 OFFCURVE",
"263 620 CURVE SMOOTH",
"298 508 LINE SMOOTH",
"302 496 OFFCURVE",
"311 494 OFFCURVE",
"321 504 CURVE SMOOTH",
"399 587 OFFCURVE",
"442 618 OFFCURVE",
"503 618 CURVE SMOOTH",
"623 618 OFFCURVE",
"887 476 OFFCURVE",
"1074 435 CURVE",
"833 368 OFFCURVE",
"439 179 OFFCURVE",
"0 179 CURVE SMOOTH",
"-20 179 LINE SMOOTH",
"-138 179 OFFCURVE",
"-138 0 OFFCURVE",
"-20 0 CURVE SMOOTH",
"0 0 LINE SMOOTH"
);
}
);
width = 1607;
},
{
anchors = (
{
name = bottom;
position = "{843, -15}";
},
{
name = top;
position = "{505, 951}";
}
);
layerId = "00FED3EE-B3F5-49E6-B91A-35FC52169726";
paths = (
{
closed = 1;
nodes = (
"1499 161 LINE SMOOTH",
"1359 161 OFFCURVE",
"1229 212 OFFCURVE",
"1160 321 CURVE",
"1196 324 OFFCURVE",
"1260 326 OFFCURVE",
"1294 326 CURVE SMOOTH",
"1324 326 OFFCURVE",
"1354 325 OFFCURVE",
"1388 322 CURVE SMOOTH",
"1398 321 OFFCURVE",
"1404 325 OFFCURVE",
"1407 332 CURVE",
"1463 490 LINE",
"1372 491 LINE SMOOTH",
"1000 495 OFFCURVE",
"737 750 OFFCURVE",
"503 750 CURVE SMOOTH",
"422 750 OFFCURVE",
"350 708 OFFCURVE",
"258 609 CURVE",
"284 484 LINE",
"285 474 OFFCURVE",
"302 476 OFFCURVE",
"308 482 CURVE SMOOTH",
"389 567 OFFCURVE",
"429 593 OFFCURVE",
"483 593 CURVE SMOOTH",
"596 593 OFFCURVE",
"881 457 OFFCURVE",
"1059 417 CURVE",
"1059 407 LINE",
"829 343 OFFCURVE",
"420 161 OFFCURVE",
"20 161 CURVE SMOOTH",
"-20 161 LINE SMOOTH",
"-71 161 OFFCURVE",
"-105 129 OFFCURVE",
"-105 81 CURVE SMOOTH",
"-105 33 OFFCURVE",
"-71 0 OFFCURVE",
"-20 0 CURVE SMOOTH",
"20 0 LINE SMOOTH",
"400 0 OFFCURVE",
"849 223 OFFCURVE",
"1050 285 CURVE",
"1142 136 OFFCURVE",
"1248 0 OFFCURVE",
"1499 0 CURVE SMOOTH",
"1564 0 LINE",
"1586 28 OFFCURVE",
"1596 53 OFFCURVE",
"1596 81 CURVE SMOOTH",
"1596 109 OFFCURVE",
"1586 133 OFFCURVE",
"1564 161 CURVE"
);
}
);
width = 1544;
},
{
anchors = (
{
name = bottom;
position = "{788, -29}";
},
{
name = top;
position = "{515, 977}";
}
);
layerId = "E3174D42-D779-465D-8194-70AED922C337";
paths = (
{
closed = 1;
nodes = (
"1499 191 LINE SMOOTH",
"1367 191 OFFCURVE",
"1275 237 OFFCURVE",
"1212 323 CURVE",
"1240 325 OFFCURVE",
"1267 326 OFFCURVE",
"1294 326 CURVE SMOOTH",
"1324 326 OFFCURVE",
"1354 325 OFFCURVE",
"1387 322 CURVE SMOOTH",
"1401 321 OFFCURVE",
"1410 328 OFFCURVE",
"1415 342 CURVE SMOOTH",
"1470 494 LINE",
"1471 498 OFFCURVE",
"1472 502 OFFCURVE",
"1472 505 CURVE SMOOTH",
"1472 527 OFFCURVE",
"1437 525 OFFCURVE",
"1393 525 CURVE SMOOTH",
"1021 525 OFFCURVE",
"738 780 OFFCURVE",
"503 780 CURVE SMOOTH",
"417 780 OFFCURVE",
"343 733 OFFCURVE",
"251 634 CURVE",
"241 622 OFFCURVE",
"240 616 OFFCURVE",
"243 603 CURVE",
"276 494 LINE",
"280 483 OFFCURVE",
"288 477 OFFCURVE",
"297 477 CURVE SMOOTH",
"302 477 OFFCURVE",
"309 480 OFFCURVE",
"315 487 CURVE",
"393 569 OFFCURVE",
"431 593 OFFCURVE",
"483 593 CURVE SMOOTH",
"588 593 OFFCURVE",
"845 474 OFFCURVE",
"1021 426 CURVE",
"788 355 OFFCURVE",
"399 191 OFFCURVE",
"10 191 CURVE SMOOTH",
"-10 191 LINE SMOOTH",
"-74 191 OFFCURVE",
"-104 143 OFFCURVE",
"-104 96 CURVE SMOOTH",
"-104 49 OFFCURVE",
"-74 0 OFFCURVE",
"-10 0 CURVE SMOOTH",
"10 0 LINE SMOOTH",
"397 0 OFFCURVE",
"841 219 OFFCURVE",
"1047 284 CURVE",
"1140 135 OFFCURVE",
"1250 0 OFFCURVE",
"1499 0 CURVE SMOOTH",
"1554 0 LINE",
"1581 32 OFFCURVE",
"1593 64 OFFCURVE",
"1593 96 CURVE SMOOTH",
"1593 128 OFFCURVE",
"1581 159 OFFCURVE",
"1554 191 CURVE"
);
}
);
width = 1544;
},
{
anchors = (
{
name = bottom;
position = "{799, -10}";
},
{
name = top;
position = "{502, 1013}";
}
);
layerId = "AB6A8399-B57F-40CA-845C-76C4C0121470";
paths = (
{
closed = 1;
nodes = (
"1499 223 LINE SMOOTH",
"1388 223 OFFCURVE",
"1308 255 OFFCURVE",
"1247 325 CURVE",
"1278 327 OFFCURVE",
"1350 325 OFFCURVE",
"1383 322 CURVE",
"1458 567 LINE",
"1403 567 LINE SMOOTH",
"1038 567 OFFCURVE",
"747 812 OFFCURVE",
"503 812 CURVE SMOOTH",
"428 812 OFFCURVE",
"324 757 OFFCURVE",
"239 683 CURVE",
"303 476 LINE",
"373 543 OFFCURVE",
"441 593 OFFCURVE",
"483 593 CURVE SMOOTH",
"573 593 OFFCURVE",
"792 496 OFFCURVE",
"965 441 CURVE",
"727 364 OFFCURVE",
"382 223 OFFCURVE",
"15 223 CURVE SMOOTH",
"-15 223 LINE SMOOTH",
"-75 223 OFFCURVE",
"-120 172 OFFCURVE",
"-120 112 CURVE SMOOTH",
"-120 52 OFFCURVE",
"-75 0 OFFCURVE",
"-15 0 CURVE SMOOTH",
"15 0 LINE SMOOTH",
"408 0 OFFCURVE",
"827 210 OFFCURVE",
"1037 280 CURVE",
"1129 136 OFFCURVE",
"1246 0 OFFCURVE",
"1499 0 CURVE SMOOTH",
"1574 0 LINE",
"1609 35 OFFCURVE",
"1624 72 OFFCURVE",
"1624 112 CURVE SMOOTH",
"1624 152 OFFCURVE",
"1609 188 OFFCURVE",
"1574 223 CURVE"
);
}
);
width = 1559;
},
{
anchors = (
{
name = bottom;
position = "{901, 29}";
},
{
name = top;
position = "{520, 1064}";
}
);
layerId = "EAE1A523-EADE-4FB1-A034-E66E80F3AE4F";
paths = (
{
closed = 1;
nodes = (
"1514 273 LINE SMOOTH",
"1355 273 OFFCURVE",
"1294 300 OFFCURVE",
"1245 335 CURVE",
"1454 340 LINE",
"1507 617 LINE",
"1418 617 LINE SMOOTH",
"1061 617 OFFCURVE",
"771 862 OFFCURVE",
"518 862 CURVE SMOOTH",
"438 862 OFFCURVE",
"323 805 OFFCURVE",
"225 716 CURVE",
"306 454 LINE",
"394 543 OFFCURVE",
"464 593 OFFCURVE",
"498 593 CURVE SMOOTH",
"571 593 OFFCURVE",
"743 521 OFFCURVE",
"901 466 CURVE",
"668 387 OFFCURVE",
"357 273 OFFCURVE",
"30 273 CURVE SMOOTH",
"-30 273 LINE SMOOTH",
"-102 273 OFFCURVE",
"-160 212 OFFCURVE",
"-160 137 CURVE SMOOTH",
"-160 61 OFFCURVE",
"-102 0 OFFCURVE",
"-30 0 CURVE SMOOTH",
"30 0 LINE SMOOTH",
"417 0 OFFCURVE",
"827 200 OFFCURVE",
"1042 275 CURVE",
"1134 135 OFFCURVE",
"1260 0 OFFCURVE",
"1514 0 CURVE SMOOTH",
"1604 0 LINE",
"1647 39 OFFCURVE",
"1669 86 OFFCURVE",
"1669 137 CURVE SMOOTH",
"1669 188 OFFCURVE",
"1647 233 OFFCURVE",
"1604 273 CURVE"
);
}
);
width = 1574;
},
{
anchors = (
{
name = bottom;
position = "{779, -29}";
},
{
name = top;
position = "{826, 1017}";
}
);
layerId = "020FDE62-5533-4E0C-98E7-097025284E4F";
paths = (
{
closed = 1;
nodes = (
"1560 191 LINE SMOOTH",
"1428 191 OFFCURVE",
"1350 237 OFFCURVE",
"1315 323 CURVE",
"1343 325 OFFCURVE",
"1370 326 OFFCURVE",
"1397 326 CURVE SMOOTH",
"1427 326 OFFCURVE",
"1457 325 OFFCURVE",
"1490 322 CURVE SMOOTH",
"1503 321 OFFCURVE",
"1514 328 OFFCURVE",
"1524 342 CURVE SMOOTH",
"1627 494 LINE",
"1629 498 OFFCURVE",
"1632 502 OFFCURVE",
"1632 505 CURVE SMOOTH",
"1639 527 OFFCURVE",
"1604 525 OFFCURVE",
"1560 525 CURVE SMOOTH",
"1188 525 OFFCURVE",
"986 780 OFFCURVE",
"751 780 CURVE SMOOTH",
"665 780 OFFCURVE",
"576 733 OFFCURVE",
"453 634 CURVE",
"438 622 OFFCURVE",
"436 616 OFFCURVE",
"434 603 CURVE",
"433 494 LINE",
"434 483 OFFCURVE",
"439 477 OFFCURVE",
"448 477 CURVE SMOOTH",
"453 477 OFFCURVE",
"461 480 OFFCURVE",
"470 487 CURVE",
"574 569 OFFCURVE",
"619 593 OFFCURVE",
"671 593 CURVE SMOOTH",
"776 593 OFFCURVE",
"996 474 OFFCURVE",
"1157 426 CURVE",
"901 355 OFFCURVE",
"460 191 OFFCURVE",
"71 191 CURVE SMOOTH",
"51 191 LINE SMOOTH",
"-13 191 OFFCURVE",
"-59 143 OFFCURVE",
"-73 96 CURVE SMOOTH",
"-88 49 OFFCURVE",
"-74 0 OFFCURVE",
"-10 0 CURVE SMOOTH",
"10 0 LINE SMOOTH",
"397 0 OFFCURVE",
"911 219 OFFCURVE",
"1137 284 CURVE",
"1183 135 OFFCURVE",
"1250 0 OFFCURVE",
"1499 0 CURVE SMOOTH",
"1554 0 LINE",
"1591 32 OFFCURVE",
"1614 64 OFFCURVE",
"1624 96 CURVE SMOOTH",
"1633 128 OFFCURVE",
"1632 159 OFFCURVE",
"1615 191 CURVE"
);
}
);
width = 1544;
},
{
anchors = (
{
name = bottom;
position = "{808, -15}";
},
{
name = top;
position = "{814, 951}";
}
);
layerId = "CC24164E-6342-4A92-AABB-B05B5693BF45";
paths = (
{
closed = 1;
nodes = (
"1551 161 LINE SMOOTH",
"1411 161 OFFCURVE",
"1298 212 OFFCURVE",
"1264 321 CURVE",
"1301 324 OFFCURVE",
"1366 326 OFFCURVE",
"1400 326 CURVE SMOOTH",
"1430 326 OFFCURVE",
"1460 325 OFFCURVE",
"1493 322 CURVE SMOOTH",
"1502 321 OFFCURVE",
"1510 325 OFFCURVE",
"1515 332 CURVE",
"1622 490 LINE",
"1532 491 LINE SMOOTH",
"1161 495 OFFCURVE",
"981 750 OFFCURVE",
"747 750 CURVE SMOOTH",
"666 750 OFFCURVE",
"580 708 OFFCURVE",
"456 609 CURVE",
"441 484 LINE",
"439 474 OFFCURVE",
"457 476 OFFCURVE",
"465 482 CURVE SMOOTH",
"573 567 OFFCURVE",
"622 593 OFFCURVE",
"676 593 CURVE SMOOTH",
"789 593 OFFCURVE",
"1030 457 OFFCURVE",
"1195 417 CURVE",
"1191 407 LINE",
"941 343 OFFCURVE",
"472 161 OFFCURVE",
"72 161 CURVE SMOOTH",
"32 161 LINE SMOOTH",
"-19 161 OFFCURVE",
"-63 129 OFFCURVE",
"-79 81 CURVE SMOOTH",
"-94 33 OFFCURVE",
"-71 0 OFFCURVE",
"-20 0 CURVE SMOOTH",
"20 0 LINE SMOOTH",
"400 0 OFFCURVE",
"922 223 OFFCURVE",
"1143 285 CURVE",
"1186 136 OFFCURVE",
"1248 0 OFFCURVE",
"1499 0 CURVE SMOOTH",
"1564 0 LINE",
"1595 28 OFFCURVE",
"1613 53 OFFCURVE",
"1622 81 CURVE SMOOTH",
"1632 109 OFFCURVE",
"1629 133 OFFCURVE",
"1616 161 CURVE"
);
}
);
width = 1544;
},
{
anchors = (
{
name = bottom;
position = "{784, -29}";
},
{
name = top;
position = "{671, 997}";
}
);
associatedMasterId = "00FED3EE-B3F5-49E6-B91A-35FC52169726";
layerId = "A59E3E2D-B48C-4CDD-836A-A1E73DB51526";
paths = (
{
closed = 1;
nodes = (
"1530 191 LINE SMOOTH",
"1398 191 OFFCURVE",
"1313 237 OFFCURVE",
"1264 323 CURVE",
"1292 325 OFFCURVE",
"1319 326 OFFCURVE",
"1346 326 CURVE SMOOTH",
"1376 326 OFFCURVE",
"1406 325 OFFCURVE",
"1439 322 CURVE SMOOTH",
"1452 321 OFFCURVE",
"1462 328 OFFCURVE",
"1470 342 CURVE SMOOTH",
"1549 494 LINE",
"1550 498 OFFCURVE",
"1552 502 OFFCURVE",
"1552 505 CURVE SMOOTH",
"1556 527 OFFCURVE",
"1521 525 OFFCURVE",
"1477 525 CURVE SMOOTH",
"1105 525 OFFCURVE",
"862 780 OFFCURVE",
"627 780 CURVE SMOOTH",
"541 780 OFFCURVE",
"460 733 OFFCURVE",
"352 634 CURVE",
"340 622 OFFCURVE",
"338 616 OFFCURVE",
"339 603 CURVE",
"355 494 LINE",
"357 483 OFFCURVE",
"364 477 OFFCURVE",
"373 477 CURVE SMOOTH",
"378 477 OFFCURVE",
"385 480 OFFCURVE",
"393 487 CURVE",
"484 569 OFFCURVE",
"525 593 OFFCURVE",
"577 593 CURVE SMOOTH",
"682 593 OFFCURVE",
"921 474 OFFCURVE",
"1089 426 CURVE",
"845 355 OFFCURVE",
"430 191 OFFCURVE",
"41 191 CURVE SMOOTH",
"21 191 LINE SMOOTH",
"-44 191 OFFCURVE",
"-82 143 OFFCURVE",
"-89 96 CURVE SMOOTH",
"-96 49 OFFCURVE",
"-74 0 OFFCURVE",
"-10 0 CURVE SMOOTH",
"10 0 LINE SMOOTH",
"397 0 OFFCURVE",
"876 219 OFFCURVE",
"1092 284 CURVE",
"1162 135 OFFCURVE",
"1250 0 OFFCURVE",
"1499 0 CURVE SMOOTH",
"1554 0 LINE",
"1586 32 OFFCURVE",
"1604 64 OFFCURVE",
"1609 96 CURVE SMOOTH",
"1613 128 OFFCURVE",
"1607 159 OFFCURVE",
"1585 191 CURVE"
);
}
);
width = 1544;
},
{
anchors = (
{
name = bottom;
position = "{911, 29}";
},
{
name = top;
position = "{867, 1064}";
}
);
layerId = "A4A63F56-930B-4BA2-9E35-208CEDD14325";
paths = (
{
closed = 1;
nodes = (
"1604 273 LINE SMOOTH",
"1445 273 OFFCURVE",
"1392 300 OFFCURVE",
"1355 335 CURVE",
"1565 340 LINE",
"1708 617 LINE",
"1619 617 LINE SMOOTH",
"1262 617 OFFCURVE",
"1052 862 OFFCURVE",
"799 862 CURVE SMOOTH",
"719 862 OFFCURVE",
"586 805 OFFCURVE",
"459 716 CURVE",
"454 454 LINE",
"571 543 OFFCURVE",
"658 593 OFFCURVE",
"692 593 CURVE SMOOTH",
"765 593 OFFCURVE",
"913 521 OFFCURVE",
"1053 466 CURVE",
"795 387 OFFCURVE",
"447 273 OFFCURVE",
"120 273 CURVE SMOOTH",
"60 273 LINE SMOOTH",
"-12 273 OFFCURVE",
"-90 212 OFFCURVE",
"-115 137 CURVE SMOOTH",
"-139 61 OFFCURVE",
"-101 0 OFFCURVE",
"-29 0 CURVE SMOOTH",
"31 0 LINE SMOOTH",
"418 0 OFFCURVE",
"893 200 OFFCURVE",
"1132 275 CURVE",
"1179 135 OFFCURVE",
"1261 0 OFFCURVE",
"1515 0 CURVE SMOOTH",
"1605 0 LINE",
"1661 39 OFFCURVE",
"1698 86 OFFCURVE",
"1714 137 CURVE SMOOTH",
"1731 188 OFFCURVE",
"1724 233 OFFCURVE",
"1694 273 CURVE"
);
}
);
width = 1574;
}
);
unicode = FEA4;
},
{
glyphname = "hah-ar.init";
lastChange = "2017-08-20 16:18:13 +0000";
layers = (
{
anchors = (
{
name = bottom;
position = "{719, -151}";
},
{
name = top;
position = "{508, 973}";
}
);
layerId = "93A312F7-B931-4485-B08E-C367313EB5E7";
paths = (
{
closed = 1;
nodes = (
"340 0 OFFCURVE",
"679 146 OFFCURVE",
"964 253 CURVE SMOOTH",
"1188 338 OFFCURVE",
"1291 340 OFFCURVE",
"1446 323 CURVE SMOOTH",
"1456 323 OFFCURVE",
"1462 328 OFFCURVE",
"1465 337 CURVE SMOOTH",
"1521 508 LINE SMOOTH",
"1525 521 OFFCURVE",
"1520 528 OFFCURVE",
"1506 528 CURVE SMOOTH",
"1264 516 OFFCURVE",
"1068 603 OFFCURVE",
"852 690 CURVE SMOOTH",
"561 807 OFFCURVE",
"454 856 OFFCURVE",
"268 643 CURVE SMOOTH",
"261 635 OFFCURVE",
"261 629 OFFCURVE",
"263 620 CURVE SMOOTH",
"298 508 LINE SMOOTH",
"301 496 OFFCURVE",
"312 493 OFFCURVE",
"321 504 CURVE SMOOTH",
"399 587 OFFCURVE",
"442 618 OFFCURVE",
"503 618 CURVE SMOOTH",
"623 618 OFFCURVE",
"887 476 OFFCURVE",
"1074 435 CURVE",
"833 368 OFFCURVE",
"439 179 OFFCURVE",
"0 179 CURVE SMOOTH",
"-20 179 LINE SMOOTH",
"-138 179 OFFCURVE",
"-138 0 OFFCURVE",
"-20 0 CURVE SMOOTH",
"0 0 LINE SMOOTH"
);
}
);
width = 1661;
},
{
anchors = (
{
name = bottom;
position = "{593, -73}";
},
{
name = top;
position = "{516, 957}";
}
);
layerId = "00FED3EE-B3F5-49E6-B91A-35FC52169726";
paths = (
{
closed = 1;
nodes = (
"1017 495 OFFCURVE",
"746 750 OFFCURVE",
"512 750 CURVE SMOOTH",
"428 750 OFFCURVE",
"346 706 OFFCURVE",
"258 609 CURVE SMOOTH",
"249 599 OFFCURVE",
"249 599 OFFCURVE",
"252 591 CURVE",
"285 483 LINE SMOOTH",
"288 472 OFFCURVE",
"300 474 OFFCURVE",
"309 483 CURVE SMOOTH",
"396 570 OFFCURVE",
"429 593 OFFCURVE",
"483 593 CURVE SMOOTH",
"596 593 OFFCURVE",
"881 457 OFFCURVE",
"1059 417 CURVE",
"1059 407 LINE",
"829 343 OFFCURVE",
"420 161 OFFCURVE",
"20 161 CURVE SMOOTH",
"-20 161 LINE SMOOTH",
"-71 161 OFFCURVE",
"-105 129 OFFCURVE",
"-105 81 CURVE SMOOTH",
"-105 33 OFFCURVE",
"-71 0 OFFCURVE",
"-20 0 CURVE SMOOTH",
"20 0 LINE SMOOTH",
"327 0 OFFCURVE",
"655 141 OFFCURVE",
"926 243 CURVE SMOOTH",
"1091 305 OFFCURVE",
"1186 326 OFFCURVE",
"1287 326 CURVE SMOOTH",
"1318 326 OFFCURVE",
"1351 325 OFFCURVE",
"1387 321 CURVE SMOOTH",
"1397 320 OFFCURVE",
"1403 324 OFFCURVE",
"1406 331 CURVE",
"1462 485 LINE",
"1464 496 OFFCURVE",
"1449 495 OFFCURVE",
"1393 495 CURVE SMOOTH"
);
}
);
width = 1602;
},
{
anchors = (
{
name = bottom;
position = "{645, -70}";
},
{
name = top;
position = "{516, 972}";
}
);
layerId = "E3174D42-D779-465D-8194-70AED922C337";
paths = (
{
closed = 1;
nodes = (
"1018 525 OFFCURVE",
"747 780 OFFCURVE",
"512 780 CURVE SMOOTH",
"425 780 OFFCURVE",
"343 733 OFFCURVE",
"251 634 CURVE",
"241 622 OFFCURVE",
"240 616 OFFCURVE",
"243 603 CURVE",
"276 494 LINE SMOOTH",
"279 484 OFFCURVE",
"288 478 OFFCURVE",
"297 478 CURVE SMOOTH",
"302 478 OFFCURVE",
"310 481 OFFCURVE",
"316 488 CURVE",
"393 569 OFFCURVE",
"431 593 OFFCURVE",
"483 593 CURVE SMOOTH",
"588 593 OFFCURVE",
"845 474 OFFCURVE",
"1021 426 CURVE",
"788 355 OFFCURVE",
"399 191 OFFCURVE",
"10 191 CURVE SMOOTH",
"-10 191 LINE SMOOTH",
"-74 191 OFFCURVE",
"-104 143 OFFCURVE",
"-104 96 CURVE SMOOTH",
"-104 49 OFFCURVE",
"-74 0 OFFCURVE",
"-10 0 CURVE SMOOTH",
"10 0 LINE SMOOTH",
"328 0 OFFCURVE",
"656 141 OFFCURVE",
"929 244 CURVE SMOOTH",
"1092 304 OFFCURVE",
"1187 326 OFFCURVE",
"1287 326 CURVE SMOOTH",
"1318 326 OFFCURVE",
"1351 324 OFFCURVE",
"1386 321 CURVE SMOOTH",
"1400 320 OFFCURVE",
"1409 327 OFFCURVE",
"1414 341 CURVE SMOOTH",
"1470 494 LINE",
"1471 498 OFFCURVE",
"1472 502 OFFCURVE",
"1472 505 CURVE SMOOTH",
"1472 527 OFFCURVE",
"1437 525 OFFCURVE",
"1393 525 CURVE SMOOTH"
);
}
);
width = 1607;
},
{
anchors = (
{
name = bottom;
position = "{650, -58}";
},
{
name = top;
position = "{506, 1013}";
}
);
layerId = "AB6A8399-B57F-40CA-845C-76C4C0121470";
paths = (
{
closed = 1;
nodes = (
"1038 567 OFFCURVE",
"747 812 OFFCURVE",
"503 812 CURVE SMOOTH",
"428 812 OFFCURVE",
"324 757 OFFCURVE",
"239 683 CURVE",
"303 476 LINE",
"373 543 OFFCURVE",
"441 593 OFFCURVE",
"483 593 CURVE SMOOTH",
"573 593 OFFCURVE",
"792 496 OFFCURVE",
"965 441 CURVE",
"727 364 OFFCURVE",
"382 223 OFFCURVE",
"15 223 CURVE SMOOTH",
"-15 223 LINE SMOOTH",
"-75 223 OFFCURVE",
"-120 172 OFFCURVE",
"-120 112 CURVE SMOOTH",
"-120 52 OFFCURVE",
"-75 0 OFFCURVE",
"-15 0 CURVE SMOOTH",
"15 0 LINE SMOOTH",
"408 0 OFFCURVE",
"827 211 OFFCURVE",
"1037 280 CURVE SMOOTH",
"1149 317 OFFCURVE",
"1350 325 OFFCURVE",
"1383 322 CURVE",
"1458 567 LINE",
"1403 567 LINE SMOOTH"
);
}
);
width = 1598;
},
{
anchors = (
{
name = bottom;
position = "{611, -41}";
},
{
name = top;
position = "{518, 1064}";
}
);
layerId = "EAE1A523-EADE-4FB1-A034-E66E80F3AE4F";
paths = (
{
closed = 1;
nodes = (
"30 0 LINE SMOOTH",
"428 0 OFFCURVE",
"851 212 OFFCURVE",
"1060 281 CURVE SMOOTH",
"1169 317 OFFCURVE",
"1384 325 OFFCURVE",
"1416 322 CURVE",
"1507 617 LINE",
"1418 617 LINE SMOOTH",
"1061 617 OFFCURVE",
"771 862 OFFCURVE",
"518 862 CURVE SMOOTH",
"438 862 OFFCURVE",
"323 805 OFFCURVE",
"225 716 CURVE",
"306 454 LINE",
"394 543 OFFCURVE",
"464 593 OFFCURVE",
"498 593 CURVE SMOOTH",
"571 593 OFFCURVE",
"743 521 OFFCURVE",
"901 466 CURVE",
"668 387 OFFCURVE",
"357 273 OFFCURVE",
"30 273 CURVE SMOOTH",
"-30 273 LINE SMOOTH",
"-102 273 OFFCURVE",
"-160 212 OFFCURVE",
"-160 137 CURVE SMOOTH",
"-160 61 OFFCURVE",
"-102 0 OFFCURVE",
"-30 0 CURVE SMOOTH"
);
}
);
width = 1642;
},
{
anchors = (
{
name = bottom;
position = "{598, -110}";
},
{
name = top;
position = "{815, 972}";
}
);
layerId = "020FDE62-5533-4E0C-98E7-097025284E4F";
paths = (
{
closed = 1;
nodes = (
"1185 525 OFFCURVE",
"995 780 OFFCURVE",
"760 780 CURVE SMOOTH",
"673 780 OFFCURVE",
"576 733 OFFCURVE",
"453 634 CURVE",
"438 622 OFFCURVE",
"436 616 OFFCURVE",
"434 603 CURVE",
"433 494 LINE SMOOTH",
"433 484 OFFCURVE",
"440 478 OFFCURVE",
"449 478 CURVE SMOOTH",
"454 478 OFFCURVE",
"463 481 OFFCURVE",
"471 488 CURVE",
"574 569 OFFCURVE",
"619 593 OFFCURVE",
"671 593 CURVE SMOOTH",
"776 593 OFFCURVE",
"996 474 OFFCURVE",
"1157 426 CURVE",
"901 355 OFFCURVE",
"460 191 OFFCURVE",
"71 191 CURVE SMOOTH",
"51 191 LINE SMOOTH",
"-13 191 OFFCURVE",
"-59 143 OFFCURVE",
"-73 96 CURVE SMOOTH",
"-88 49 OFFCURVE",
"-74 0 OFFCURVE",
"-10 0 CURVE SMOOTH",
"10 0 LINE SMOOTH",
"328 0 OFFCURVE",
"701 141 OFFCURVE",
"1007 244 CURVE SMOOTH",
"1189 304 OFFCURVE",
"1290 326 OFFCURVE",
"1390 326 CURVE SMOOTH",
"1421 326 OFFCURVE",
"1454 324 OFFCURVE",
"1488 321 CURVE SMOOTH",
"1502 320 OFFCURVE",
"1513 327 OFFCURVE",
"1523 341 CURVE SMOOTH",
"1627 494 LINE",
"1629 498 OFFCURVE",
"1632 502 OFFCURVE",
"1632 505 CURVE SMOOTH",
"1639 527 OFFCURVE",
"1604 525 OFFCURVE",
"1560 525 CURVE SMOOTH"
);
}
);
width = 1603;
},
{
anchors = (
{
name = bottom;
position = "{569, -73}";
},
{
name = top;
position = "{827, 957}";
}
);
layerId = "CC24164E-6342-4A92-AABB-B05B5693BF45";
paths = (
{
closed = 1;
nodes = (
"1178 495 OFFCURVE",
"990 750 OFFCURVE",
"756 750 CURVE SMOOTH",
"672 750 OFFCURVE",
"576 706 OFFCURVE",
"456 609 CURVE SMOOTH",
"444 599 OFFCURVE",
"444 599 OFFCURVE",
"444 591 CURVE",
"442 483 LINE SMOOTH",
"442 472 OFFCURVE",
"454 474 OFFCURVE",
"466 483 CURVE SMOOTH",
"581 570 OFFCURVE",
"622 593 OFFCURVE",
"676 593 CURVE SMOOTH",
"789 593 OFFCURVE",
"1030 457 OFFCURVE",
"1195 417 CURVE",
"1191 407 LINE",
"941 343 OFFCURVE",
"472 161 OFFCURVE",
"72 161 CURVE SMOOTH",
"32 161 LINE SMOOTH",
"-19 161 OFFCURVE",
"-63 129 OFFCURVE",
"-79 81 CURVE SMOOTH",
"-94 33 OFFCURVE",
"-71 0 OFFCURVE",
"-20 0 CURVE SMOOTH",
"20 0 LINE SMOOTH",
"327 0 OFFCURVE",
"701 141 OFFCURVE",
"1005 243 CURVE SMOOTH",
"1190 305 OFFCURVE",
"1292 326 OFFCURVE",
"1393 326 CURVE SMOOTH",
"1424 326 OFFCURVE",
"1457 325 OFFCURVE",
"1491 321 CURVE SMOOTH",
"1501 320 OFFCURVE",
"1508 324 OFFCURVE",
"1514 331 CURVE",
"1620 485 LINE",
"1625 496 OFFCURVE",
"1610 495 OFFCURVE",
"1554 495 CURVE SMOOTH"
);
}
);
width = 1603;
},
{
anchors = (
{
name = bottom;
position = "{622, -90}";
},
{
name = top;
position = "{666, 972}";
}
);
associatedMasterId = "00FED3EE-B3F5-49E6-B91A-35FC52169726";
layerId = "A59E3E2D-B48C-4CDD-836A-A1E73DB51526";
paths = (
{
closed = 1;
nodes = (
"1102 525 OFFCURVE",
"871 780 OFFCURVE",
"636 780 CURVE SMOOTH",
"549 780 OFFCURVE",
"460 733 OFFCURVE",
"352 634 CURVE",
"340 622 OFFCURVE",
"338 616 OFFCURVE",
"339 603 CURVE",
"355 494 LINE SMOOTH",
"356 484 OFFCURVE",
"364 478 OFFCURVE",
"373 478 CURVE SMOOTH",
"378 478 OFFCURVE",
"387 481 OFFCURVE",
"394 488 CURVE",
"484 569 OFFCURVE",
"525 593 OFFCURVE",
"577 593 CURVE SMOOTH",
"682 593 OFFCURVE",
"921 474 OFFCURVE",
"1089 426 CURVE",
"845 355 OFFCURVE",
"430 191 OFFCURVE",
"41 191 CURVE SMOOTH",
"21 191 LINE SMOOTH",
"-44 191 OFFCURVE",
"-82 143 OFFCURVE",
"-89 96 CURVE SMOOTH",
"-96 49 OFFCURVE",
"-74 0 OFFCURVE",
"-10 0 CURVE SMOOTH",
"10 0 LINE SMOOTH",
"328 0 OFFCURVE",
"679 141 OFFCURVE",
"968 244 CURVE SMOOTH",
"1141 304 OFFCURVE",
"1239 326 OFFCURVE",
"1339 326 CURVE SMOOTH",
"1370 326 OFFCURVE",
"1403 324 OFFCURVE",
"1437 321 CURVE SMOOTH",
"1451 320 OFFCURVE",
"1461 327 OFFCURVE",
"1469 341 CURVE SMOOTH",
"1549 494 LINE",
"1550 498 OFFCURVE",
"1552 502 OFFCURVE",
"1552 505 CURVE SMOOTH",
"1556 527 OFFCURVE",
"1521 525 OFFCURVE",
"1477 525 CURVE SMOOTH"
);
}
);
width = 1605;
},
{
anchors = (
{
name = bottom;
position = "{599, -41}";
},
{
name = top;
position = "{865, 1064}";
}
);
layerId = "A4A63F56-930B-4BA2-9E35-208CEDD14325";
paths = (
{
closed = 1;
nodes = (
"31 0 LINE SMOOTH",
"429 0 OFFCURVE",
"921 212 OFFCURVE",
"1152 281 CURVE SMOOTH",
"1273 317 OFFCURVE",
"1491 325 OFFCURVE",
"1522 322 CURVE",
"1708 617 LINE",
"1619 617 LINE SMOOTH",
"1262 617 OFFCURVE",
"1052 862 OFFCURVE",
"799 862 CURVE SMOOTH",
"719 862 OFFCURVE",
"586 805 OFFCURVE",
"459 716 CURVE",
"454 454 LINE",
"571 543 OFFCURVE",
"658 593 OFFCURVE",
"692 593 CURVE SMOOTH",
"765 593 OFFCURVE",
"913 521 OFFCURVE",
"1053 466 CURVE",
"795 387 OFFCURVE",
"447 273 OFFCURVE",
"120 273 CURVE SMOOTH",
"60 273 LINE SMOOTH",
"-12 273 OFFCURVE",
"-90 212 OFFCURVE",
"-115 137 CURVE SMOOTH",
"-139 61 OFFCURVE",
"-101 0 OFFCURVE",
"-29 0 CURVE SMOOTH"
);
}
);
width = 1643;
}
);
leftKerningGroup = all;
unicode = FEA3;
},
{
glyphname = "dal-ar";
lastChange = "2017-08-20 16:18:30 +0000";
layers = (
{
anchors = (
{
name = bottom;
position = "{491, -230}";
},
{
name = top;
position = "{599, 1158}";
}
);
layerId = "93A312F7-B931-4485-B08E-C367313EB5E7";
paths = (
{
closed = 1;
nodes = (
"562 -56 OFFCURVE",
"831 -9 OFFCURVE",
"918 53 CURVE SMOOTH",
"971 91 OFFCURVE",
"992 154 OFFCURVE",
"992 229 CURVE SMOOTH",
"995 430 OFFCURVE",
"919 553 OFFCURVE",
"645 975 CURVE SMOOTH",
"639 984 OFFCURVE",
"627 983 OFFCURVE",
"624 978 CURVE SMOOTH",
"541 836 LINE SMOOTH",
"536 828 OFFCURVE",
"536 819 OFFCURVE",
"542 811 CURVE SMOOTH",
"836 396 OFFCURVE",
"871 273 OFFCURVE",
"885 197 CURVE",
"737 142 OFFCURVE",
"518 106 OFFCURVE",
"343 127 CURVE SMOOTH",
"266 136 OFFCURVE",
"258 183 OFFCURVE",
"252 308 CURVE SMOOTH",
"251 320 OFFCURVE",
"244 325 OFFCURVE",
"234 325 CURVE SMOOTH",
"172 325 LINE SMOOTH",
"162 325 OFFCURVE",
"156 320 OFFCURVE",
"155 309 CURVE SMOOTH",
"139 120 OFFCURVE",
"144 -56 OFFCURVE",
"424 -56 CURVE SMOOTH"
);
}
);
width = 1129;
},
{
anchors = (
{
name = bottom;
position = "{487, -233}";
},
{
name = ring;
position = "{886, 52}";
},
{
name = top;
position = "{641, 1144}";
}
);
layerId = "00FED3EE-B3F5-49E6-B91A-35FC52169726";
paths = (
{
closed = 1;
nodes = (
"577 -38 OFFCURVE",
"836 8 OFFCURVE",
"918 65 CURVE SMOOTH",
"967 99 OFFCURVE",
"989 153 OFFCURVE",
"989 240 CURVE",
"989 422 OFFCURVE",
"901 525 OFFCURVE",
"653 928 CURVE SMOOTH",
"645 941 OFFCURVE",
"633 943 OFFCURVE",
"626 933 CURVE",
"549 800 LINE",
"787 445 OFFCURVE",
"870 298 OFFCURVE",
"886 194 CURVE",
"762 148 OFFCURVE",
"606 121 OFFCURVE",
"471 121 CURVE SMOOTH",
"301 121 OFFCURVE",
"279 132 OFFCURVE",
"279 305 CURVE SMOOTH",
"279 312 OFFCURVE",
"272 317 OFFCURVE",
"261 317 CURVE SMOOTH",
"202 317 LINE SMOOTH",
"191 317 OFFCURVE",
"185 314 OFFCURVE",
"185 307 CURVE SMOOTH",
"185 273 OFFCURVE",
"180 241 OFFCURVE",
"180 211 CURVE SMOOTH",
"180 35 OFFCURVE",
"257 -38 OFFCURVE",
"443 -38 CURVE SMOOTH"
);
}
);
width = 1129;
},
{
anchors = (
{
name = bottom;
position = "{529, -248}";
},
{
name = ring;
position = "{858, -145}";
},
{
name = top;
position = "{623, 1170}";
}
);
layerId = "E3174D42-D779-465D-8194-70AED922C337";
paths = (
{
closed = 1;
nodes = (
"579 -38 OFFCURVE",
"840 8 OFFCURVE",
"925 68 CURVE SMOOTH",
"977 105 OFFCURVE",
"1000 168 OFFCURVE",
"1000 255 CURVE SMOOTH",
"1000 445 OFFCURVE",
"912 554 OFFCURVE",
"660 956 CURVE SMOOTH",
"656 964 OFFCURVE",
"648 968 OFFCURVE",
"640 968 CURVE SMOOTH",
"634 968 OFFCURVE",
"628 965 OFFCURVE",
"624 959 CURVE SMOOTH",
"549 832 LINE SMOOTH",
"546 828 OFFCURVE",
"544 822 OFFCURVE",
"544 816 CURVE SMOOTH",
"544 810 OFFCURVE",
"547 804 OFFCURVE",
"551 798 CURVE SMOOTH",
"811 407 OFFCURVE",
"862 294 OFFCURVE",
"877 220 CURVE",
"765 180 OFFCURVE",
"613 151 OFFCURVE",
"473 151 CURVE SMOOTH",
"306 151 OFFCURVE",
"300 159 OFFCURVE",
"290 321 CURVE SMOOTH",
"289 337 OFFCURVE",
"278 347 OFFCURVE",
"263 347 CURVE SMOOTH",
"204 347 LINE SMOOTH",
"188 347 OFFCURVE",
"179 338 OFFCURVE",
"178 323 CURVE SMOOTH",
"176 290 OFFCURVE",
"173 257 OFFCURVE",
"173 226 CURVE SMOOTH",
"173 82 OFFCURVE",
"217 -38 OFFCURVE",
"445 -38 CURVE SMOOTH"
);
}
);
width = 1135;
},
{
anchors = (
{
name = bottom;
position = "{516, -235}";
},
{
name = ring;
position = "{985, -109}";
},
{
name = top;
position = "{690, 1176}";
}
);
layerId = "AB6A8399-B57F-40CA-845C-76C4C0121470";
paths = (
{
closed = 1;
nodes = (
"608 -38 OFFCURVE",
"876 8 OFFCURVE",
"964 71 CURVE SMOOTH",
"1020 111 OFFCURVE",
"1047 176 OFFCURVE",
"1047 271 CURVE SMOOTH",
"1047 465 OFFCURVE",
"957 577 OFFCURVE",
"705 978 CURVE",
"561 795 LINE",
"805 429 OFFCURVE",
"863 319 OFFCURVE",
"882 246 CURVE",
"766 206 OFFCURVE",
"624 183 OFFCURVE",
"500 183 CURVE SMOOTH",
"347 183 OFFCURVE",
"347 183 OFFCURVE",
"337 338 CURVE",
"185 340 LINE",
"183 307 OFFCURVE",
"180 274 OFFCURVE",
"180 242 CURVE SMOOTH",
"180 49 OFFCURVE",
"270 -38 OFFCURVE",
"472 -38 CURVE SMOOTH"
);
}
);
width = 1187;
},
{
anchors = (
{
name = bottom;
position = "{517, -237}";
},
{
name = ring;
position = "{770, -194}";
},
{
name = top;
position = "{723, 1254}";
}
);
layerId = "EAE1A523-EADE-4FB1-A034-E66E80F3AE4F";
paths = (
{
closed = 1;
nodes = (
"628 -38 OFFCURVE",
"904 10 OFFCURVE",
"997 76 CURVE SMOOTH",
"1059 120 OFFCURVE",
"1090 194 OFFCURVE",
"1090 296 CURVE SMOOTH",
"1090 504 OFFCURVE",
"991 622 OFFCURVE",
"725 1046 CURVE",
"548 821 LINE",
"775 481 OFFCURVE",
"844 354 OFFCURVE",
"869 281 CURVE",
"796 252 OFFCURVE",
"685 232 OFFCURVE",
"513 231 CURVE SMOOTH",
"392 230 OFFCURVE",
"390 238 OFFCURVE",
"382 392 CURVE",
"179 390 LINE",
"178 351 OFFCURVE",
"173 308 OFFCURVE",
"173 267 CURVE SMOOTH",
"173 59 OFFCURVE",
"274 -38 OFFCURVE",
"490 -38 CURVE SMOOTH"
);
}
);
width = 1225;
},
{
anchors = (
{
name = bottom;
position = "{449, -268}";
},
{
name = ring;
position = "{834, -135}";
},
{
name = top;
position = "{976, 1170}";
}
);
layerId = "020FDE62-5533-4E0C-98E7-097025284E4F";
paths = (
{
closed = 1;
nodes = (
"568 -38 OFFCURVE",
"844 8 OFFCURVE",
"948 68 CURVE SMOOTH",
"1011 105 OFFCURVE",
"1055 168 OFFCURVE",
"1082 255 CURVE SMOOTH",
"1143 445 OFFCURVE",
"1089 554 OFFCURVE",
"965 956 CURVE SMOOTH",
"963 964 OFFCURVE",
"957 968 OFFCURVE",
"949 968 CURVE SMOOTH",
"943 968 OFFCURVE",
"936 965 OFFCURVE",
"930 959 CURVE SMOOTH",
"815 832 LINE SMOOTH",
"810 828 OFFCURVE",
"807 822 OFFCURVE",
"805 816 CURVE SMOOTH",
"802 810 OFFCURVE",
"804 804 OFFCURVE",
"806 798 CURVE SMOOTH",
"942 407 OFFCURVE",
"957 294 OFFCURVE",
"948 220 CURVE",
"823 180 OFFCURVE",
"662 151 OFFCURVE",
"522 151 CURVE SMOOTH",
"355 151 OFFCURVE",
"352 159 OFFCURVE",
"393 321 CURVE SMOOTH",
"398 337 OFFCURVE",
"390 347 OFFCURVE",
"375 347 CURVE SMOOTH",
"316 347 LINE SMOOTH",
"300 347 OFFCURVE",
"288 338 OFFCURVE",
"282 323 CURVE SMOOTH",
"270 290 OFFCURVE",
"256 257 OFFCURVE",
"246 226 CURVE SMOOTH",
"201 82 OFFCURVE",
"206 -38 OFFCURVE",
"434 -38 CURVE SMOOTH"
);
}
);
width = 1134;
},
{
anchors = (
{
name = bottom;
position = "{412, -233}";
},
{
name = ring;
position = "{903, 52}";
},
{
name = top;
position = "{1013, 1144}";
}
);
layerId = "CC24164E-6342-4A92-AABB-B05B5693BF45";
paths = (
{
closed = 1;
nodes = (
"565 -38 OFFCURVE",
"839 8 OFFCURVE",
"940 65 CURVE SMOOTH",
"1000 99 OFFCURVE",
"1039 153 OFFCURVE",
"1068 240 CURVE",
"1127 422 OFFCURVE",
"1072 525 OFFCURVE",
"955 928 CURVE SMOOTH",
"951 941 OFFCURVE",
"940 943 OFFCURVE",
"930 933 CURVE",
"810 800 LINE",
"932 445 OFFCURVE",
"967 298 OFFCURVE",
"950 194 CURVE",
"811 148 OFFCURVE",
"646 121 OFFCURVE",
"511 121 CURVE SMOOTH",
"341 121 OFFCURVE",
"322 132 OFFCURVE",
"379 305 CURVE SMOOTH",
"381 312 OFFCURVE",
"376 317 OFFCURVE",
"365 317 CURVE SMOOTH",
"306 317 LINE SMOOTH",
"295 317 OFFCURVE",
"288 314 OFFCURVE",
"285 307 CURVE SMOOTH",
"274 273 OFFCURVE",
"259 241 OFFCURVE",
"249 211 CURVE SMOOTH",
"192 35 OFFCURVE",
"245 -38 OFFCURVE",
"431 -38 CURVE SMOOTH"
);
}
);
width = 1130;
},
{
anchors = (
{
name = bottom;
position = "{489, -258}";
},
{
name = ring;
position = "{846, -140}";
},
{
name = top;
position = "{800, 1170}";
}
);
associatedMasterId = "00FED3EE-B3F5-49E6-B91A-35FC52169726";
layerId = "A59E3E2D-B48C-4CDD-836A-A1E73DB51526";
paths = (
{
closed = 1;
nodes = (
"574 -38 OFFCURVE",
"842 8 OFFCURVE",
"937 68 CURVE SMOOTH",
"994 105 OFFCURVE",
"1028 168 OFFCURVE",
"1041 255 CURVE SMOOTH",
"1072 445 OFFCURVE",
"1001 554 OFFCURVE",
"813 956 CURVE SMOOTH",
"810 964 OFFCURVE",
"803 968 OFFCURVE",
"795 968 CURVE SMOOTH",
"789 968 OFFCURVE",
"782 965 OFFCURVE",
"777 959 CURVE SMOOTH",
"682 832 LINE SMOOTH",
"678 828 OFFCURVE",
"676 822 OFFCURVE",
"675 816 CURVE SMOOTH",
"673 810 OFFCURVE",
"676 804 OFFCURVE",
"679 798 CURVE SMOOTH",
"877 407 OFFCURVE",
"910 294 OFFCURVE",
"913 220 CURVE",
"794 180 OFFCURVE",
"638 151 OFFCURVE",
"498 151 CURVE SMOOTH",
"331 151 OFFCURVE",
"326 159 OFFCURVE",
"342 321 CURVE SMOOTH",
"344 337 OFFCURVE",
"334 347 OFFCURVE",
"319 347 CURVE SMOOTH",
"260 347 LINE SMOOTH",
"244 347 OFFCURVE",
"234 338 OFFCURVE",
"230 323 CURVE SMOOTH",
"223 290 OFFCURVE",
"215 257 OFFCURVE",
"210 226 CURVE SMOOTH",
"187 82 OFFCURVE",
"212 -38 OFFCURVE",
"440 -38 CURVE SMOOTH"
);
}
);
width = 1135;
},
{
anchors = (
{
name = bottom;
position = "{440, -237}";
},
{
name = ring;
position = "{707, -194}";
},
{
name = top;
position = "{1131, 1254}";
}
);
layerId = "A4A63F56-930B-4BA2-9E35-208CEDD14325";
paths = (
{
closed = 1;
nodes = (
"616 -38 OFFCURVE",
"907 10 OFFCURVE",
"1022 76 CURVE SMOOTH",
"1098 120 OFFCURVE",
"1153 194 OFFCURVE",
"1186 296 CURVE SMOOTH",
"1254 504 OFFCURVE",
"1193 622 OFFCURVE",
"1065 1046 CURVE",
"815 821 LINE",
"932 481 OFFCURVE",
"959 354 OFFCURVE",
"961 281 CURVE",
"878 252 OFFCURVE",
"761 232 OFFCURVE",
"588 231 CURVE SMOOTH",
"467 230 OFFCURVE",
"468 238 OFFCURVE",
"510 392 CURVE",
"306 390 LINE",
"292 351 OFFCURVE",
"273 308 OFFCURVE",
"260 267 CURVE SMOOTH",
"192 59 OFFCURVE",
"262 -38 OFFCURVE",
"478 -38 CURVE SMOOTH"
);
}
);
width = 1225;
}
);
leftKerningGroup = all;
unicode = 062F;
},
{
glyphname = "dal-ar.fina";
lastChange = "2017-08-20 16:18:36 +0000";
layers = (
{
anchors = (
{
name = bottom;
position = "{491, -230}";
},
{
name = top;
position = "{857, 1198}";
}
);
layerId = "93A312F7-B931-4485-B08E-C367313EB5E7";
paths = (
{
closed = 1;
nodes = (
"562 -56 OFFCURVE",
"806 -9 OFFCURVE",
"892 53 CURVE SMOOTH",
"928 78 OFFCURVE",
"948 115 OFFCURVE",
"957 159 CURVE SMOOTH",
"959 171 OFFCURVE",
"964 171 OFFCURVE",
"969 160 CURVE SMOOTH",
"1020 47 OFFCURVE",
"1119 0 OFFCURVE",
"1243 0 CURVE SMOOTH",
"1309 0 LINE",
"1357 60 OFFCURVE",
"1357 119 OFFCURVE",
"1309 179 CURVE",
"1257 179 LINE SMOOTH",
"1055 179 OFFCURVE",
"1005 248 OFFCURVE",
"960 526 CURVE SMOOTH",
"881 1012 LINE SMOOTH",
"879 1025 OFFCURVE",
"869 1029 OFFCURVE",
"859 1021 CURVE SMOOTH",
"739 930 LINE SMOOTH",
"733 925 OFFCURVE",
"728 919 OFFCURVE",
"730 908 CURVE SMOOTH",
"864 205 LINE",
"866 193 OFFCURVE",
"861 187 OFFCURVE",
"852 184 CURVE",
"705 139 OFFCURVE",
"492 107 OFFCURVE",
"346 128 CURVE",
"270 139 OFFCURVE",
"262 166 OFFCURVE",
"255 291 CURVE SMOOTH",
"253 322 OFFCURVE",
"252 325 OFFCURVE",
"234 325 CURVE SMOOTH",
"172 325 LINE SMOOTH",
"162 325 OFFCURVE",
"156 320 OFFCURVE",
"155 309 CURVE SMOOTH",
"139 120 OFFCURVE",
"145 -56 OFFCURVE",
"424 -56 CURVE SMOOTH"
);
}
);
width = 1289;
},
{
anchors = (
{
name = bottom;
position = "{508, -239}";
},
{
name = ring;
position = "{853, 35}";
},
{
name = top;
position = "{877, 1130}";
}
);
layerId = "00FED3EE-B3F5-49E6-B91A-35FC52169726";
paths = (
{
closed = 1;
nodes = (
"1243 161 LINE SMOOTH",
"1056 161 OFFCURVE",
"1004 223 OFFCURVE",
"959 499 CURVE SMOOTH",
"888 931 LINE SMOOTH",
"887 936 OFFCURVE",
"880 942 OFFCURVE",
"872 936 CURVE SMOOTH",
"741 838 LINE",
"865 192 LINE",
"868 179 OFFCURVE",
"861 168 OFFCURVE",
"851 165 CURVE SMOOTH",
"741 132 OFFCURVE",
"592 121 OFFCURVE",
"467 121 CURVE SMOOTH",
"305 121 OFFCURVE",
"288 135 OFFCURVE",
"282 289 CURVE SMOOTH",
"281 316 OFFCURVE",
"280 317 OFFCURVE",
"261 317 CURVE SMOOTH",
"202 317 LINE SMOOTH",
"191 317 OFFCURVE",
"185 314 OFFCURVE",
"185 307 CURVE SMOOTH",
"185 273 OFFCURVE",
"180 242 OFFCURVE",
"180 212 CURVE SMOOTH",
"180 36 OFFCURVE",
"257 -38 OFFCURVE",
"443 -38 CURVE SMOOTH",
"577 -38 OFFCURVE",
"812 -8 OFFCURVE",
"893 50 CURVE SMOOTH",
"929 76 OFFCURVE",
"947 109 OFFCURVE",
"956 167 CURVE",
"962 168 LINE",
"1003 59 OFFCURVE",
"1096 0 OFFCURVE",
"1230 0 CURVE SMOOTH",
"1295 0 LINE",
"1317 28 OFFCURVE",
"1327 53 OFFCURVE",
"1327 81 CURVE SMOOTH",
"1327 109 OFFCURVE",
"1317 133 OFFCURVE",
"1295 161 CURVE"
);
}
);
width = 1275;
},
{
anchors = (
{
name = bottom;
position = "{510, -240}";
},
{
name = ring;
position = "{835, -160}";
},
{
name = top;
position = "{861, 1178}";
}
);
layerId = "E3174D42-D779-465D-8194-70AED922C337";
paths = (
{
closed = 1;
nodes = (
"1245 191 LINE SMOOTH",
"1061 191 OFFCURVE",
"1014 248 OFFCURVE",
"970 516 CURVE SMOOTH",
"899 948 LINE SMOOTH",
"897 961 OFFCURVE",
"888 969 OFFCURVE",
"877 969 CURVE SMOOTH",
"873 969 OFFCURVE",
"867 967 OFFCURVE",
"862 963 CURVE SMOOTH",
"747 876 LINE",
"737 869 OFFCURVE",
"734 860 OFFCURVE",
"734 851 CURVE",
"858 204 LINE SMOOTH",
"859 199 OFFCURVE",
"858 197 OFFCURVE",
"853 195 CURVE",
"744 162 OFFCURVE",
"595 151 OFFCURVE",
"469 151 CURVE SMOOTH",
"314 151 OFFCURVE",
"300 158 OFFCURVE",
"293 305 CURVE SMOOTH",
"291 340 OFFCURVE",
"286 347 OFFCURVE",
"263 347 CURVE SMOOTH",
"204 347 LINE SMOOTH",
"188 347 OFFCURVE",
"179 338 OFFCURVE",
"178 323 CURVE SMOOTH",
"176 290 OFFCURVE",
"173 258 OFFCURVE",
"173 227 CURVE SMOOTH",
"173 83 OFFCURVE",
"217 -38 OFFCURVE",
"445 -38 CURVE SMOOTH",
"579 -38 OFFCURVE",
"816 -8 OFFCURVE",
"900 53 CURVE SMOOTH",
"934 77 OFFCURVE",
"953 112 OFFCURVE",
"963 159 CURVE",
"1009 57 OFFCURVE",
"1099 0 OFFCURVE",
"1232 0 CURVE SMOOTH",
"1287 0 LINE",
"1314 32 OFFCURVE",
"1326 64 OFFCURVE",
"1326 96 CURVE SMOOTH",
"1326 128 OFFCURVE",
"1314 159 OFFCURVE",
"1287 191 CURVE"
);
}
);
width = 1277;
},
{
anchors = (
{
name = bottom;
position = "{499, -237}";
},
{
name = ring;
position = "{892, -154}";
},
{
name = top;
position = "{878, 1154}";
}
);
layerId = "AB6A8399-B57F-40CA-845C-76C4C0121470";
paths = (
{
closed = 1;
nodes = (
"1272 223 LINE SMOOTH",
"1101 223 OFFCURVE",
"1060 272 OFFCURVE",
"1017 535 CURVE SMOOTH",
"946 967 LINE",
"741 866 LINE",
"864 224 LINE",
"758 193 OFFCURVE",
"617 183 OFFCURVE",
"496 183 CURVE SMOOTH",
"351 183 OFFCURVE",
"346 206 OFFCURVE",
"340 342 CURVE",
"183 340 LINE",
"181 306 OFFCURVE",
"180 275 OFFCURVE",
"180 243 CURVE SMOOTH",
"180 50 OFFCURVE",
"270 -38 OFFCURVE",
"472 -38 CURVE SMOOTH",
"608 -38 OFFCURVE",
"852 -7 OFFCURVE",
"939 56 CURVE SMOOTH",
"964 74 OFFCURVE",
"982 97 OFFCURVE",
"995 126 CURVE",
"1050 44 OFFCURVE",
"1141 0 OFFCURVE",
"1259 0 CURVE SMOOTH",
"1363 0 LINE",
"1398 35 OFFCURVE",
"1413 72 OFFCURVE",
"1413 112 CURVE SMOOTH",
"1413 152 OFFCURVE",
"1398 188 OFFCURVE",
"1363 223 CURVE"
);
}
);
width = 1348;
},
{
anchors = (
{
name = bottom;
position = "{517, -237}";
},
{
name = ring;
position = "{760, -204}";
},
{
name = top;
position = "{886, 1224}";
}
);
layerId = "EAE1A523-EADE-4FB1-A034-E66E80F3AE4F";
paths = (
{
closed = 1;
nodes = (
"1290 273 LINE SMOOTH",
"1134 273 OFFCURVE",
"1102 312 OFFCURVE",
"1060 564 CURVE SMOOTH",
"983 1029 LINE",
"731 905 LINE",
"853 267 LINE",
"766 245 OFFCURVE",
"648 233 OFFCURVE",
"514 233 CURVE SMOOTH",
"391 233 OFFCURVE",
"389 238 OFFCURVE",
"382 392 CURVE",
"178 390 LINE",
"175 346 OFFCURVE",
"173 308 OFFCURVE",
"173 268 CURVE SMOOTH",
"173 60 OFFCURVE",
"275 -38 OFFCURVE",
"490 -38 CURVE SMOOTH",
"628 -38 OFFCURVE",
"878 -5 OFFCURVE",
"972 61 CURVE SMOOTH",
"989 73 OFFCURVE",
"1004 88 OFFCURVE",
"1016 106 CURVE",
"1077 37 OFFCURVE",
"1167 0 OFFCURVE",
"1277 0 CURVE SMOOTH",
"1396 0 LINE",
"1439 39 OFFCURVE",
"1461 86 OFFCURVE",
"1461 137 CURVE SMOOTH",
"1461 188 OFFCURVE",
"1439 233 OFFCURVE",
"1396 273 CURVE"
);
}
);
width = 1366;
},
{
anchors = (
{
name = bottom;
position = "{436, -240}";
},
{
name = ring;
position = "{756, -160}";
},
{
name = top;
position = "{1209, 1198}";
}
);
layerId = "020FDE62-5533-4E0C-98E7-097025284E4F";
paths = (
{
closed = 1;
nodes = (
"1308 191 LINE SMOOTH",
"1124 191 OFFCURVE",
"1095 248 OFFCURVE",
"1136 516 CURVE SMOOTH",
"1203 948 LINE SMOOTH",
"1204 961 OFFCURVE",
"1198 969 OFFCURVE",
"1187 969 CURVE SMOOTH",
"1183 969 OFFCURVE",
"1177 967 OFFCURVE",
"1170 963 CURVE SMOOTH",
"1027 876 LINE",
"1015 869 OFFCURVE",
"1009 860 OFFCURVE",
"1007 851 CURVE",
"925 204 LINE SMOOTH",
"924 199 OFFCURVE",
"923 197 OFFCURVE",
"918 195 CURVE",
"797 162 OFFCURVE",
"645 151 OFFCURVE",
"519 151 CURVE SMOOTH",
"364 151 OFFCURVE",
"353 158 OFFCURVE",
"392 305 CURVE SMOOTH",
"401 340 OFFCURVE",
"399 347 OFFCURVE",
"376 347 CURVE SMOOTH",
"317 347 LINE SMOOTH",
"301 347 OFFCURVE",
"289 338 OFFCURVE",
"283 323 CURVE SMOOTH",
"271 290 OFFCURVE",
"257 258 OFFCURVE",
"247 227 CURVE SMOOTH",
"202 83 OFFCURVE",
"207 -38 OFFCURVE",
"435 -38 CURVE SMOOTH",
"569 -38 OFFCURVE",
"815 -8 OFFCURVE",
"919 53 CURVE SMOOTH",
"960 77 OFFCURVE",
"991 112 OFFCURVE",
"1016 159 CURVE",
"1029 57 OFFCURVE",
"1101 0 OFFCURVE",
"1234 0 CURVE SMOOTH",
"1289 0 LINE",
"1326 32 OFFCURVE",
"1349 64 OFFCURVE",
"1358 96 CURVE SMOOTH",
"1369 128 OFFCURVE",
"1367 159 OFFCURVE",
"1350 191 CURVE"
);
}
);
width = 1278;
},
{
anchors = (
{
name = bottom;
position = "{430, -239}";
},
{
name = ring;
position = "{864, 35}";
},
{
name = top;
position = "{1244, 1130}";
}
);
layerId = "CC24164E-6342-4A92-AABB-B05B5693BF45";
paths = (
{
closed = 1;
nodes = (
"1295 161 LINE SMOOTH",
"1108 161 OFFCURVE",
"1076 223 OFFCURVE",
"1121 499 CURVE SMOOTH",
"1190 931 LINE SMOOTH",
"1191 936 OFFCURVE",
"1186 942 OFFCURVE",
"1176 936 CURVE SMOOTH",
"1013 838 LINE",
"927 192 LINE",
"926 179 OFFCURVE",
"915 168 OFFCURVE",
"904 165 CURVE SMOOTH",
"784 132 OFFCURVE",
"631 121 OFFCURVE",
"506 121 CURVE SMOOTH",
"344 121 OFFCURVE",
"332 135 OFFCURVE",
"376 289 CURVE SMOOTH",
"383 316 OFFCURVE",
"383 317 OFFCURVE",
"364 317 CURVE SMOOTH",
"305 317 LINE SMOOTH",
"294 317 OFFCURVE",
"287 314 OFFCURVE",
"284 307 CURVE SMOOTH",
"273 273 OFFCURVE",
"258 242 OFFCURVE",
"249 212 CURVE SMOOTH",
"191 36 OFFCURVE",
"244 -38 OFFCURVE",
"430 -38 CURVE SMOOTH",
"564 -38 OFFCURVE",
"809 -8 OFFCURVE",
"909 50 CURVE SMOOTH",
"953 76 OFFCURVE",
"982 109 OFFCURVE",
"1010 167 CURVE",
"1016 168 LINE",
"1022 59 OFFCURVE",
"1096 0 OFFCURVE",
"1230 0 CURVE SMOOTH",
"1295 0 LINE",
"1326 28 OFFCURVE",
"1344 53 OFFCURVE",
"1353 81 CURVE SMOOTH",
"1362 109 OFFCURVE",
"1360 133 OFFCURVE",
"1347 161 CURVE"
);
}
);
width = 1275;
},
{
anchors = (
{
name = bottom;
position = "{473, -240}";
},
{
name = ring;
position = "{796, -160}";
},
{
name = top;
position = "{1035, 1188}";
}
);
associatedMasterId = "00FED3EE-B3F5-49E6-B91A-35FC52169726";
layerId = "A59E3E2D-B48C-4CDD-836A-A1E73DB51526";
paths = (
{
closed = 1;
nodes = (
"1277 191 LINE SMOOTH",
"1093 191 OFFCURVE",
"1055 248 OFFCURVE",
"1053 516 CURVE SMOOTH",
"1051 948 LINE SMOOTH",
"1051 961 OFFCURVE",
"1043 969 OFFCURVE",
"1032 969 CURVE SMOOTH",
"1028 969 OFFCURVE",
"1022 967 OFFCURVE",
"1016 963 CURVE SMOOTH",
"887 876 LINE",
"876 869 OFFCURVE",
"872 860 OFFCURVE",
"871 851 CURVE",
"892 204 LINE SMOOTH",
"892 199 OFFCURVE",
"891 197 OFFCURVE",
"886 195 CURVE",
"771 162 OFFCURVE",
"620 151 OFFCURVE",
"494 151 CURVE SMOOTH",
"339 151 OFFCURVE",
"327 158 OFFCURVE",
"343 305 CURVE SMOOTH",
"346 340 OFFCURVE",
"343 347 OFFCURVE",
"320 347 CURVE SMOOTH",
"261 347 LINE SMOOTH",
"245 347 OFFCURVE",
"234 338 OFFCURVE",
"231 323 CURVE SMOOTH",
"224 290 OFFCURVE",
"215 258 OFFCURVE",
"210 227 CURVE SMOOTH",
"188 83 OFFCURVE",
"212 -38 OFFCURVE",
"440 -38 CURVE SMOOTH",
"574 -38 OFFCURVE",
"816 -8 OFFCURVE",
"910 53 CURVE SMOOTH",
"947 77 OFFCURVE",
"972 112 OFFCURVE",
"990 159 CURVE",
"1019 57 OFFCURVE",
"1100 0 OFFCURVE",
"1233 0 CURVE SMOOTH",
"1288 0 LINE",
"1320 32 OFFCURVE",
"1338 64 OFFCURVE",
"1342 96 CURVE SMOOTH",
"1348 128 OFFCURVE",
"1341 159 OFFCURVE",
"1319 191 CURVE"
);
}
);
width = 1278;
},
{
anchors = (
{
name = bottom;
position = "{440, -237}";
},
{
name = ring;
position = "{694, -204}";
},
{
name = top;
position = "{1284, 1224}";
}
);
layerId = "A4A63F56-930B-4BA2-9E35-208CEDD14325";
paths = (
{
closed = 1;
nodes = (
"1379 273 LINE SMOOTH",
"1223 273 OFFCURVE",
"1203 312 OFFCURVE",
"1243 564 CURVE SMOOTH",
"1317 1029 LINE",
"1025 905 LINE",
"940 267 LINE",
"846 245 OFFCURVE",
"724 233 OFFCURVE",
"590 233 CURVE SMOOTH",
"467 233 OFFCURVE",
"466 238 OFFCURVE",
"509 392 CURVE",
"305 390 LINE",
"287 346 OFFCURVE",
"273 308 OFFCURVE",
"260 268 CURVE SMOOTH",
"192 60 OFFCURVE",
"263 -38 OFFCURVE",
"478 -38 CURVE SMOOTH",
"616 -38 OFFCURVE",
"876 -5 OFFCURVE",
"992 61 CURVE SMOOTH",
"1013 73 OFFCURVE",
"1033 88 OFFCURVE",
"1050 106 CURVE",
"1089 37 OFFCURVE",
"1167 0 OFFCURVE",
"1277 0 CURVE SMOOTH",
"1396 0 LINE",
"1452 39 OFFCURVE",
"1489 86 OFFCURVE",
"1506 137 CURVE SMOOTH",
"1522 188 OFFCURVE",
"1515 233 OFFCURVE",
"1485 273 CURVE"
);
}
);
width = 1366;
}
);
unicode = FEAA;
userData = {
com.typemytype.robofont.guides = (
{
angle = 0;
isGlobal = 0;
x = 2480;
y = "-225";
}
);
};
},
{
glyphname = "reh-ar";
lastChange = "2017-08-20 16:19:39 +0000";
layers = (
{
anchors = (
{
name = bottom;
position = "{304, -650}";
},
{
name = top;
position = "{563, 976}";
}
);
layerId = "93A312F7-B931-4485-B08E-C367313EB5E7";
paths = (
{
closed = 1;
nodes = (
"618 -319 OFFCURVE",
"756 -88 OFFCURVE",
"778 126 CURVE SMOOTH",
"792 265 OFFCURVE",
"724 472 OFFCURVE",
"669 692 CURVE SMOOTH",
"666 704 OFFCURVE",
"655 705 OFFCURVE",
"646 696 CURVE SMOOTH",
"542 592 LINE SMOOTH",
"536 585 OFFCURVE",
"533 578 OFFCURVE",
"536 569 CURVE SMOOTH",
"679 127 LINE SMOOTH",
"682 118 OFFCURVE",
"681 112 OFFCURVE",
"678 104 CURVE SMOOTH",
"539 -211 OFFCURVE",
"352 -357 OFFCURVE",
"-35 -272 CURVE SMOOTH",
"-46 -270 OFFCURVE",
"-53 -277 OFFCURVE",
"-56 -287 CURVE SMOOTH",
"-79 -354 LINE SMOOTH",
"-82 -363 OFFCURVE",
"-77 -369 OFFCURVE",
"-66 -373 CURVE SMOOTH",
"171 -452 OFFCURVE",
"336 -477 OFFCURVE",
"476 -398 CURVE SMOOTH"
);
}
);
width = 918;
},
{
anchors = (
{
name = bottom;
position = "{287, -619}";
},
{
name = ring;
position = "{549, -320}";
},
{
name = top;
position = "{615, 864}";
}
);
layerId = "00FED3EE-B3F5-49E6-B91A-35FC52169726";
paths = (
{
closed = 1;
nodes = (
"621 -289 OFFCURVE",
"745 -22 OFFCURVE",
"745 165 CURVE",
"745 295 OFFCURVE",
"692 478 OFFCURVE",
"638 666 CURVE SMOOTH",
"636 673 OFFCURVE",
"622 675 OFFCURVE",
"615 668 CURVE",
"508 560 LINE",
"646 128 LINE SMOOTH",
"649 119 OFFCURVE",
"648 111 OFFCURVE",
"645 102 CURVE",
"534 -167 OFFCURVE",
"388 -285 OFFCURVE",
"164 -285 CURVE SMOOTH",
"102 -285 OFFCURVE",
"38 -277 OFFCURVE",
"-29 -262 CURVE SMOOTH",
"-38 -260 OFFCURVE",
"-47 -265 OFFCURVE",
"-50 -273 CURVE SMOOTH",
"-72 -342 LINE",
"14 -375 OFFCURVE",
"198 -419 OFFCURVE",
"276 -419 CURVE SMOOTH",
"345 -419 OFFCURVE",
"407 -404 OFFCURVE",
"463 -374 CURVE SMOOTH"
);
}
);
width = 885;
},
{
anchors = (
{
name = bottom;
position = "{287, -614}";
},
{
name = ring;
position = "{569, -479}";
},
{
name = top;
position = "{593, 899}";
}
);
layerId = "E3174D42-D779-465D-8194-70AED922C337";
paths = (
{
closed = 1;
nodes = (
"624 -283 OFFCURVE",
"754 -12 OFFCURVE",
"754 180 CURVE SMOOTH",
"754 313 OFFCURVE",
"695 495 OFFCURVE",
"647 685 CURVE SMOOTH",
"643 702 OFFCURVE",
"625 710 OFFCURVE",
"609 694 CURVE SMOOTH",
"509 594 LINE SMOOTH",
"503 588 OFFCURVE",
"499 582 OFFCURVE",
"499 573 CURVE",
"637 138 LINE",
"639 132 OFFCURVE",
"639 130 OFFCURVE",
"637 123 CURVE SMOOTH",
"529 -139 OFFCURVE",
"386 -255 OFFCURVE",
"164 -255 CURVE SMOOTH",
"106 -255 OFFCURVE",
"42 -248 OFFCURVE",
"-27 -232 CURVE SMOOTH",
"-41 -229 OFFCURVE",
"-54 -238 OFFCURVE",
"-59 -253 CURVE",
"-82 -326 LINE",
"-83 -336 OFFCURVE",
"-74 -344 OFFCURVE",
"-61 -348 CURVE SMOOTH",
"70 -392 OFFCURVE",
"180 -419 OFFCURVE",
"276 -419 CURVE SMOOTH",
"346 -419 OFFCURVE",
"408 -404 OFFCURVE",
"467 -372 CURVE SMOOTH"
);
}
);
width = 889;
},
{
anchors = (
{
name = bottom;
position = "{287, -634}";
},
{
name = ring;
position = "{639, -459}";
},
{
name = top;
position = "{593, 869}";
}
);
layerId = "AB6A8399-B57F-40CA-845C-76C4C0121470";
paths = (
{
closed = 1;
nodes = (
"-43 -371 LINE",
"92 -415 OFFCURVE",
"191 -435 OFFCURVE",
"276 -435 CURVE SMOOTH",
"350 -435 OFFCURVE",
"416 -419 OFFCURVE",
"477 -386 CURVE SMOOTH",
"634 -297 OFFCURVE",
"774 -28 OFFCURVE",
"774 180 CURVE SMOOTH",
"774 315 OFFCURVE",
"715 498 OFFCURVE",
"666 689 CURVE",
"479 571 LINE",
"618 127 LINE",
"511 -130 OFFCURVE",
"375 -239 OFFCURVE",
"164 -239 CURVE SMOOTH",
"109 -239 OFFCURVE",
"53 -232 OFFCURVE",
"-6 -220 CURVE"
);
}
);
width = 914;
},
{
anchors = (
{
name = bottom;
position = "{317, -654}";
},
{
name = ring;
position = "{669, -459}";
},
{
name = top;
position = "{633, 949}";
}
);
layerId = "EAE1A523-EADE-4FB1-A034-E66E80F3AE4F";
paths = (
{
closed = 1;
nodes = (
"-43 -362 LINE",
"107 -413 OFFCURVE",
"214 -435 OFFCURVE",
"306 -435 CURVE SMOOTH",
"384 -435 OFFCURVE",
"455 -418 OFFCURVE",
"519 -383 CURVE SMOOTH",
"684 -293 OFFCURVE",
"829 -13 OFFCURVE",
"829 205 CURVE SMOOTH",
"829 352 OFFCURVE",
"762 552 OFFCURVE",
"712 754 CURVE",
"479 607 LINE",
"621 153 LINE",
"519 -89 OFFCURVE",
"393 -189 OFFCURVE",
"194 -189 CURVE SMOOTH",
"138 -189 OFFCURVE",
"77 -182 OFFCURVE",
"5 -165 CURVE"
);
}
);
width = 964;
},
{
anchors = (
{
name = bottom;
position = "{89, -614}";
},
{
name = ring;
position = "{414, -479}";
},
{
name = top;
position = "{868, 919}";
}
);
layerId = "020FDE62-5533-4E0C-98E7-097025284E4F";
paths = (
{
closed = 1;
nodes = (
"531 -283 OFFCURVE",
"747 -12 OFFCURVE",
"808 180 CURVE SMOOTH",
"850 313 OFFCURVE",
"849 495 OFFCURVE",
"861 685 CURVE SMOOTH",
"863 702 OFFCURVE",
"848 710 OFFCURVE",
"826 694 CURVE SMOOTH",
"695 594 LINE SMOOTH",
"687 588 OFFCURVE",
"681 582 OFFCURVE",
"678 573 CURVE",
"678 138 LINE",
"678 132 OFFCURVE",
"677 130 OFFCURVE",
"673 123 CURVE SMOOTH",
"481 -139 OFFCURVE",
"302 -255 OFFCURVE",
"80 -255 CURVE SMOOTH",
"22 -255 OFFCURVE",
"-40 -248 OFFCURVE",
"-103 -232 CURVE SMOOTH",
"-117 -229 OFFCURVE",
"-133 -238 OFFCURVE",
"-142 -253 CURVE",
"-188 -326 LINE",
"-193 -336 OFFCURVE",
"-186 -344 OFFCURVE",
"-174 -348 CURVE SMOOTH",
"-57 -392 OFFCURVE",
"44 -419 OFFCURVE",
"140 -419 CURVE SMOOTH",
"210 -419 OFFCURVE",
"277 -404 OFFCURVE",
"346 -372 CURVE SMOOTH"
);
}
);
width = 885;
},
{
anchors = (
{
name = bottom;
position = "{86, -619}";
},
{
name = ring;
position = "{445, -320}";
},
{
name = top;
position = "{896, 864}";
}
);
layerId = "CC24164E-6342-4A92-AABB-B05B5693BF45";
paths = (
{
closed = 1;
nodes = (
"527 -289 OFFCURVE",
"738 -22 OFFCURVE",
"798 165 CURVE",
"841 295 OFFCURVE",
"847 478 OFFCURVE",
"854 666 CURVE SMOOTH",
"855 673 OFFCURVE",
"841 675 OFFCURVE",
"832 668 CURVE",
"690 560 LINE",
"687 128 LINE SMOOTH",
"688 119 OFFCURVE",
"684 111 OFFCURVE",
"678 102 CURVE",
"480 -167 OFFCURVE",
"295 -285 OFFCURVE",
"71 -285 CURVE SMOOTH",
"9 -285 OFFCURVE",
"-52 -277 OFFCURVE",
"-114 -262 CURVE SMOOTH",
"-123 -260 OFFCURVE",
"-133 -265 OFFCURVE",
"-139 -273 CURVE SMOOTH",
"-183 -342 LINE",
"-108 -375 OFFCURVE",
"62 -419 OFFCURVE",
"140 -419 CURVE SMOOTH",
"209 -419 OFFCURVE",
"276 -404 OFFCURVE",
"341 -374 CURVE SMOOTH"
);
}
);
width = 884;
},
{
anchors = (
{
name = bottom;
position = "{188, -614}";
},
{
name = ring;
position = "{492, -479}";
},
{
name = top;
position = "{731, 909}";
}
);
associatedMasterId = "00FED3EE-B3F5-49E6-B91A-35FC52169726";
layerId = "A59E3E2D-B48C-4CDD-836A-A1E73DB51526";
paths = (
{
closed = 1;
nodes = (
"578 -283 OFFCURVE",
"751 -12 OFFCURVE",
"781 180 CURVE SMOOTH",
"802 313 OFFCURVE",
"772 495 OFFCURVE",
"754 685 CURVE SMOOTH",
"753 702 OFFCURVE",
"737 710 OFFCURVE",
"718 694 CURVE SMOOTH",
"602 594 LINE SMOOTH",
"595 588 OFFCURVE",
"590 582 OFFCURVE",
"589 573 CURVE",
"658 138 LINE",
"659 132 OFFCURVE",
"658 130 OFFCURVE",
"655 123 CURVE SMOOTH",
"505 -139 OFFCURVE",
"344 -255 OFFCURVE",
"122 -255 CURVE SMOOTH",
"64 -255 OFFCURVE",
"1 -248 OFFCURVE",
"-65 -232 CURVE SMOOTH",
"-79 -229 OFFCURVE",
"-94 -238 OFFCURVE",
"-101 -253 CURVE",
"-135 -326 LINE",
"-138 -336 OFFCURVE",
"-130 -344 OFFCURVE",
"-118 -348 CURVE SMOOTH",
"7 -392 OFFCURVE",
"112 -419 OFFCURVE",
"208 -419 CURVE SMOOTH",
"278 -419 OFFCURVE",
"343 -404 OFFCURVE",
"407 -372 CURVE SMOOTH"
);
}
);
width = 887;
},
{
anchors = (
{
name = bottom;
position = "{104, -654}";
},
{
name = ring;
position = "{519, -459}";
},
{
name = top;
position = "{941, 949}";
}
);
layerId = "A4A63F56-930B-4BA2-9E35-208CEDD14325";
paths = (
{
closed = 1;
nodes = (
"-161 -362 LINE",
"-28 -413 OFFCURVE",
"72 -435 OFFCURVE",
"164 -435 CURVE SMOOTH",
"242 -435 OFFCURVE",
"318 -418 OFFCURVE",
"394 -383 CURVE SMOOTH",
"588 -293 OFFCURVE",
"824 -13 OFFCURVE",
"895 205 CURVE SMOOTH",
"943 352 OFFCURVE",
"941 552 OFFCURVE",
"956 754 CURVE",
"675 607 LINE",
"670 153 LINE",
"489 -89 OFFCURVE",
"331 -189 OFFCURVE",
"132 -189 CURVE SMOOTH",
"76 -189 OFFCURVE",
"17 -182 OFFCURVE",
"-49 -165 CURVE"
);
}
);
width = 963;
}
);
leftKerningGroup = r;
rightKerningGroup = r;
unicode = 0631;
userData = {
com.typemytype.robofont.guides = (
{
angle = 0;
isGlobal = 0;
x = "-844";
y = "-463";
}
);
};
},
{
glyphname = "reh-ar.fina";
lastChange = "2017-08-20 16:19:56 +0000";
layers = (
{
anchors = (
{
name = bottom;
position = "{293, -650}";
},
{
name = top;
position = "{603, 857}";
}
);
layerId = "93A312F7-B931-4485-B08E-C367313EB5E7";
paths = (
{
closed = 1;
nodes = (
"579 -371 OFFCURVE",
"749 -115 OFFCURVE",
"775 103 CURVE",
"836 29 OFFCURVE",
"911 0 OFFCURVE",
"1012 0 CURVE SMOOTH",
"1139 0 LINE",
"1187 60 OFFCURVE",
"1187 119 OFFCURVE",
"1139 179 CURVE",
"1012 179 LINE SMOOTH",
"825 179 OFFCURVE",
"787 259 OFFCURVE",
"725 522 CURVE SMOOTH",
"689 675 LINE SMOOTH",
"685 692 OFFCURVE",
"670 698 OFFCURVE",
"657 687 CURVE SMOOTH",
"557 596 LINE SMOOTH",
"551 591 OFFCURVE",
"549 587 OFFCURVE",
"551 580 CURVE SMOOTH",
"667 99 LINE SMOOTH",
"669 91 OFFCURVE",
"668 84 OFFCURVE",
"665 77 CURVE SMOOTH",
"530 -253 OFFCURVE",
"339 -394 OFFCURVE",
"-35 -320 CURVE SMOOTH",
"-46 -318 OFFCURVE",
"-52 -325 OFFCURVE",
"-56 -335 CURVE SMOOTH",
"-79 -402 LINE SMOOTH",
"-82 -411 OFFCURVE",
"-77 -418 OFFCURVE",
"-66 -421 CURVE SMOOTH",
"171 -500 OFFCURVE",
"288 -523 OFFCURVE",
"430 -448 CURVE SMOOTH"
);
}
);
width = 1119;
},
{
anchors = (
{
name = bottom;
position = "{311, -665}";
},
{
name = ring;
position = "{574, -356}";
},
{
name = top;
position = "{669, 847}";
}
);
layerId = "00FED3EE-B3F5-49E6-B91A-35FC52169726";
paths = (
{
closed = 1;
nodes = (
"1011 161 LINE SMOOTH",
"833 161 OFFCURVE",
"797 239 OFFCURVE",
"736 495 CURVE SMOOTH",
"701 642 LINE",
"699 654 OFFCURVE",
"680 659 OFFCURVE",
"670 651 CURVE",
"567 556 LINE",
"680 96 LINE",
"571 -201 OFFCURVE",
"433 -327 OFFCURVE",
"188 -327 CURVE SMOOTH",
"133 -327 OFFCURVE",
"77 -321 OFFCURVE",
"15 -308 CURVE SMOOTH",
"6 -306 OFFCURVE",
"-3 -311 OFFCURVE",
"-4 -318 CURVE",
"-27 -390 LINE",
"35 -421 OFFCURVE",
"217 -465 OFFCURVE",
"296 -465 CURVE SMOOTH",
"353 -465 OFFCURVE",
"404 -451 OFFCURVE",
"463 -422 CURVE SMOOTH",
"617 -346 OFFCURVE",
"759 -104 OFFCURVE",
"784 95 CURVE",
"838 31 OFFCURVE",
"911 0 OFFCURVE",
"1011 0 CURVE SMOOTH",
"1135 0 LINE",
"1157 28 OFFCURVE",
"1167 53 OFFCURVE",
"1167 81 CURVE SMOOTH",
"1167 109 OFFCURVE",
"1157 133 OFFCURVE",
"1135 161 CURVE"
);
}
);
width = 1115;
},
{
anchors = (
{
name = bottom;
position = "{321, -672}";
},
{
name = ring;
position = "{603, -501}";
},
{
name = top;
position = "{648, 878}";
}
);
layerId = "E3174D42-D779-465D-8194-70AED922C337";
paths = (
{
closed = 1;
nodes = (
"1011 191 LINE SMOOTH",
"837 191 OFFCURVE",
"804 261 OFFCURVE",
"745 513 CURVE SMOOTH",
"710 660 LINE",
"706 680 OFFCURVE",
"684 694 OFFCURVE",
"664 677 CURVE",
"567 588 LINE",
"562 584 OFFCURVE",
"558 578 OFFCURVE",
"558 570 CURVE",
"670 112 LINE",
"672 107 OFFCURVE",
"671 102 OFFCURVE",
"669 97 CURVE SMOOTH",
"565 -175 OFFCURVE",
"420 -297 OFFCURVE",
"188 -297 CURVE SMOOTH",
"135 -297 OFFCURVE",
"79 -291 OFFCURVE",
"17 -278 CURVE",
"3 -276 OFFCURVE",
"-9 -283 OFFCURVE",
"-13 -299 CURVE",
"-36 -372 LINE",
"-36 -382 OFFCURVE",
"-30 -390 OFFCURVE",
"-17 -395 CURVE",
"123 -441 OFFCURVE",
"217 -465 OFFCURVE",
"296 -465 CURVE SMOOTH",
"358 -465 OFFCURVE",
"410 -449 OFFCURVE",
"467 -420 CURVE SMOOTH",
"613 -342 OFFCURVE",
"757 -113 OFFCURVE",
"790 86 CURVE",
"846 27 OFFCURVE",
"916 0 OFFCURVE",
"1011 0 CURVE SMOOTH",
"1125 0 LINE",
"1152 32 OFFCURVE",
"1164 64 OFFCURVE",
"1164 96 CURVE SMOOTH",
"1164 128 OFFCURVE",
"1152 159 OFFCURVE",
"1125 191 CURVE"
);
}
);
width = 1115;
},
{
anchors = (
{
name = bottom;
position = "{320, -665}";
},
{
name = ring;
position = "{643, -495}";
},
{
name = top;
position = "{668, 894}";
}
);
layerId = "AB6A8399-B57F-40CA-845C-76C4C0121470";
paths = (
{
closed = 1;
nodes = (
"1011 223 LINE SMOOTH",
"861 223 OFFCURVE",
"819 264 OFFCURVE",
"764 533 CURVE SMOOTH",
"730 699 LINE",
"538 584 LINE",
"651 122 LINE",
"548 -147 OFFCURVE",
"413 -265 OFFCURVE",
"188 -265 CURVE SMOOTH",
"135 -265 OFFCURVE",
"81 -259 OFFCURVE",
"22 -246 CURVE",
"-23 -394 LINE",
"132 -445 OFFCURVE",
"221 -465 OFFCURVE",
"296 -465 CURVE SMOOTH",
"357 -465 OFFCURVE",
"413 -451 OFFCURVE",
"476 -418 CURVE SMOOTH",
"619 -343 OFFCURVE",
"759 -132 OFFCURVE",
"803 65 CURVE",
"857 21 OFFCURVE",
"926 0 OFFCURVE",
"1011 0 CURVE SMOOTH",
"1174 0 LINE",
"1209 35 OFFCURVE",
"1224 72 OFFCURVE",
"1224 112 CURVE SMOOTH",
"1224 152 OFFCURVE",
"1209 188 OFFCURVE",
"1174 223 CURVE"
);
}
);
width = 1159;
},
{
anchors = (
{
name = bottom;
position = "{320, -675}";
},
{
name = ring;
position = "{643, -495}";
},
{
name = top;
position = "{678, 974}";
}
);
layerId = "EAE1A523-EADE-4FB1-A034-E66E80F3AE4F";
paths = (
{
closed = 1;
nodes = (
"1011 273 LINE SMOOTH",
"872 273 OFFCURVE",
"839 311 OFFCURVE",
"788 563 CURVE SMOOTH",
"747 764 LINE",
"509 621 LINE",
"625 149 LINE",
"524 -110 OFFCURVE",
"397 -215 OFFCURVE",
"188 -215 CURVE SMOOTH",
"130 -215 OFFCURVE",
"71 -207 OFFCURVE",
"5 -191 CURVE",
"-54 -385 LINE",
"119 -443 OFFCURVE",
"215 -465 OFFCURVE",
"296 -465 CURVE SMOOTH",
"362 -465 OFFCURVE",
"423 -449 OFFCURVE",
"488 -415 CURVE SMOOTH",
"626 -343 OFFCURVE",
"764 -147 OFFCURVE",
"818 49 CURVE",
"871 16 OFFCURVE",
"936 0 OFFCURVE",
"1011 0 CURVE SMOOTH",
"1189 0 LINE",
"1232 39 OFFCURVE",
"1254 86 OFFCURVE",
"1254 137 CURVE SMOOTH",
"1254 188 OFFCURVE",
"1232 233 OFFCURVE",
"1189 273 CURVE"
);
}
);
width = 1159;
},
{
anchors = (
{
name = bottom;
position = "{111, -672}";
},
{
name = ring;
position = "{444, -501}";
},
{
name = top;
position = "{927, 926}";
}
);
layerId = "020FDE62-5533-4E0C-98E7-097025284E4F";
paths = (
{
closed = 1;
nodes = (
"1060 191 LINE SMOOTH",
"886 191 OFFCURVE",
"873 261 OFFCURVE",
"889 513 CURVE SMOOTH",
"899 660 LINE",
"901 680 OFFCURVE",
"883 694 OFFCURVE",
"858 677 CURVE",
"734 588 LINE",
"728 584 OFFCURVE",
"722 578 OFFCURVE",
"719 570 CURVE",
"694 112 LINE",
"695 107 OFFCURVE",
"692 102 OFFCURVE",
"690 97 CURVE SMOOTH",
"504 -175 OFFCURVE",
"322 -297 OFFCURVE",
"90 -297 CURVE SMOOTH",
"37 -297 OFFCURVE",
"-17 -291 OFFCURVE",
"-75 -278 CURVE",
"-89 -276 OFFCURVE",
"-102 -283 OFFCURVE",
"-111 -299 CURVE",
"-157 -372 LINE",
"-160 -382 OFFCURVE",
"-156 -390 OFFCURVE",
"-144 -395 CURVE",
"-18 -441 OFFCURVE",
"69 -465 OFFCURVE",
"148 -465 CURVE SMOOTH",
"210 -465 OFFCURVE",
"266 -449 OFFCURVE",
"332 -420 CURVE SMOOTH",
"502 -342 OFFCURVE",
"715 -113 OFFCURVE",
"806 86 CURVE",
"845 27 OFFCURVE",
"907 0 OFFCURVE",
"1002 0 CURVE SMOOTH",
"1116 0 LINE",
"1153 32 OFFCURVE",
"1174 64 OFFCURVE",
"1184 96 CURVE SMOOTH",
"1194 128 OFFCURVE",
"1191 159 OFFCURVE",
"1174 191 CURVE"
);
}
);
width = 1104;
},
{
anchors = (
{
name = bottom;
position = "{95, -665}";
},
{
name = ring;
position = "{458, -356}";
},
{
name = top;
position = "{944, 847}";
}
);
layerId = "CC24164E-6342-4A92-AABB-B05B5693BF45";
paths = (
{
closed = 1;
nodes = (
"1063 161 LINE SMOOTH",
"885 161 OFFCURVE",
"875 239 OFFCURVE",
"897 495 CURVE SMOOTH",
"910 642 LINE",
"912 654 OFFCURVE",
"894 659 OFFCURVE",
"882 651 CURVE",
"748 556 LINE",
"711 96 LINE",
"506 -201 OFFCURVE",
"327 -327 OFFCURVE",
"82 -327 CURVE SMOOTH",
"27 -327 OFFCURVE",
"-27 -321 OFFCURVE",
"-85 -308 CURVE SMOOTH",
"-93 -306 OFFCURVE",
"-104 -311 OFFCURVE",
"-107 -318 CURVE",
"-154 -390 LINE",
"-102 -421 OFFCURVE",
"66 -465 OFFCURVE",
"145 -465 CURVE SMOOTH",
"202 -465 OFFCURVE",
"258 -451 OFFCURVE",
"326 -422 CURVE SMOOTH",
"505 -346 OFFCURVE",
"725 -104 OFFCURVE",
"815 95 CURVE",
"848 31 OFFCURVE",
"911 0 OFFCURVE",
"1011 0 CURVE SMOOTH",
"1135 0 LINE",
"1166 28 OFFCURVE",
"1184 53 OFFCURVE",
"1193 81 CURVE SMOOTH",
"1203 109 OFFCURVE",
"1200 133 OFFCURVE",
"1187 161 CURVE"
);
}
);
width = 1115;
},
{
anchors = (
{
name = bottom;
position = "{216, -672}";
},
{
name = ring;
position = "{524, -501}";
},
{
name = top;
position = "{788, 902}";
}
);
associatedMasterId = "00FED3EE-B3F5-49E6-B91A-35FC52169726";
layerId = "A59E3E2D-B48C-4CDD-836A-A1E73DB51526";
paths = (
{
closed = 1;
nodes = (
"1036 191 LINE SMOOTH",
"862 191 OFFCURVE",
"839 261 OFFCURVE",
"817 513 CURVE SMOOTH",
"805 660 LINE",
"804 680 OFFCURVE",
"784 694 OFFCURVE",
"761 677 CURVE",
"651 588 LINE",
"645 584 OFFCURVE",
"640 578 OFFCURVE",
"639 570 CURVE",
"682 112 LINE",
"684 107 OFFCURVE",
"682 102 OFFCURVE",
"680 97 CURVE SMOOTH",
"535 -175 OFFCURVE",
"371 -297 OFFCURVE",
"139 -297 CURVE SMOOTH",
"86 -297 OFFCURVE",
"31 -291 OFFCURVE",
"-29 -278 CURVE",
"-43 -276 OFFCURVE",
"-56 -283 OFFCURVE",
"-62 -299 CURVE",
"-97 -372 LINE",
"-98 -382 OFFCURVE",
"-93 -390 OFFCURVE",
"-81 -395 CURVE",
"53 -441 OFFCURVE",
"143 -465 OFFCURVE",
"222 -465 CURVE SMOOTH",
"284 -465 OFFCURVE",
"338 -449 OFFCURVE",
"400 -420 CURVE SMOOTH",
"558 -342 OFFCURVE",
"736 -113 OFFCURVE",
"798 86 CURVE",
"846 27 OFFCURVE",
"912 0 OFFCURVE",
"1007 0 CURVE SMOOTH",
"1121 0 LINE",
"1153 32 OFFCURVE",
"1169 64 OFFCURVE",
"1174 96 CURVE SMOOTH",
"1179 128 OFFCURVE",
"1172 159 OFFCURVE",
"1150 191 CURVE"
);
}
);
width = 1110;
},
{
anchors = (
{
name = bottom;
position = "{101, -675}";
},
{
name = ring;
position = "{483, -495}";
},
{
name = top;
position = "{995, 974}";
}
);
layerId = "A4A63F56-930B-4BA2-9E35-208CEDD14325";
paths = (
{
closed = 1;
nodes = (
"1100 273 LINE SMOOTH",
"961 273 OFFCURVE",
"940 311 OFFCURVE",
"971 563 CURVE SMOOTH",
"996 764 LINE",
"711 621 LINE",
"674 149 LINE",
"489 -110 OFFCURVE",
"328 -215 OFFCURVE",
"119 -215 CURVE SMOOTH",
"61 -215 OFFCURVE",
"4 -207 OFFCURVE",
"-57 -191 CURVE",
"-179 -385 LINE",
"-25 -443 OFFCURVE",
"64 -465 OFFCURVE",
"145 -465 CURVE SMOOTH",
"211 -465 OFFCURVE",
"278 -449 OFFCURVE",
"354 -415 CURVE SMOOTH",
"515 -343 OFFCURVE",
"717 -147 OFFCURVE",
"834 49 CURVE",
"877 16 OFFCURVE",
"936 0 OFFCURVE",
"1011 0 CURVE SMOOTH",
"1189 0 LINE",
"1245 39 OFFCURVE",
"1282 86 OFFCURVE",
"1299 137 CURVE SMOOTH",
"1316 188 OFFCURVE",
"1308 233 OFFCURVE",
"1278 273 CURVE"
);
}
);
width = 1159;
}
);
leftKerningGroup = r;
rightKerningGroup = r;
unicode = FEAE;
userData = {
com.typemytype.robofont.guides = (
{
angle = 0;
isGlobal = 0;
x = 618;
y = 606;
}
);
};
},
{
glyphname = "seen-ar";
lastChange = "2017-08-20 16:21:23 +0000";
layers = (
{
anchors = (
{
name = bottom;
position = "{706, -704}";
},
{
name = top;
position = "{742, 713}";
}
);
layerId = "93A312F7-B931-4485-B08E-C367313EB5E7";
paths = (
{
closed = 1;
nodes = (
"815 -531 OFFCURVE",
"1174 -437 OFFCURVE",
"1294 -271 CURVE SMOOTH",
"1346 -200 OFFCURVE",
"1339 -109 OFFCURVE",
"1327 22 CURVE",
"1436 -26 OFFCURVE",
"1773 -17 OFFCURVE",
"1862 95 CURVE",
"1947 43 OFFCURVE",
"2065 -3 OFFCURVE",
"2170 -6 CURVE SMOOTH",
"2414 -14 OFFCURVE",
"2517 46 OFFCURVE",
"2510 308 CURVE SMOOTH",
"2507 409 OFFCURVE",
"2474 670 OFFCURVE",
"2433 839 CURVE SMOOTH",
"2430 852 OFFCURVE",
"2419 854 OFFCURVE",
"2410 844 CURVE SMOOTH",
"2307 739 LINE SMOOTH",
"2301 733 OFFCURVE",
"2299 726 OFFCURVE",
"2301 716 CURVE SMOOTH",
"2413 213 LINE SMOOTH",
"2416 199 OFFCURVE",
"2406 188 OFFCURVE",
"2393 185 CURVE SMOOTH",
"2234 153 OFFCURVE",
"2098 164 OFFCURVE",
"1958 225 CURVE SMOOTH",
"1953 227 OFFCURVE",
"1948 233 OFFCURVE",
"1949 241 CURVE SMOOTH",
"1988 582 LINE SMOOTH",
"1989 593 OFFCURVE",
"1983 600 OFFCURVE",
"1972 601 CURVE SMOOTH",
"1898 607 LINE SMOOTH",
"1889 608 OFFCURVE",
"1882 603 OFFCURVE",
"1880 592 CURVE SMOOTH",
"1846 347 LINE SMOOTH",
"1826 201 OFFCURVE",
"1704 172 OFFCURVE",
"1546 174 CURVE SMOOTH",
"1403 176 OFFCURVE",
"1310 192 OFFCURVE",
"1294 302 CURVE SMOOTH",
"1256 569 LINE SMOOTH",
"1253 588 OFFCURVE",
"1236 593 OFFCURVE",
"1222 583 CURVE SMOOTH",
"1112 501 LINE SMOOTH",
"1108 498 OFFCURVE",
"1105 492 OFFCURVE",
"1106 486 CURVE SMOOTH",
"1213 -177 LINE SMOOTH",
"1214 -184 OFFCURVE",
"1211 -191 OFFCURVE",
"1204 -194 CURVE SMOOTH",
"1144 -222 OFFCURVE",
"881 -330 OFFCURVE",
"616 -330 CURVE SMOOTH",
"391 -330 OFFCURVE",
"251 -217 OFFCURVE",
"302 61 CURVE SMOOTH",
"337 251 LINE SMOOTH",
"339 262 OFFCURVE",
"331 270 OFFCURVE",
"321 271 CURVE SMOOTH",
"247 282 LINE SMOOTH",
"238 283 OFFCURVE",
"230 278 OFFCURVE",
"228 268 CURVE SMOOTH",
"186 38 LINE SMOOTH",
"133 -255 OFFCURVE",
"221 -531 OFFCURVE",
"589 -531 CURVE SMOOTH"
);
}
);
width = 2648;
},
{
anchors = (
{
name = bottom;
position = "{594, -710}";
},
{
name = top;
position = "{718, 633}";
}
);
layerId = "00FED3EE-B3F5-49E6-B91A-35FC52169726";
paths = (
{
closed = 1;
nodes = (
"799 -510 OFFCURVE",
"1145 -420 OFFCURVE",
"1258 -262 CURVE SMOOTH",
"1305 -196 OFFCURVE",
"1302 -102 OFFCURVE",
"1289 20 CURVE",
"1324 5 OFFCURVE",
"1395 -5 OFFCURVE",
"1469 -5 CURVE SMOOTH",
"1622 -5 OFFCURVE",
"1761 34 OFFCURVE",
"1804 89 CURVE",
"1907 26 OFFCURVE",
"2021 -7 OFFCURVE",
"2135 -7 CURVE SMOOTH",
"2357 -7 OFFCURVE",
"2432 69 OFFCURVE",
"2425 290 CURVE SMOOTH",
"2422 386 OFFCURVE",
"2385 635 OFFCURVE",
"2352 798 CURVE SMOOTH",
"2350 808 OFFCURVE",
"2343 808 OFFCURVE",
"2336 801 CURVE SMOOTH",
"2223 690 LINE",
"2321 245 LINE",
"2342 154 OFFCURVE",
"2234 150 OFFCURVE",
"2154 150 CURVE SMOOTH",
"2065 150 OFFCURVE",
"1977 168 OFFCURVE",
"1890 205 CURVE",
"1926 561 LINE",
"1927 568 OFFCURVE",
"1921 572 OFFCURVE",
"1910 573 CURVE SMOOTH",
"1839 579 LINE SMOOTH",
"1830 580 OFFCURVE",
"1822 575 OFFCURVE",
"1821 570 CURVE SMOOTH",
"1787 327 LINE SMOOTH",
"1770 205 OFFCURVE",
"1710 156 OFFCURVE",
"1510 156 CURVE SMOOTH",
"1308 156 OFFCURVE",
"1274 171 OFFCURVE",
"1258 283 CURVE SMOOTH",
"1222 540 LINE",
"1221 548 OFFCURVE",
"1210 556 OFFCURVE",
"1199 551 CURVE",
"1076 463 LINE",
"1191 -186 LINE",
"1132 -215 OFFCURVE",
"860 -328 OFFCURVE",
"607 -328 CURVE SMOOTH",
"404 -328 OFFCURVE",
"296 -231 OFFCURVE",
"296 -50 CURVE",
"296 10 OFFCURVE",
"306 40 OFFCURVE",
"339 237 CURVE SMOOTH",
"340 243 OFFCURVE",
"334 247 OFFCURVE",
"323 249 CURVE SMOOTH",
"252 260 LINE SMOOTH",
"243 261 OFFCURVE",
"235 257 OFFCURVE",
"234 252 CURVE",
"186 -7 OFFCURVE",
"180 -31 OFFCURVE",
"180 -111 CURVE SMOOTH",
"180 -368 OFFCURVE",
"323 -510 OFFCURVE",
"581 -510 CURVE SMOOTH"
);
}
);
width = 2565;
},
{
anchors = (
{
name = bottom;
position = "{596, -705}";
},
{
name = top;
position = "{700, 678}";
}
);
layerId = "E3174D42-D779-465D-8194-70AED922C337";
paths = (
{
closed = 1;
nodes = (
"801 -510 OFFCURVE",
"1150 -419 OFFCURVE",
"1267 -256 CURVE SMOOTH",
"1299 -213 OFFCURVE",
"1308 -162 OFFCURVE",
"1308 -100 CURVE SMOOTH",
"1308 -65 OFFCURVE",
"1306 -26 OFFCURVE",
"1302 16 CURVE",
"1342 3 OFFCURVE",
"1404 -5 OFFCURVE",
"1471 -5 CURVE SMOOTH",
"1598 -5 OFFCURVE",
"1747 23 OFFCURVE",
"1807 88 CURVE",
"1906 29 OFFCURVE",
"2017 -7 OFFCURVE",
"2137 -7 CURVE SMOOTH",
"2364 -7 OFFCURVE",
"2443 76 OFFCURVE",
"2436 305 CURVE SMOOTH",
"2434 403 OFFCURVE",
"2402 655 OFFCURVE",
"2363 817 CURVE SMOOTH",
"2360 829 OFFCURVE",
"2352 835 OFFCURVE",
"2342 835 CURVE SMOOTH",
"2337 835 OFFCURVE",
"2330 832 OFFCURVE",
"2324 827 CURVE SMOOTH",
"2225 726 LINE SMOOTH",
"2220 719 OFFCURVE",
"2216 711 OFFCURVE",
"2216 703 CURVE",
"2324 212 LINE",
"2326 205 OFFCURVE",
"2321 199 OFFCURVE",
"2313 197 CURVE SMOOTH",
"2258 186 OFFCURVE",
"2206 180 OFFCURVE",
"2156 180 CURVE SMOOTH",
"2067 180 OFFCURVE",
"1984 198 OFFCURVE",
"1901 234 CURVE SMOOTH",
"1899 235 OFFCURVE",
"1898 237 OFFCURVE",
"1898 240 CURVE SMOOTH",
"1937 574 LINE SMOOTH",
"1939 589 OFFCURVE",
"1929 602 OFFCURVE",
"1913 603 CURVE SMOOTH",
"1842 609 LINE SMOOTH",
"1828 610 OFFCURVE",
"1816 602 OFFCURVE",
"1814 587 CURVE SMOOTH",
"1780 344 LINE SMOOTH",
"1764 231 OFFCURVE",
"1686 186 OFFCURVE",
"1512 186 CURVE SMOOTH",
"1370 186 OFFCURVE",
"1283 200 OFFCURVE",
"1269 300 CURVE SMOOTH",
"1233 557 LINE SMOOTH",
"1230 574 OFFCURVE",
"1217 584 OFFCURVE",
"1204 584 CURVE SMOOTH",
"1197 584 OFFCURVE",
"1190 582 OFFCURVE",
"1185 577 CURVE SMOOTH",
"1079 498 LINE SMOOTH",
"1073 494 OFFCURVE",
"1069 485 OFFCURVE",
"1069 477 CURVE",
"1172 -162 LINE",
"1173 -165 OFFCURVE",
"1171 -167 OFFCURVE",
"1169 -168 CURVE SMOOTH",
"1112 -195 OFFCURVE",
"861 -298 OFFCURVE",
"609 -298 CURVE SMOOTH",
"410 -298 OFFCURVE",
"307 -206 OFFCURVE",
"307 -35 CURVE SMOOTH",
"307 22 OFFCURVE",
"314 49 OFFCURVE",
"350 249 CURVE SMOOTH",
"353 264 OFFCURVE",
"342 277 OFFCURVE",
"326 279 CURVE SMOOTH",
"255 290 LINE SMOOTH",
"241 292 OFFCURVE",
"229 283 OFFCURVE",
"227 269 CURVE SMOOTH",
"180 14 OFFCURVE",
"173 -13 OFFCURVE",
"173 -96 CURVE SMOOTH",
"173 -322 OFFCURVE",
"284 -510 OFFCURVE",
"583 -510 CURVE SMOOTH"
);
}
);
width = 2571;
},
{
anchors = (
{
name = bottom;
position = "{613, -705}";
},
{
name = top;
position = "{697, 668}";
}
);
layerId = "AB6A8399-B57F-40CA-845C-76C4C0121470";
paths = (
{
closed = 1;
nodes = (
"180 -350 OFFCURVE",
"336 -506 OFFCURVE",
"610 -506 CURVE SMOOTH",
"831 -506 OFFCURVE",
"1190 -412 OFFCURVE",
"1310 -245 CURVE SMOOTH",
"1341 -202 OFFCURVE",
"1355 -153 OFFCURVE",
"1355 -80 CURVE SMOOTH",
"1355 -51 OFFCURVE",
"1354 -20 OFFCURVE",
"1351 13 CURVE",
"1391 4 OFFCURVE",
"1444 -1 OFFCURVE",
"1498 -1 CURVE SMOOTH",
"1644 -1 OFFCURVE",
"1776 33 OFFCURVE",
"1837 86 CURVE",
"1941 27 OFFCURVE",
"2052 -3 OFFCURVE",
"2164 -3 CURVE SMOOTH",
"2403 -3 OFFCURVE",
"2490 87 OFFCURVE",
"2483 325 CURVE SMOOTH",
"2480 424 OFFCURVE",
"2449 677 OFFCURVE",
"2409 841 CURVE",
"2223 722 LINE",
"2331 231 LINE",
"2276 221 OFFCURVE",
"2229 216 OFFCURVE",
"2183 216 CURVE SMOOTH",
"2101 216 OFFCURVE",
"2024 232 OFFCURVE",
"1946 265 CURVE",
"1984 592 LINE",
"1821 609 LINE",
"1787 366 LINE SMOOTH",
"1772 262 OFFCURVE",
"1705 222 OFFCURVE",
"1539 222 CURVE SMOOTH",
"1377 222 OFFCURVE",
"1326 245 OFFCURVE",
"1316 322 CURVE SMOOTH",
"1280 599 LINE",
"1280 600 LINE",
"1076 496 LINE",
"1178 -138 LINE",
"1107 -170 OFFCURVE",
"872 -262 OFFCURVE",
"636 -262 CURVE SMOOTH",
"449 -262 OFFCURVE",
"354 -178 OFFCURVE",
"354 -15 CURVE SMOOTH",
"354 40 OFFCURVE",
"361 66 OFFCURVE",
"397 266 CURVE",
"234 291 LINE",
"234 292 LINE",
"187 37 OFFCURVE",
"180 9 OFFCURVE",
"180 -76 CURVE SMOOTH"
);
},
{
closed = 1;
nodes = (
"1187 -134 LINE",
"1186 -135 LINE"
);
}
);
width = 2623;
},
{
anchors = (
{
name = bottom;
position = "{631, -725}";
},
{
name = top;
position = "{715, 698}";
}
);
layerId = "EAE1A523-EADE-4FB1-A034-E66E80F3AE4F";
paths = (
{
closed = 1;
nodes = (
"173 -338 OFFCURVE",
"340 -506 OFFCURVE",
"628 -506 CURVE SMOOTH",
"852 -506 OFFCURVE",
"1222 -408 OFFCURVE",
"1348 -235 CURVE SMOOTH",
"1383 -187 OFFCURVE",
"1398 -131 OFFCURVE",
"1398 -55 CURVE SMOOTH",
"1398 -33 OFFCURVE",
"1397 -12 OFFCURVE",
"1396 7 CURVE",
"1432 2 OFFCURVE",
"1474 -1 OFFCURVE",
"1516 -1 CURVE SMOOTH",
"1657 -1 OFFCURVE",
"1787 30 OFFCURVE",
"1857 81 CURVE",
"1960 26 OFFCURVE",
"2071 -3 OFFCURVE",
"2182 -3 CURVE SMOOTH",
"2435 -3 OFFCURVE",
"2533 98 OFFCURVE",
"2526 351 CURVE SMOOTH",
"2523 458 OFFCURVE",
"2487 744 OFFCURVE",
"2443 906 CURVE",
"2213 759 LINE",
"2319 276 LINE",
"2275 269 OFFCURVE",
"2237 266 OFFCURVE",
"2201 266 CURVE SMOOTH",
"2128 266 OFFCURVE",
"2060 279 OFFCURVE",
"1991 306 CURVE",
"2030 639 LINE",
"1818 661 LINE",
"1780 394 LINE SMOOTH",
"1767 305 OFFCURVE",
"1711 272 OFFCURVE",
"1557 272 CURVE SMOOTH",
"1406 272 OFFCURVE",
"1366 290 OFFCURVE",
"1359 350 CURVE SMOOTH",
"1323 666 LINE",
"1066 535 LINE",
"1168 -98 LINE",
"1082 -134 OFFCURVE",
"869 -212 OFFCURVE",
"654 -212 CURVE SMOOTH",
"481 -212 OFFCURVE",
"397 -139 OFFCURVE",
"397 10 CURVE SMOOTH",
"397 64 OFFCURVE",
"404 83 OFFCURVE",
"444 307 CURVE",
"229 329 LINE",
"182 74 OFFCURVE",
"173 36 OFFCURVE",
"173 -51 CURVE SMOOTH"
);
}
);
width = 2662;
},
{
anchors = (
{
name = bottom;
position = "{440, -725}";
},
{
name = top;
position = "{900, 678}";
}
);
layerId = "020FDE62-5533-4E0C-98E7-097025284E4F";
paths = (
{
closed = 1;
nodes = (
"645 -510 OFFCURVE",
"1022 -419 OFFCURVE",
"1188 -256 CURVE SMOOTH",
"1233 -213 OFFCURVE",
"1257 -162 OFFCURVE",
"1275 -100 CURVE SMOOTH",
"1286 -65 OFFCURVE",
"1295 -26 OFFCURVE",
"1305 16 CURVE",
"1340 3 OFFCURVE",
"1399 -5 OFFCURVE",
"1466 -5 CURVE SMOOTH",
"1593 -5 OFFCURVE",
"1751 23 OFFCURVE",
"1831 88 CURVE",
"1912 29 OFFCURVE",
"2012 -7 OFFCURVE",
"2132 -7 CURVE SMOOTH",
"2359 -7 OFFCURVE",
"2463 76 OFFCURVE",
"2525 305 CURVE SMOOTH",
"2552 403 OFFCURVE",
"2596 655 OFFCURVE",
"2605 817 CURVE SMOOTH",
"2606 829 OFFCURVE",
"2600 835 OFFCURVE",
"2590 835 CURVE SMOOTH",
"2585 835 OFFCURVE",
"2576 832 OFFCURVE",
"2569 827 CURVE SMOOTH",
"2440 726 LINE SMOOTH",
"2432 719 OFFCURVE",
"2427 711 OFFCURVE",
"2424 703 CURVE",
"2385 212 LINE",
"2384 205 OFFCURVE",
"2378 199 OFFCURVE",
"2370 197 CURVE SMOOTH",
"2311 186 OFFCURVE",
"2257 180 OFFCURVE",
"2207 180 CURVE SMOOTH",
"2118 180 OFFCURVE",
"2041 198 OFFCURVE",
"1969 234 CURVE SMOOTH",
"1967 235 OFFCURVE",
"1966 237 OFFCURVE",
"1967 240 CURVE SMOOTH",
"2106 574 LINE SMOOTH",
"2113 589 OFFCURVE",
"2106 602 OFFCURVE",
"2091 603 CURVE SMOOTH",
"2022 609 LINE SMOOTH",
"2008 610 OFFCURVE",
"1993 602 OFFCURVE",
"1988 587 CURVE SMOOTH",
"1880 344 LINE SMOOTH",
"1830 231 OFFCURVE",
"1739 186 OFFCURVE",
"1565 186 CURVE SMOOTH",
"1423 186 OFFCURVE",
"1340 200 OFFCURVE",
"1356 300 CURVE SMOOTH",
"1397 557 LINE SMOOTH",
"1399 574 OFFCURVE",
"1389 584 OFFCURVE",
"1376 584 CURVE SMOOTH",
"1369 584 OFFCURVE",
"1362 582 OFFCURVE",
"1356 577 CURVE SMOOTH",
"1225 498 LINE SMOOTH",
"1218 494 OFFCURVE",
"1212 485 OFFCURVE",
"1209 477 CURVE",
"1121 -162 LINE",
"1121 -165 OFFCURVE",
"1118 -167 OFFCURVE",
"1116 -168 CURVE SMOOTH",
"1051 -195 OFFCURVE",
"769 -298 OFFCURVE",
"517 -298 CURVE SMOOTH",
"318 -298 OFFCURVE",
"242 -206 OFFCURVE",
"294 -35 CURVE SMOOTH",
"311 22 OFFCURVE",
"326 49 OFFCURVE",
"422 249 CURVE SMOOTH",
"430 264 OFFCURVE",
"422 277 OFFCURVE",
"407 279 CURVE SMOOTH",
"339 290 LINE SMOOTH",
"326 292 OFFCURVE",
"311 283 OFFCURVE",
"305 269 CURVE SMOOTH",
"181 14 OFFCURVE",
"167 -13 OFFCURVE",
"142 -96 CURVE SMOOTH",
"74 -322 OFFCURVE",
"128 -510 OFFCURVE",
"427 -510 CURVE SMOOTH"
);
}
);
width = 2562;
},
{
anchors = (
{
name = bottom;
position = "{363, -710}";
},
{
name = top;
position = "{924, 633}";
}
);
layerId = "CC24164E-6342-4A92-AABB-B05B5693BF45";
paths = (
{
closed = 1;
nodes = (
"633 -510 OFFCURVE",
"1008 -420 OFFCURVE",
"1173 -262 CURVE SMOOTH",
"1241 -196 OFFCURVE",
"1269 -102 OFFCURVE",
"1295 20 CURVE",
"1326 5 OFFCURVE",
"1393 -5 OFFCURVE",
"1467 -5 CURVE SMOOTH",
"1620 -5 OFFCURVE",
"1772 34 OFFCURVE",
"1833 89 CURVE",
"1915 26 OFFCURVE",
"2019 -7 OFFCURVE",
"2133 -7 CURVE SMOOTH",
"2355 -7 OFFCURVE",
"2454 69 OFFCURVE",
"2519 290 CURVE SMOOTH",
"2547 386 OFFCURVE",
"2591 635 OFFCURVE",
"2611 798 CURVE SMOOTH",
"2612 808 OFFCURVE",
"2605 808 OFFCURVE",
"2596 801 CURVE SMOOTH",
"2447 690 LINE",
"2401 245 LINE",
"2392 154 OFFCURVE",
"2283 150 OFFCURVE",
"2203 150 CURVE SMOOTH",
"2114 150 OFFCURVE",
"2032 168 OFFCURVE",
"1957 205 CURVE",
"2108 561 LINE",
"2111 568 OFFCURVE",
"2107 572 OFFCURVE",
"2096 573 CURVE SMOOTH",
"2027 579 LINE SMOOTH",
"2018 580 OFFCURVE",
"2009 575 OFFCURVE",
"2006 570 CURVE SMOOTH",
"1893 327 LINE SMOOTH",
"1837 205 OFFCURVE",
"1761 156 OFFCURVE",
"1561 156 CURVE SMOOTH",
"1359 156 OFFCURVE",
"1329 171 OFFCURVE",
"1350 283 CURVE SMOOTH",
"1397 540 LINE",
"1399 548 OFFCURVE",
"1391 556 OFFCURVE",
"1378 551 CURVE",
"1226 463 LINE",
"1130 -186 LINE",
"1062 -215 OFFCURVE",
"753 -328 OFFCURVE",
"500 -328 CURVE SMOOTH",
"297 -328 OFFCURVE",
"221 -231 OFFCURVE",
"280 -50 CURVE",
"299 10 OFFCURVE",
"319 40 OFFCURVE",
"416 237 CURVE SMOOTH",
"419 243 OFFCURVE",
"414 247 OFFCURVE",
"404 249 CURVE SMOOTH",
"336 260 LINE SMOOTH",
"328 261 OFFCURVE",
"318 257 OFFCURVE",
"316 252 CURVE",
"184 -7 OFFCURVE",
"170 -31 OFFCURVE",
"144 -111 CURVE SMOOTH",
"60 -368 OFFCURVE",
"157 -510 OFFCURVE",
"415 -510 CURVE SMOOTH"
);
}
);
width = 2565;
},
{
anchors = (
{
name = bottom;
position = "{518, -715}";
},
{
name = top;
position = "{800, 678}";
}
);
associatedMasterId = "00FED3EE-B3F5-49E6-B91A-35FC52169726";
layerId = "A59E3E2D-B48C-4CDD-836A-A1E73DB51526";
paths = (
{
closed = 1;
nodes = (
"723 -510 OFFCURVE",
"1086 -419 OFFCURVE",
"1228 -256 CURVE SMOOTH",
"1266 -213 OFFCURVE",
"1283 -162 OFFCURVE",
"1292 -100 CURVE SMOOTH",
"1297 -65 OFFCURVE",
"1301 -26 OFFCURVE",
"1304 16 CURVE",
"1341 3 OFFCURVE",
"1402 -5 OFFCURVE",
"1469 -5 CURVE SMOOTH",
"1596 -5 OFFCURVE",
"1749 23 OFFCURVE",
"1819 88 CURVE",
"1909 29 OFFCURVE",
"2015 -7 OFFCURVE",
"2135 -7 CURVE SMOOTH",
"2362 -7 OFFCURVE",
"2453 76 OFFCURVE",
"2481 305 CURVE SMOOTH",
"2493 403 OFFCURVE",
"2499 655 OFFCURVE",
"2484 817 CURVE SMOOTH",
"2483 829 OFFCURVE",
"2476 835 OFFCURVE",
"2466 835 CURVE SMOOTH",
"2461 835 OFFCURVE",
"2453 832 OFFCURVE",
"2447 827 CURVE SMOOTH",
"2333 726 LINE SMOOTH",
"2326 719 OFFCURVE",
"2322 711 OFFCURVE",
"2320 703 CURVE",
"2355 212 LINE",
"2355 205 OFFCURVE",
"2350 199 OFFCURVE",
"2342 197 CURVE SMOOTH",
"2285 186 OFFCURVE",
"2232 180 OFFCURVE",
"2182 180 CURVE SMOOTH",
"2093 180 OFFCURVE",
"2013 198 OFFCURVE",
"1935 234 CURVE SMOOTH",
"1933 235 OFFCURVE",
"1932 237 OFFCURVE",
"1933 240 CURVE SMOOTH",
"2022 574 LINE SMOOTH",
"2026 589 OFFCURVE",
"2018 602 OFFCURVE",
"2002 603 CURVE SMOOTH",
"1932 609 LINE SMOOTH",
"1918 610 OFFCURVE",
"1905 602 OFFCURVE",
"1901 587 CURVE SMOOTH",
"1830 344 LINE SMOOTH",
"1797 231 OFFCURVE",
"1713 186 OFFCURVE",
"1539 186 CURVE SMOOTH",
"1397 186 OFFCURVE",
"1312 200 OFFCURVE",
"1313 300 CURVE SMOOTH",
"1315 557 LINE SMOOTH",
"1315 574 OFFCURVE",
"1303 584 OFFCURVE",
"1290 584 CURVE SMOOTH",
"1283 584 OFFCURVE",
"1276 582 OFFCURVE",
"1271 577 CURVE SMOOTH",
"1152 498 LINE SMOOTH",
"1146 494 OFFCURVE",
"1141 485 OFFCURVE",
"1139 477 CURVE",
"1147 -162 LINE",
"1147 -165 OFFCURVE",
"1145 -167 OFFCURVE",
"1143 -168 CURVE SMOOTH",
"1082 -195 OFFCURVE",
"815 -298 OFFCURVE",
"563 -298 CURVE SMOOTH",
"364 -298 OFFCURVE",
"275 -206 OFFCURVE",
"301 -35 CURVE SMOOTH",
"309 22 OFFCURVE",
"320 49 OFFCURVE",
"386 249 CURVE SMOOTH",
"392 264 OFFCURVE",
"382 277 OFFCURVE",
"367 279 CURVE SMOOTH",
"297 290 LINE SMOOTH",
"284 292 OFFCURVE",
"270 283 OFFCURVE",
"266 269 CURVE SMOOTH",
"181 14 OFFCURVE",
"170 -13 OFFCURVE",
"158 -96 CURVE SMOOTH",
"124 -322 OFFCURVE",
"206 -510 OFFCURVE",
"505 -510 CURVE SMOOTH"
);
}
);
width = 2567;
},
{
anchors = (
{
name = bottom;
position = "{395, -725}";
},
{
name = top;
position = "{942, 698}";
}
);
layerId = "A4A63F56-930B-4BA2-9E35-208CEDD14325";
paths = (
{
closed = 1;
nodes = (
"63 -338 OFFCURVE",
"176 -506 OFFCURVE",
"464 -506 CURVE SMOOTH",
"688 -506 OFFCURVE",
"1089 -408 OFFCURVE",
"1272 -235 CURVE SMOOTH",
"1322 -187 OFFCURVE",
"1355 -131 OFFCURVE",
"1380 -55 CURVE SMOOTH",
"1387 -33 OFFCURVE",
"1393 -12 OFFCURVE",
"1398 7 CURVE",
"1433 2 OFFCURVE",
"1474 -1 OFFCURVE",
"1516 -1 CURVE SMOOTH",
"1657 -1 OFFCURVE",
"1797 30 OFFCURVE",
"1883 81 CURVE",
"1968 26 OFFCURVE",
"2070 -3 OFFCURVE",
"2181 -3 CURVE SMOOTH",
"2434 -3 OFFCURVE",
"2565 98 OFFCURVE",
"2640 351 CURVE SMOOTH",
"2672 458 OFFCURVE",
"2729 744 OFFCURVE",
"2737 906 CURVE",
"2460 759 LINE",
"2409 276 LINE",
"2362 269 OFFCURVE",
"2323 266 OFFCURVE",
"2287 266 CURVE SMOOTH",
"2214 266 OFFCURVE",
"2151 279 OFFCURVE",
"2090 306 CURVE",
"2238 639 LINE",
"2033 661 LINE",
"1908 394 LINE SMOOTH",
"1866 305 OFFCURVE",
"1799 272 OFFCURVE",
"1645 272 CURVE SMOOTH",
"1494 272 OFFCURVE",
"1460 290 OFFCURVE",
"1473 350 CURVE SMOOTH",
"1539 666 LINE",
"1240 535 LINE",
"1136 -98 LINE",
"1038 -134 OFFCURVE",
"800 -212 OFFCURVE",
"585 -212 CURVE SMOOTH",
"412 -212 OFFCURVE",
"352 -139 OFFCURVE",
"400 10 CURVE SMOOTH",
"418 64 OFFCURVE",
"431 83 OFFCURVE",
"544 307 CURVE",
"336 329 LINE",
"206 74 OFFCURVE",
"185 36 OFFCURVE",
"156 -51 CURVE SMOOTH"
);
}
);
width = 2661;
}
);
leftKerningGroup = all;
unicode = 0633;
},
{
glyphname = "seen-ar.fina";
lastChange = "2017-08-20 16:21:33 +0000";
layers = (
{
anchors = (
{
name = bottom;
position = "{706, -704}";
},
{
name = top;
position = "{742, 713}";
}
);
layerId = "93A312F7-B931-4485-B08E-C367313EB5E7";
paths = (
{
closed = 1;
nodes = (
"816 -531 OFFCURVE",
"1175 -437 OFFCURVE",
"1295 -271 CURVE SMOOTH",
"1347 -200 OFFCURVE",
"1340 -110 OFFCURVE",
"1328 21 CURVE",
"1404 0 OFFCURVE",
"1490 -9 OFFCURVE",
"1561 -9 CURVE SMOOTH",
"1689 -8 OFFCURVE",
"1817 28 OFFCURVE",
"1864 87 CURVE",
"1949 35 OFFCURVE",
"2068 -1 OFFCURVE",
"2172 -3 CURVE SMOOTH",
"2337 -9 OFFCURVE",
"2456 16 OFFCURVE",
"2506 115 CURVE SMOOTH",
"2514 130 OFFCURVE",
"2528 132 OFFCURVE",
"2539 118 CURVE SMOOTH",
"2600 41 OFFCURVE",
"2688 0 OFFCURVE",
"2790 0 CURVE SMOOTH",
"2890 0 LINE",
"2938 60 OFFCURVE",
"2938 119 OFFCURVE",
"2890 179 CURVE",
"2790 179 LINE SMOOTH",
"2613 179 OFFCURVE",
"2578 260 OFFCURVE",
"2537 522 CURVE SMOOTH",
"2513 675 LINE SMOOTH",
"2511 691 OFFCURVE",
"2493 697 OFFCURVE",
"2481 687 CURVE SMOOTH",
"2381 607 LINE SMOOTH",
"2375 602 OFFCURVE",
"2374 598 OFFCURVE",
"2375 591 CURVE SMOOTH",
"2438 208 LINE SMOOTH",
"2440 198 OFFCURVE",
"2435 188 OFFCURVE",
"2424 186 CURVE SMOOTH",
"2260 154 OFFCURVE",
"2101 162 OFFCURVE",
"1961 228 CURVE SMOOTH",
"1954 231 OFFCURVE",
"1951 237 OFFCURVE",
"1952 244 CURVE SMOOTH",
"1991 582 LINE SMOOTH",
"1992 593 OFFCURVE",
"1985 600 OFFCURVE",
"1975 601 CURVE SMOOTH",
"1901 607 LINE SMOOTH",
"1892 608 OFFCURVE",
"1883 603 OFFCURVE",
"1882 592 CURVE SMOOTH",
"1849 343 LINE SMOOTH",
"1830 199 OFFCURVE",
"1718 173 OFFCURVE",
"1570 173 CURVE SMOOTH",
"1503 173 OFFCURVE",
"1433 175 OFFCURVE",
"1381 193 CURVE SMOOTH",
"1336 209 OFFCURVE",
"1304 239 OFFCURVE",
"1295 301 CURVE SMOOTH",
"1257 569 LINE SMOOTH",
"1254 588 OFFCURVE",
"1237 593 OFFCURVE",
"1224 583 CURVE SMOOTH",
"1113 501 LINE SMOOTH",
"1109 498 OFFCURVE",
"1106 492 OFFCURVE",
"1107 486 CURVE SMOOTH",
"1214 -177 LINE SMOOTH",
"1215 -184 OFFCURVE",
"1212 -191 OFFCURVE",
"1205 -194 CURVE SMOOTH",
"1145 -222 OFFCURVE",
"882 -330 OFFCURVE",
"618 -330 CURVE SMOOTH",
"392 -330 OFFCURVE",
"251 -216 OFFCURVE",
"304 61 CURVE SMOOTH",
"338 239 LINE SMOOTH",
"340 251 OFFCURVE",
"332 259 OFFCURVE",
"322 260 CURVE SMOOTH",
"248 270 LINE SMOOTH",
"239 271 OFFCURVE",
"231 267 OFFCURVE",
"229 256 CURVE SMOOTH",
"187 38 LINE SMOOTH",
"131 -255 OFFCURVE",
"222 -531 OFFCURVE",
"590 -531 CURVE SMOOTH"
);
}
);
width = 2870;
},
{
anchors = (
{
name = bottom;
position = "{590, -710}";
},
{
name = top;
position = "{709, 633}";
}
);
layerId = "00FED3EE-B3F5-49E6-B91A-35FC52169726";
paths = (
{
closed = 1;
nodes = (
"2694 161 LINE SMOOTH",
"2526 161 OFFCURVE",
"2486 220 OFFCURVE",
"2451 476 CURVE SMOOTH",
"2428 643 LINE SMOOTH",
"2427 649 OFFCURVE",
"2420 654 OFFCURVE",
"2410 654 CURVE",
"2291 566 LINE",
"2355 196 LINE SMOOTH",
"2361 162 OFFCURVE",
"2304 149 OFFCURVE",
"2226 149 CURVE SMOOTH",
"2119 149 OFFCURVE",
"1973 174 OFFCURVE",
"1898 208 CURVE",
"1929 560 LINE",
"1930 567 OFFCURVE",
"1924 571 OFFCURVE",
"1913 572 CURVE SMOOTH",
"1842 578 LINE SMOOTH",
"1833 579 OFFCURVE",
"1824 574 OFFCURVE",
"1823 568 CURVE SMOOTH",
"1790 323 LINE SMOOTH",
"1774 201 OFFCURVE",
"1699 155 OFFCURVE",
"1522 155 CURVE SMOOTH",
"1383 155 OFFCURVE",
"1276 162 OFFCURVE",
"1259 283 CURVE SMOOTH",
"1223 540 LINE SMOOTH",
"1221 552 OFFCURVE",
"1206 556 OFFCURVE",
"1196 548 CURVE SMOOTH",
"1077 463 LINE",
"1180 -173 LINE SMOOTH",
"1182 -185 OFFCURVE",
"1180 -193 OFFCURVE",
"1168 -198 CURVE",
"1103 -229 OFFCURVE",
"856 -328 OFFCURVE",
"609 -328 CURVE SMOOTH",
"406 -328 OFFCURVE",
"297 -231 OFFCURVE",
"297 -51 CURVE SMOOTH",
"297 5 OFFCURVE",
"312 29 OFFCURVE",
"340 225 CURVE SMOOTH",
"341 232 OFFCURVE",
"341 238 OFFCURVE",
"329 239 CURVE SMOOTH",
"253 248 LINE SMOOTH",
"234 250 OFFCURVE",
"234 251 OFFCURVE",
"232 241 CURVE SMOOTH",
"188 4 OFFCURVE",
"180 -42 OFFCURVE",
"180 -113 CURVE SMOOTH",
"180 -367 OFFCURVE",
"324 -510 OFFCURVE",
"582 -510 CURVE SMOOTH",
"800 -510 OFFCURVE",
"1146 -420 OFFCURVE",
"1259 -262 CURVE SMOOTH",
"1286 -224 OFFCURVE",
"1298 -184 OFFCURVE",
"1298 -115 CURVE SMOOTH",
"1298 -76 OFFCURVE",
"1296 -33 OFFCURVE",
"1290 20 CURVE",
"1353 3 OFFCURVE",
"1433 -7 OFFCURVE",
"1512 -7 CURVE SMOOTH",
"1636 -7 OFFCURVE",
"1757 18 OFFCURVE",
"1806 82 CURVE",
"1894 28 OFFCURVE",
"2018 -4 OFFCURVE",
"2143 -4 CURVE SMOOTH",
"2311 -4 OFFCURVE",
"2383 30 OFFCURVE",
"2436 133 CURVE",
"2507 42 OFFCURVE",
"2580 0 OFFCURVE",
"2694 0 CURVE SMOOTH",
"2792 0 LINE",
"2814 28 OFFCURVE",
"2824 53 OFFCURVE",
"2824 81 CURVE SMOOTH",
"2824 109 OFFCURVE",
"2814 133 OFFCURVE",
"2792 161 CURVE"
);
}
);
width = 2772;
},
{
anchors = (
{
name = bottom;
position = "{616, -721}";
},
{
name = top;
position = "{690, 658}";
}
);
layerId = "E3174D42-D779-465D-8194-70AED922C337";
paths = (
{
closed = 1;
nodes = (
"2696 191 LINE SMOOTH",
"2532 191 OFFCURVE",
"2502 262 OFFCURVE",
"2462 513 CURVE SMOOTH",
"2439 660 LINE",
"2436 675 OFFCURVE",
"2425 684 OFFCURVE",
"2412 684 CURVE SMOOTH",
"2406 684 OFFCURVE",
"2399 682 OFFCURVE",
"2393 677 CURVE SMOOTH",
"2297 600 LINE",
"2291 594 OFFCURVE",
"2287 588 OFFCURVE",
"2287 582 CURVE",
"2348 207 LINE",
"2349 203 OFFCURVE",
"2347 199 OFFCURVE",
"2342 198 CURVE SMOOTH",
"2283 186 OFFCURVE",
"2226 180 OFFCURVE",
"2172 180 CURVE SMOOTH",
"2074 180 OFFCURVE",
"1984 200 OFFCURVE",
"1904 237 CURVE",
"1901 238 OFFCURVE",
"1901 240 OFFCURVE",
"1901 243 CURVE",
"1940 573 LINE SMOOTH",
"1942 588 OFFCURVE",
"1932 601 OFFCURVE",
"1916 602 CURVE SMOOTH",
"1845 608 LINE SMOOTH",
"1830 609 OFFCURVE",
"1818 599 OFFCURVE",
"1816 585 CURVE SMOOTH",
"1783 340 LINE SMOOTH",
"1767 228 OFFCURVE",
"1696 185 OFFCURVE",
"1524 185 CURVE SMOOTH",
"1385 185 OFFCURVE",
"1284 192 OFFCURVE",
"1270 300 CURVE SMOOTH",
"1234 557 LINE",
"1231 574 OFFCURVE",
"1219 584 OFFCURVE",
"1206 584 CURVE SMOOTH",
"1200 584 OFFCURVE",
"1193 582 OFFCURVE",
"1187 577 CURVE",
"1080 498 LINE",
"1074 494 OFFCURVE",
"1070 485 OFFCURVE",
"1070 477 CURVE",
"1173 -162 LINE",
"1174 -165 OFFCURVE",
"1172 -167 OFFCURVE",
"1170 -168 CURVE SMOOTH",
"1113 -195 OFFCURVE",
"862 -298 OFFCURVE",
"611 -298 CURVE SMOOTH",
"412 -298 OFFCURVE",
"308 -206 OFFCURVE",
"308 -36 CURVE SMOOTH",
"308 17 OFFCURVE",
"314 39 OFFCURVE",
"351 237 CURVE SMOOTH",
"354 253 OFFCURVE",
"344 267 OFFCURVE",
"327 269 CURVE SMOOTH",
"256 278 LINE SMOOTH",
"242 280 OFFCURVE",
"230 272 OFFCURVE",
"228 257 CURVE",
"181 18 OFFCURVE",
"173 -16 OFFCURVE",
"173 -98 CURVE SMOOTH",
"173 -323 OFFCURVE",
"286 -510 OFFCURVE",
"584 -510 CURVE SMOOTH",
"802 -510 OFFCURVE",
"1151 -419 OFFCURVE",
"1268 -256 CURVE SMOOTH",
"1300 -213 OFFCURVE",
"1309 -162 OFFCURVE",
"1309 -100 CURVE SMOOTH",
"1309 -64 OFFCURVE",
"1307 -26 OFFCURVE",
"1303 17 CURVE",
"1368 1 OFFCURVE",
"1444 -9 OFFCURVE",
"1516 -9 CURVE SMOOTH",
"1644 -8 OFFCURVE",
"1761 28 OFFCURVE",
"1809 81 CURVE",
"1905 24 OFFCURVE",
"2028 -4 OFFCURVE",
"2145 -4 CURVE SMOOTH",
"2301 -4 OFFCURVE",
"2390 33 OFFCURVE",
"2432 115 CURVE",
"2434 120 OFFCURVE",
"2436 122 OFFCURVE",
"2439 122 CURVE SMOOTH",
"2442 122 OFFCURVE",
"2444 121 OFFCURVE",
"2447 117 CURVE SMOOTH",
"2508 41 OFFCURVE",
"2595 0 OFFCURVE",
"2696 0 CURVE SMOOTH",
"2784 0 LINE",
"2811 32 OFFCURVE",
"2823 64 OFFCURVE",
"2823 96 CURVE SMOOTH",
"2823 128 OFFCURVE",
"2811 159 OFFCURVE",
"2784 191 CURVE"
);
}
);
width = 2774;
},
{
anchors = (
{
name = bottom;
position = "{613, -709}";
},
{
name = top;
position = "{687, 654}";
}
);
layerId = "AB6A8399-B57F-40CA-845C-76C4C0121470";
paths = (
{
closed = 1;
nodes = (
"2723 223 LINE SMOOTH",
"2583 223 OFFCURVE",
"2550 269 OFFCURVE",
"2509 532 CURVE SMOOTH",
"2486 678 LINE",
"2486 679 LINE",
"2294 597 LINE",
"2354 228 LINE",
"2300 217 OFFCURVE",
"2249 212 OFFCURVE",
"2199 212 CURVE SMOOTH",
"2109 212 OFFCURVE",
"2025 230 OFFCURVE",
"1948 264 CURVE",
"1948 268 OFFCURVE",
"1949 275 OFFCURVE",
"1951 286 CURVE",
"1987 587 LINE",
"1823 603 LINE",
"1790 358 LINE SMOOTH",
"1776 254 OFFCURVE",
"1714 217 OFFCURVE",
"1551 217 CURVE SMOOTH",
"1413 217 OFFCURVE",
"1329 223 OFFCURVE",
"1317 318 CURVE SMOOTH",
"1281 595 LINE",
"1281 596 LINE",
"1077 492 LINE",
"1179 -142 LINE",
"1108 -174 OFFCURVE",
"873 -266 OFFCURVE",
"638 -266 CURVE SMOOTH",
"451 -266 OFFCURVE",
"355 -182 OFFCURVE",
"355 -20 CURVE SMOOTH",
"355 31 OFFCURVE",
"361 52 OFFCURVE",
"398 250 CURVE",
"235 275 LINE",
"235 276 LINE",
"188 37 OFFCURVE",
"180 1 OFFCURVE",
"180 -82 CURVE SMOOTH",
"180 -353 OFFCURVE",
"337 -510 OFFCURVE",
"611 -510 CURVE SMOOTH",
"832 -510 OFFCURVE",
"1191 -416 OFFCURVE",
"1311 -249 CURVE SMOOTH",
"1342 -206 OFFCURVE",
"1356 -157 OFFCURVE",
"1356 -84 CURVE SMOOTH",
"1356 -54 OFFCURVE",
"1355 -23 OFFCURVE",
"1352 11 CURVE",
"1414 -2 OFFCURVE",
"1481 -9 OFFCURVE",
"1543 -9 CURVE SMOOTH",
"1667 -9 OFFCURVE",
"1784 25 OFFCURVE",
"1840 75 CURVE",
"1932 25 OFFCURVE",
"2052 -4 OFFCURVE",
"2172 -4 CURVE SMOOTH",
"2326 -4 OFFCURVE",
"2422 32 OFFCURVE",
"2469 110 CURVE",
"2533 39 OFFCURVE",
"2623 0 OFFCURVE",
"2723 0 CURVE SMOOTH",
"2831 0 LINE",
"2866 35 OFFCURVE",
"2881 72 OFFCURVE",
"2881 112 CURVE SMOOTH",
"2881 152 OFFCURVE",
"2866 188 OFFCURVE",
"2831 223 CURVE"
);
}
);
width = 2816;
},
{
anchors = (
{
name = bottom;
position = "{631, -729}";
},
{
name = top;
position = "{705, 674}";
}
);
layerId = "EAE1A523-EADE-4FB1-A034-E66E80F3AE4F";
paths = (
{
closed = 1;
nodes = (
"2741 273 LINE SMOOTH",
"2617 273 OFFCURVE",
"2584 308 OFFCURVE",
"2552 561 CURVE SMOOTH",
"2529 742 LINE",
"2284 637 LINE",
"2343 273 LINE",
"2300 266 OFFCURVE",
"2259 262 OFFCURVE",
"2217 262 CURVE SMOOTH",
"2138 262 OFFCURVE",
"2064 276 OFFCURVE",
"1993 305 CURVE",
"1993 305 OFFCURVE",
"1994 306 OFFCURVE",
"1994 307 CURVE",
"2033 634 LINE",
"1819 655 LINE",
"1783 386 LINE SMOOTH",
"1771 297 OFFCURVE",
"1721 267 OFFCURVE",
"1569 267 CURVE SMOOTH",
"1408 267 OFFCURVE",
"1367 282 OFFCURVE",
"1360 346 CURVE SMOOTH",
"1324 662 LINE",
"1067 531 LINE",
"1169 -102 LINE",
"1083 -138 OFFCURVE",
"870 -216 OFFCURVE",
"656 -216 CURVE SMOOTH",
"483 -216 OFFCURVE",
"398 -143 OFFCURVE",
"398 5 CURVE SMOOTH",
"398 55 OFFCURVE",
"404 68 OFFCURVE",
"445 291 CURVE",
"231 316 LINE",
"185 77 OFFCURVE",
"173 29 OFFCURVE",
"173 -57 CURVE SMOOTH",
"173 -342 OFFCURVE",
"342 -510 OFFCURVE",
"629 -510 CURVE SMOOTH",
"853 -510 OFFCURVE",
"1223 -412 OFFCURVE",
"1349 -239 CURVE SMOOTH",
"1384 -191 OFFCURVE",
"1399 -135 OFFCURVE",
"1399 -59 CURVE SMOOTH",
"1399 -36 OFFCURVE",
"1398 -15 OFFCURVE",
"1397 5 CURVE",
"1451 -4 OFFCURVE",
"1508 -9 OFFCURVE",
"1561 -9 CURVE SMOOTH",
"1680 -9 OFFCURVE",
"1796 22 OFFCURVE",
"1861 70 CURVE",
"1955 23 OFFCURVE",
"2073 -4 OFFCURVE",
"2190 -4 CURVE SMOOTH",
"2336 -4 OFFCURVE",
"2434 28 OFFCURVE",
"2490 96 CURVE",
"2557 34 OFFCURVE",
"2645 0 OFFCURVE",
"2741 0 CURVE SMOOTH",
"2864 0 LINE",
"2907 39 OFFCURVE",
"2929 86 OFFCURVE",
"2929 137 CURVE SMOOTH",
"2929 188 OFFCURVE",
"2907 233 OFFCURVE",
"2864 273 CURVE"
);
}
);
width = 2834;
},
{
anchors = (
{
name = bottom;
position = "{426, -741}";
},
{
name = top;
position = "{885, 658}";
}
);
layerId = "020FDE62-5533-4E0C-98E7-097025284E4F";
paths = (
{
closed = 1;
nodes = (
"2751 191 LINE SMOOTH",
"2587 191 OFFCURVE",
"2578 262 OFFCURVE",
"2614 513 CURVE SMOOTH",
"2634 660 LINE",
"2636 675 OFFCURVE",
"2628 684 OFFCURVE",
"2615 684 CURVE SMOOTH",
"2609 684 OFFCURVE",
"2602 682 OFFCURVE",
"2594 677 CURVE SMOOTH",
"2475 600 LINE",
"2467 594 OFFCURVE",
"2461 588 OFFCURVE",
"2459 582 CURVE",
"2408 207 LINE",
"2408 203 OFFCURVE",
"2405 199 OFFCURVE",
"2400 198 CURVE SMOOTH",
"2336 186 OFFCURVE",
"2278 180 OFFCURVE",
"2224 180 CURVE SMOOTH",
"2126 180 OFFCURVE",
"2042 200 OFFCURVE",
"1973 237 CURVE",
"1970 238 OFFCURVE",
"1971 240 OFFCURVE",
"1971 243 CURVE",
"2109 573 LINE SMOOTH",
"2116 588 OFFCURVE",
"2110 601 OFFCURVE",
"2094 602 CURVE SMOOTH",
"2025 608 LINE SMOOTH",
"2010 609 OFFCURVE",
"1996 599 OFFCURVE",
"1989 585 CURVE SMOOTH",
"1883 340 LINE SMOOTH",
"1833 228 OFFCURVE",
"1749 185 OFFCURVE",
"1577 185 CURVE SMOOTH",
"1438 185 OFFCURVE",
"1339 192 OFFCURVE",
"1357 300 CURVE SMOOTH",
"1398 557 LINE",
"1401 574 OFFCURVE",
"1392 584 OFFCURVE",
"1379 584 CURVE SMOOTH",
"1373 584 OFFCURVE",
"1365 582 OFFCURVE",
"1358 577 CURVE",
"1227 498 LINE",
"1220 494 OFFCURVE",
"1213 485 OFFCURVE",
"1211 477 CURVE",
"1123 -162 LINE",
"1123 -165 OFFCURVE",
"1120 -167 OFFCURVE",
"1117 -168 CURVE SMOOTH",
"1052 -195 OFFCURVE",
"771 -298 OFFCURVE",
"520 -298 CURVE SMOOTH",
"321 -298 OFFCURVE",
"244 -206 OFFCURVE",
"295 -36 CURVE SMOOTH",
"311 17 OFFCURVE",
"324 39 OFFCURVE",
"420 237 CURVE SMOOTH",
"427 253 OFFCURVE",
"422 267 OFFCURVE",
"405 269 CURVE SMOOTH",
"337 278 LINE SMOOTH",
"324 280 OFFCURVE",
"309 272 OFFCURVE",
"303 257 CURVE",
"185 18 OFFCURVE",
"166 -16 OFFCURVE",
"142 -98 CURVE SMOOTH",
"74 -323 OFFCURVE",
"131 -510 OFFCURVE",
"429 -510 CURVE SMOOTH",
"647 -510 OFFCURVE",
"1024 -419 OFFCURVE",
"1189 -256 CURVE SMOOTH",
"1234 -213 OFFCURVE",
"1259 -162 OFFCURVE",
"1277 -100 CURVE SMOOTH",
"1288 -64 OFFCURVE",
"1297 -26 OFFCURVE",
"1306 17 CURVE",
"1366 1 OFFCURVE",
"1439 -9 OFFCURVE",
"1511 -9 CURVE SMOOTH",
"1640 -8 OFFCURVE",
"1768 28 OFFCURVE",
"1831 81 CURVE",
"1910 24 OFFCURVE",
"2024 -4 OFFCURVE",
"2141 -4 CURVE SMOOTH",
"2297 -4 OFFCURVE",
"2398 33 OFFCURVE",
"2464 115 CURVE",
"2467 120 OFFCURVE",
"2471 122 OFFCURVE",
"2474 122 CURVE SMOOTH",
"2477 122 OFFCURVE",
"2479 121 OFFCURVE",
"2480 117 CURVE SMOOTH",
"2518 41 OFFCURVE",
"2593 0 OFFCURVE",
"2694 0 CURVE SMOOTH",
"2782 0 LINE",
"2818 32 OFFCURVE",
"2841 64 OFFCURVE",
"2850 96 CURVE SMOOTH",
"2859 128 OFFCURVE",
"2857 159 OFFCURVE",
"2839 191 CURVE"
);
}
);
width = 2770;
},
{
anchors = (
{
name = bottom;
position = "{359, -710}";
},
{
name = top;
position = "{914, 633}";
}
);
layerId = "CC24164E-6342-4A92-AABB-B05B5693BF45";
paths = (
{
closed = 1;
nodes = (
"2746 161 LINE SMOOTH",
"2578 161 OFFCURVE",
"2557 220 OFFCURVE",
"2605 476 CURVE SMOOTH",
"2637 643 LINE SMOOTH",
"2637 649 OFFCURVE",
"2632 654 OFFCURVE",
"2622 654 CURVE",
"2475 566 LINE",
"2418 196 LINE SMOOTH",
"2413 162 OFFCURVE",
"2352 149 OFFCURVE",
"2274 149 CURVE SMOOTH",
"2167 149 OFFCURVE",
"2029 174 OFFCURVE",
"1965 208 CURVE",
"2111 560 LINE",
"2114 567 OFFCURVE",
"2109 571 OFFCURVE",
"2098 572 CURVE SMOOTH",
"2029 578 LINE SMOOTH",
"2021 579 OFFCURVE",
"2010 574 OFFCURVE",
"2007 568 CURVE SMOOTH",
"1895 323 LINE SMOOTH",
"1839 201 OFFCURVE",
"1749 155 OFFCURVE",
"1572 155 CURVE SMOOTH",
"1433 155 OFFCURVE",
"1328 162 OFFCURVE",
"1351 283 CURVE SMOOTH",
"1398 540 LINE SMOOTH",
"1400 552 OFFCURVE",
"1386 556 OFFCURVE",
"1374 548 CURVE SMOOTH",
"1227 463 LINE",
"1123 -173 LINE SMOOTH",
"1121 -185 OFFCURVE",
"1117 -193 OFFCURVE",
"1103 -198 CURVE",
"1028 -229 OFFCURVE",
"749 -328 OFFCURVE",
"502 -328 CURVE SMOOTH",
"299 -328 OFFCURVE",
"222 -231 OFFCURVE",
"280 -51 CURVE SMOOTH",
"298 5 OFFCURVE",
"321 29 OFFCURVE",
"413 225 CURVE SMOOTH",
"416 232 OFFCURVE",
"418 238 OFFCURVE",
"406 239 CURVE SMOOTH",
"333 248 LINE SMOOTH",
"315 250 OFFCURVE",
"315 251 OFFCURVE",
"310 241 CURVE SMOOTH",
"189 4 OFFCURVE",
"166 -42 OFFCURVE",
"143 -113 CURVE SMOOTH",
"60 -367 OFFCURVE",
"158 -510 OFFCURVE",
"416 -510 CURVE SMOOTH",
"634 -510 OFFCURVE",
"1009 -420 OFFCURVE",
"1173 -262 CURVE SMOOTH",
"1213 -224 OFFCURVE",
"1238 -184 OFFCURVE",
"1260 -115 CURVE SMOOTH",
"1273 -76 OFFCURVE",
"1285 -33 OFFCURVE",
"1296 20 CURVE",
"1354 3 OFFCURVE",
"1430 -7 OFFCURVE",
"1509 -7 CURVE SMOOTH",
"1633 -7 OFFCURVE",
"1762 18 OFFCURVE",
"1832 82 CURVE",
"1903 28 OFFCURVE",
"2016 -4 OFFCURVE",
"2141 -4 CURVE SMOOTH",
"2309 -4 OFFCURVE",
"2392 30 OFFCURVE",
"2479 133 CURVE",
"2520 42 OFFCURVE",
"2580 0 OFFCURVE",
"2694 0 CURVE SMOOTH",
"2792 0 LINE",
"2823 28 OFFCURVE",
"2841 53 OFFCURVE",
"2850 81 CURVE SMOOTH",
"2859 109 OFFCURVE",
"2857 133 OFFCURVE",
"2844 161 CURVE"
);
}
);
width = 2772;
},
{
anchors = (
{
name = bottom;
position = "{521, -731}";
},
{
name = top;
position = "{788, 658}";
}
);
associatedMasterId = "00FED3EE-B3F5-49E6-B91A-35FC52169726";
layerId = "A59E3E2D-B48C-4CDD-836A-A1E73DB51526";
paths = (
{
closed = 1;
nodes = (
"2724 191 LINE SMOOTH",
"2560 191 OFFCURVE",
"2540 262 OFFCURVE",
"2538 513 CURVE SMOOTH",
"2537 660 LINE",
"2536 675 OFFCURVE",
"2527 684 OFFCURVE",
"2514 684 CURVE SMOOTH",
"2508 684 OFFCURVE",
"2501 682 OFFCURVE",
"2494 677 CURVE SMOOTH",
"2386 600 LINE",
"2379 594 OFFCURVE",
"2374 588 OFFCURVE",
"2373 582 CURVE",
"2378 207 LINE",
"2379 203 OFFCURVE",
"2376 199 OFFCURVE",
"2371 198 CURVE SMOOTH",
"2310 186 OFFCURVE",
"2252 180 OFFCURVE",
"2198 180 CURVE SMOOTH",
"2100 180 OFFCURVE",
"2013 200 OFFCURVE",
"1939 237 CURVE",
"1936 238 OFFCURVE",
"1936 240 OFFCURVE",
"1936 243 CURVE",
"2025 573 LINE SMOOTH",
"2029 588 OFFCURVE",
"2021 601 OFFCURVE",
"2005 602 CURVE SMOOTH",
"1935 608 LINE SMOOTH",
"1920 609 OFFCURVE",
"1907 599 OFFCURVE",
"1903 585 CURVE SMOOTH",
"1833 340 LINE SMOOTH",
"1800 228 OFFCURVE",
"1723 185 OFFCURVE",
"1551 185 CURVE SMOOTH",
"1412 185 OFFCURVE",
"1312 192 OFFCURVE",
"1314 300 CURVE SMOOTH",
"1316 557 LINE",
"1316 574 OFFCURVE",
"1306 584 OFFCURVE",
"1293 584 CURVE SMOOTH",
"1287 584 OFFCURVE",
"1279 582 OFFCURVE",
"1273 577 CURVE",
"1154 498 LINE",
"1147 494 OFFCURVE",
"1142 485 OFFCURVE",
"1141 477 CURVE",
"1148 -162 LINE",
"1149 -165 OFFCURVE",
"1146 -167 OFFCURVE",
"1144 -168 CURVE SMOOTH",
"1083 -195 OFFCURVE",
"817 -298 OFFCURVE",
"566 -298 CURVE SMOOTH",
"367 -298 OFFCURVE",
"276 -206 OFFCURVE",
"302 -36 CURVE SMOOTH",
"310 17 OFFCURVE",
"319 39 OFFCURVE",
"386 237 CURVE SMOOTH",
"391 253 OFFCURVE",
"383 267 OFFCURVE",
"366 269 CURVE SMOOTH",
"297 278 LINE SMOOTH",
"283 280 OFFCURVE",
"270 272 OFFCURVE",
"266 257 CURVE",
"183 18 OFFCURVE",
"170 -16 OFFCURVE",
"158 -98 CURVE SMOOTH",
"124 -323 OFFCURVE",
"209 -510 OFFCURVE",
"507 -510 CURVE SMOOTH",
"725 -510 OFFCURVE",
"1088 -419 OFFCURVE",
"1229 -256 CURVE SMOOTH",
"1267 -213 OFFCURVE",
"1284 -162 OFFCURVE",
"1293 -100 CURVE SMOOTH",
"1299 -64 OFFCURVE",
"1302 -26 OFFCURVE",
"1305 17 CURVE",
"1367 1 OFFCURVE",
"1442 -9 OFFCURVE",
"1514 -9 CURVE SMOOTH",
"1642 -8 OFFCURVE",
"1765 28 OFFCURVE",
"1820 81 CURVE",
"1908 24 OFFCURVE",
"2026 -4 OFFCURVE",
"2143 -4 CURVE SMOOTH",
"2299 -4 OFFCURVE",
"2394 33 OFFCURVE",
"2448 115 CURVE",
"2451 120 OFFCURVE",
"2454 122 OFFCURVE",
"2457 122 CURVE SMOOTH",
"2460 122 OFFCURVE",
"2462 121 OFFCURVE",
"2464 117 CURVE SMOOTH",
"2513 41 OFFCURVE",
"2594 0 OFFCURVE",
"2695 0 CURVE SMOOTH",
"2783 0 LINE",
"2815 32 OFFCURVE",
"2832 64 OFFCURVE",
"2837 96 CURVE SMOOTH",
"2841 128 OFFCURVE",
"2834 159 OFFCURVE",
"2812 191 CURVE"
);
}
);
width = 2772;
},
{
anchors = (
{
name = bottom;
position = "{393, -729}";
},
{
name = top;
position = "{923, 674}";
}
);
layerId = "A4A63F56-930B-4BA2-9E35-208CEDD14325";
paths = (
{
closed = 1;
nodes = (
"2829 273 LINE SMOOTH",
"2705 273 OFFCURVE",
"2683 308 OFFCURVE",
"2734 561 CURVE SMOOTH",
"2769 742 LINE",
"2490 637 LINE",
"2431 273 LINE",
"2386 266 OFFCURVE",
"2343 262 OFFCURVE",
"2301 262 CURVE SMOOTH",
"2222 262 OFFCURVE",
"2153 276 OFFCURVE",
"2091 305 CURVE",
"2091 305 OFFCURVE",
"2093 306 OFFCURVE",
"2093 307 CURVE",
"2238 634 LINE",
"2031 655 LINE",
"1908 386 LINE SMOOTH",
"1867 297 OFFCURVE",
"1807 267 OFFCURVE",
"1655 267 CURVE SMOOTH",
"1494 267 OFFCURVE",
"1458 282 OFFCURVE",
"1472 346 CURVE SMOOTH",
"1538 662 LINE",
"1239 531 LINE",
"1135 -102 LINE",
"1037 -138 OFFCURVE",
"799 -216 OFFCURVE",
"585 -216 CURVE SMOOTH",
"412 -216 OFFCURVE",
"351 -143 OFFCURVE",
"399 5 CURVE SMOOTH",
"415 55 OFFCURVE",
"425 68 OFFCURVE",
"539 291 CURVE",
"333 316 LINE",
"209 77 OFFCURVE",
"182 29 OFFCURVE",
"154 -57 CURVE SMOOTH",
"61 -342 OFFCURVE",
"176 -510 OFFCURVE",
"463 -510 CURVE SMOOTH",
"687 -510 OFFCURVE",
"1088 -412 OFFCURVE",
"1271 -239 CURVE SMOOTH",
"1321 -191 OFFCURVE",
"1354 -135 OFFCURVE",
"1379 -59 CURVE SMOOTH",
"1387 -36 OFFCURVE",
"1392 -15 OFFCURVE",
"1398 5 CURVE",
"1449 -4 OFFCURVE",
"1504 -9 OFFCURVE",
"1557 -9 CURVE SMOOTH",
"1676 -9 OFFCURVE",
"1802 22 OFFCURVE",
"1883 70 CURVE",
"1962 23 OFFCURVE",
"2071 -4 OFFCURVE",
"2188 -4 CURVE SMOOTH",
"2334 -4 OFFCURVE",
"2442 28 OFFCURVE",
"2521 96 CURVE",
"2567 34 OFFCURVE",
"2644 0 OFFCURVE",
"2740 0 CURVE SMOOTH",
"2863 0 LINE",
"2919 39 OFFCURVE",
"2956 86 OFFCURVE",
"2973 137 CURVE SMOOTH",
"2989 188 OFFCURVE",
"2982 233 OFFCURVE",
"2952 273 CURVE"
);
}
);
width = 2833;
}
);
unicode = FEB2;
},
